<?xml version="1.0" standalone="no"?>
<!DOCTYPE svg PUBLIC "-//W3C//DTD SVG 1.1//EN" "http://www.w3.org/Graphics/SVG/1.1/DTD/svg11.dtd">
<!--Generator: Xara Designer (www.xara.com), SVG filter version: 6.7.0.0-->
<svg fill="none" fill-rule="evenodd" stroke="black" stroke-width="0.501" stroke-linejoin="bevel" stroke-miterlimit="10" font-family="Times New Roman" font-size="16" style="font-variant-ligatures:none" xmlns:xlink="http://www.w3.org/1999/xlink" xmlns="http://www.w3.org/2000/svg" version="1.1" overflow="visible" width="206.029pt" height="47.929pt" viewBox="378.582 -423.041 206.029 47.929">
 <defs>
	</defs>
 <g id="Layer 1" transform="scale(1 -1)">
  <g id="Group" stroke="none">
   <rect x="378.583" y="375.113" width="206.028" height="47.929" rx="6.11" ry="6.11" stroke-width="0.992" stroke-linejoin="miter" stroke-linecap="round"/>
   <g id="Group_1" font-weight="bold" font-family="" stroke-linejoin="round" stroke-linecap="round" stroke-width="0.407" fill="#007a54">
    <g id="Group_2" fill-rule="nonzero">
     <g id="Group_3">
      <path d="M 436.819,387.811 C 437.82,387.812 438.782,387.952 439.703,388.23 C 440.625,388.508 441.449,388.913 442.176,389.448 C 442.904,389.982 443.476,390.634 443.896,391.405 C 444.315,392.175 444.521,393.052 444.515,394.038 C 444.503,394.854 444.334,395.557 444.01,396.146 C 443.685,396.735 443.24,397.254 442.672,397.703 C 442.104,398.151 441.45,398.571 440.707,398.962 C 439.964,399.354 439.168,399.759 438.318,400.178 C 437.297,400.687 436.437,401.155 435.734,401.58 C 435.031,402.005 434.498,402.448 434.135,402.908 C 433.772,403.37 433.59,403.908 433.587,404.526 C 433.589,405.019 433.701,405.455 433.924,405.833 C 434.147,406.211 434.474,406.508 434.906,406.723 C 435.338,406.938 435.869,407.048 436.496,407.051 C 437.068,407.045 437.597,406.942 438.084,406.74 C 438.569,406.538 439.013,406.273 439.416,405.946 C 439.817,405.619 440.178,405.265 440.498,404.882 C 440.82,404.501 441.101,404.127 441.343,403.762 C 441.616,403.337 441.856,403.025 442.067,402.825 C 442.277,402.625 442.495,402.525 442.724,402.528 C 443.028,402.531 443.234,402.648 443.344,402.876 C 443.454,403.105 443.492,403.419 443.459,403.821 C 443.397,404.468 443.313,405.089 443.208,405.682 C 443.103,406.274 442.991,406.829 442.871,407.345 C 442.783,407.762 442.688,408.083 442.581,408.31 C 442.476,408.537 442.355,408.694 442.22,408.78 C 442.085,408.865 441.93,408.906 441.755,408.903 C 441.565,408.897 441.403,408.862 441.268,408.795 C 441.134,408.729 440.991,408.663 440.841,408.597 C 440.69,408.531 440.495,408.495 440.256,408.491 C 440.03,408.495 439.749,408.531 439.416,408.597 C 439.082,408.663 438.705,408.729 438.287,408.795 C 437.868,408.862 437.418,408.897 436.937,408.903 C 435.845,408.897 434.852,408.742 433.955,408.439 C 433.058,408.137 432.285,407.716 431.634,407.18 C 430.984,406.644 430.482,406.024 430.129,405.32 C 429.776,404.617 429.598,403.862 429.593,403.057 C 429.598,402.197 429.751,401.459 430.051,400.844 C 430.352,400.228 430.768,399.692 431.3,399.233 C 431.833,398.776 432.449,398.355 433.149,397.971 C 433.851,397.587 434.603,397.197 435.409,396.8 C 436.033,396.487 436.636,396.176 437.221,395.867 C 437.805,395.56 438.329,395.237 438.795,394.898 C 439.26,394.559 439.627,394.188 439.895,393.784 C 440.163,393.38 440.294,392.926 440.286,392.423 C 440.268,391.954 440.149,391.516 439.928,391.109 C 439.706,390.7 439.367,390.368 438.91,390.113 C 438.453,389.859 437.864,389.727 437.143,389.72 C 436.314,389.728 435.579,389.86 434.939,390.117 C 434.298,390.374 433.74,390.707 433.265,391.116 C 432.789,391.524 432.385,391.959 432.052,392.422 C 431.721,392.884 431.449,393.325 431.238,393.744 C 431.065,394.037 430.914,394.274 430.785,394.456 C 430.656,394.638 430.527,394.77 430.398,394.854 C 430.268,394.938 430.118,394.979 429.945,394.978 C 429.671,394.973 429.485,394.857 429.387,394.63 C 429.289,394.401 429.25,394.086 429.269,393.685 C 429.331,392.927 429.415,392.197 429.52,391.497 C 429.625,390.797 429.737,390.097 429.857,389.396 C 429.959,388.776 430.101,388.35 430.284,388.115 C 430.465,387.88 430.696,387.769 430.973,387.781 C 431.162,387.788 431.32,387.837 431.449,387.926 C 431.578,388.015 431.721,388.105 431.879,388.194 C 432.037,388.284 432.254,388.333 432.531,388.34 C 432.793,388.333 433.117,388.286 433.505,388.203 C 433.893,388.118 434.36,388.033 434.904,387.948 C 435.449,387.863 436.087,387.817 436.819,387.811 Z" marker-start="none" marker-end="none"/>
      <path d="M 455.329,402.469 C 454.518,402.463 453.8,402.341 453.174,402.105 C 452.549,401.87 452.008,401.557 451.549,401.168 C 451.09,400.779 450.705,400.35 450.393,399.884 L 450.393,401.588 C 450.396,401.894 450.34,402.118 450.228,402.26 C 450.116,402.4 449.936,402.471 449.688,402.469 C 449.573,402.468 449.387,402.436 449.132,402.374 C 448.876,402.312 448.583,402.23 448.253,402.128 C 447.922,402.025 447.587,401.911 447.248,401.787 C 446.907,401.663 446.595,401.538 446.31,401.412 C 445.963,401.257 445.718,401.11 445.576,400.967 C 445.434,400.824 445.366,400.64 445.37,400.413 C 445.377,400.212 445.438,400.048 445.55,399.921 C 445.663,399.793 445.79,399.674 445.929,399.561 C 446.224,399.359 446.448,399.117 446.604,398.833 C 446.76,398.551 446.838,398.206 446.839,397.798 L 446.839,386.283 C 446.836,385.743 446.786,385.319 446.689,385.01 C 446.594,384.7 446.474,384.462 446.333,384.297 C 446.191,384.13 446.048,383.993 445.906,383.885 C 445.765,383.776 445.645,383.653 445.55,383.516 C 445.453,383.379 445.403,383.186 445.4,382.934 C 445.403,382.659 445.522,382.468 445.756,382.358 C 445.99,382.248 446.322,382.196 446.751,382.2 L 450.952,382.2 C 451.352,382.194 451.667,382.242 451.895,382.346 C 452.123,382.45 452.24,382.646 452.245,382.934 C 452.241,383.186 452.191,383.379 452.095,383.516 C 451.999,383.653 451.88,383.776 451.737,383.885 C 451.595,383.993 451.454,384.13 451.312,384.297 C 451.169,384.462 451.051,384.7 450.954,385.01 C 450.859,385.319 450.809,385.743 450.805,386.283 L 450.805,388.985 C 451.324,388.653 451.924,388.371 452.604,388.141 C 453.285,387.911 454.017,387.791 454.8,387.781 C 455.581,387.781 456.353,387.946 457.116,388.276 C 457.878,388.605 458.575,389.098 459.203,389.753 C 459.831,390.408 460.334,391.227 460.712,392.205 C 461.089,393.184 461.283,394.324 461.292,395.624 C 461.287,396.691 461.131,397.648 460.827,398.491 C 460.522,399.335 460.098,400.053 459.555,400.644 C 459.012,401.236 458.38,401.687 457.661,401.999 C 456.941,402.309 456.164,402.466 455.329,402.469 Z M 454.536,389.602 C 454.083,389.603 453.639,389.706 453.206,389.909 C 452.771,390.112 452.378,390.41 452.024,390.799 C 451.67,391.19 451.386,391.667 451.173,392.229 C 450.96,392.792 450.847,393.435 450.834,394.156 L 450.805,396.065 L 450.805,396.153 C 450.808,396.867 450.935,397.518 451.186,398.106 C 451.436,398.694 451.789,399.164 452.246,399.517 C 452.702,399.87 453.24,400.052 453.86,400.06 C 454.579,400.051 455.207,399.784 455.742,399.261 C 456.278,398.738 456.694,398.021 456.992,397.109 C 457.288,396.198 457.439,395.155 457.444,393.979 C 457.445,393.444 457.392,392.921 457.283,392.407 C 457.175,391.894 457.005,391.427 456.772,391.008 C 456.539,390.59 456.239,390.254 455.87,390.001 C 455.5,389.748 455.056,389.616 454.536,389.602 Z" marker-start="none" marker-end="none"/>
      <path d="M 475.155,392.569 C 474.802,392.222 474.408,391.902 473.971,391.609 C 473.535,391.318 473.057,391.083 472.54,390.904 C 472.022,390.727 471.463,390.635 470.867,390.63 C 470.114,390.639 469.459,390.77 468.902,391.024 C 468.345,391.277 467.878,391.606 467.504,392.009 C 467.13,392.413 466.84,392.845 466.636,393.304 C 467.647,393.672 468.606,394.029 469.514,394.376 C 470.422,394.722 471.327,395.081 472.228,395.454 C 473.13,395.826 474.076,396.235 475.067,396.682 C 475.346,396.815 475.538,396.981 475.648,397.178 C 475.756,397.374 475.788,397.591 475.742,397.827 C 475.605,398.681 475.29,399.455 474.798,400.153 C 474.305,400.851 473.639,401.41 472.801,401.828 C 471.963,402.244 470.955,402.458 469.779,402.469 C 468.744,402.464 467.77,402.27 466.856,401.889 C 465.942,401.508 465.134,400.969 464.433,400.274 C 463.731,399.577 463.181,398.756 462.781,397.809 C 462.382,396.862 462.179,395.821 462.172,394.684 C 462.18,393.332 462.475,392.139 463.057,391.106 C 463.638,390.072 464.451,389.263 465.496,388.676 C 466.541,388.09 467.763,387.792 469.163,387.781 C 470.141,387.789 471.023,387.924 471.812,388.184 C 472.599,388.444 473.287,388.779 473.874,389.191 C 474.46,389.603 474.941,390.042 475.314,390.508 C 475.687,390.973 475.948,391.416 476.095,391.835 C 476.187,392.123 476.193,392.357 476.113,392.535 C 476.033,392.713 475.904,392.811 475.726,392.829 C 475.547,392.848 475.357,392.762 475.155,392.569 Z M 468.486,400.53 C 468.963,400.614 469.424,400.564 469.868,400.379 C 470.312,400.193 470.7,399.901 471.033,399.497 C 471.366,399.093 471.604,398.605 471.748,398.034 C 471.814,397.782 471.822,397.583 471.775,397.434 C 471.728,397.285 471.64,397.166 471.515,397.076 C 471.389,396.986 471.241,396.904 471.072,396.829 C 470.278,396.493 469.465,396.173 468.634,395.871 C 467.803,395.567 466.961,395.27 466.107,394.978 C 466.033,395.233 465.976,395.523 465.935,395.848 C 465.893,396.173 465.873,396.5 465.872,396.829 C 465.873,397.462 465.973,398.046 466.172,398.578 C 466.37,399.111 466.665,399.551 467.052,399.897 C 467.44,400.244 467.918,400.454 468.486,400.53 Z" marker-start="none" marker-end="none"/>
      <path d="M 491.814,396.417 C 491.568,397.713 491.239,398.811 490.824,399.709 C 490.41,400.609 489.851,401.293 489.15,401.762 C 488.449,402.23 487.544,402.466 486.438,402.469 C 485.807,402.469 485.198,402.368 484.609,402.168 C 484.02,401.967 483.473,401.668 482.969,401.273 C 482.464,400.876 482.025,400.384 481.65,399.796 L 481.65,401.558 C 481.651,401.852 481.595,402.072 481.484,402.22 C 481.372,402.366 481.192,402.439 480.944,402.439 C 480.821,402.431 480.631,402.396 480.371,402.332 C 480.112,402.269 479.817,402.185 479.487,402.084 C 479.156,401.981 478.823,401.868 478.486,401.741 C 478.15,401.616 477.843,401.486 477.565,401.353 C 477.218,401.199 476.974,401.051 476.831,400.909 C 476.689,400.766 476.621,400.581 476.626,400.354 C 476.63,400.152 476.687,399.989 476.794,399.865 C 476.903,399.741 477.032,399.63 477.184,399.531 C 477.479,399.315 477.705,399.065 477.859,398.779 C 478.015,398.493 478.093,398.146 478.094,397.74 L 478.094,392.158 C 478.091,391.619 478.04,391.195 477.942,390.885 C 477.844,390.575 477.722,390.337 477.577,390.173 C 477.433,390.008 477.288,389.872 477.143,389.766 C 476.997,389.66 476.877,389.54 476.779,389.407 C 476.681,389.274 476.63,389.085 476.626,388.839 C 476.63,388.55 476.753,388.349 476.993,388.237 C 477.232,388.124 477.561,388.07 477.978,388.075 L 482.178,388.075 C 482.592,388.069 482.91,388.118 483.133,388.222 C 483.356,388.325 483.468,388.521 483.471,388.81 C 483.467,389.061 483.417,389.255 483.324,389.392 C 483.23,389.529 483.113,389.65 482.975,389.759 C 482.835,389.868 482.696,390.006 482.557,390.171 C 482.417,390.337 482.302,390.575 482.207,390.884 C 482.113,391.195 482.064,391.619 482.061,392.158 L 482.061,395.918 C 482.068,396.781 482.209,397.51 482.483,398.103 C 482.759,398.696 483.119,399.146 483.566,399.452 C 484.014,399.758 484.5,399.911 485.028,399.914 C 485.667,399.911 486.174,399.739 486.55,399.393 C 486.925,399.048 487.212,398.598 487.412,398.044 C 487.612,397.491 487.767,396.899 487.877,396.271 L 488.788,391.629 C 488.874,391.16 488.868,390.792 488.77,390.524 C 488.671,390.257 488.534,390.042 488.358,389.882 C 488.182,389.721 488.021,389.565 487.875,389.415 C 487.728,389.265 487.65,389.073 487.642,388.839 C 487.646,388.55 487.763,388.349 487.994,388.237 C 488.226,388.124 488.549,388.07 488.963,388.075 L 493.076,388.075 C 493.478,388.069 493.792,388.118 494.021,388.222 C 494.249,388.325 494.364,388.521 494.369,388.81 C 494.363,389.058 494.301,389.254 494.179,389.395 C 494.059,389.537 493.91,389.677 493.734,389.816 C 493.558,389.954 493.386,390.141 493.217,390.379 C 493.048,390.616 492.913,390.955 492.812,391.394 L 491.814,396.417 Z" marker-start="none" marker-end="none"/>
      <path d="M 508.349,408.05 C 508.351,408.357 508.298,408.58 508.188,408.722 C 508.079,408.864 507.908,408.934 507.674,408.931 C 507.55,408.93 507.343,408.89 507.053,408.812 C 506.763,408.735 506.428,408.632 506.052,408.506 C 505.674,408.379 505.292,408.239 504.906,408.089 C 504.52,407.938 504.171,407.788 503.855,407.639 C 503.509,407.484 503.269,407.339 503.135,407.206 C 503.002,407.073 502.938,406.913 502.945,406.729 C 502.952,406.516 503.024,406.345 503.16,406.215 C 503.297,406.084 503.455,405.944 503.635,405.793 C 503.815,405.64 503.974,405.428 504.109,405.154 C 504.246,404.881 504.318,404.495 504.325,403.997 L 504.325,401.705 C 503.911,401.942 503.44,402.129 502.912,402.263 C 502.383,402.398 501.816,402.466 501.212,402.469 C 500.34,402.466 499.47,402.281 498.6,401.913 C 497.731,401.544 496.933,401.008 496.206,400.306 C 495.48,399.604 494.897,398.751 494.458,397.747 C 494.017,396.743 493.792,395.605 493.78,394.332 C 493.788,393.059 494.041,391.939 494.539,390.97 C 495.036,390.001 495.725,389.239 496.604,388.686 C 497.483,388.131 498.499,387.839 499.654,387.811 C 500.417,387.787 501.098,387.877 501.698,388.08 C 502.297,388.284 502.822,388.567 503.271,388.931 C 503.721,389.295 504.101,389.705 504.414,390.16 L 504.442,389.574 C 504.481,388.961 504.595,388.518 504.785,388.244 C 504.974,387.97 505.271,387.835 505.676,387.84 C 505.961,387.844 506.309,387.9 506.721,388.008 C 507.133,388.116 507.547,388.249 507.961,388.406 C 508.377,388.563 508.731,388.716 509.026,388.867 C 509.361,389.055 509.607,389.232 509.764,389.4 C 509.92,389.569 509.997,389.754 509.995,389.955 C 509.986,390.158 509.896,390.309 509.724,390.407 C 509.553,390.508 509.354,390.617 509.129,390.737 C 508.903,390.857 508.704,391.049 508.533,391.314 C 508.361,391.578 508.27,391.978 508.262,392.51 L 508.32,404.026 L 508.349,408.05 Z M 501.388,390.336 C 500.703,390.341 500.072,390.574 499.497,391.034 C 498.921,391.495 498.459,392.156 498.109,393.018 C 497.759,393.88 497.578,394.915 497.569,396.123 C 497.571,397.04 497.697,397.833 497.948,398.504 C 498.197,399.174 498.56,399.693 499.031,400.06 C 499.503,400.427 500.073,400.614 500.742,400.619 C 501.391,400.619 501.965,400.45 502.463,400.112 C 502.963,399.774 503.368,399.267 503.68,398.591 C 503.883,398.172 504.034,397.681 504.134,397.119 C 504.234,396.557 504.298,395.97 504.325,395.361 L 504.325,393.598 C 504.266,392.993 504.116,392.446 503.877,391.955 C 503.637,391.465 503.31,391.074 502.893,390.784 C 502.477,390.492 501.976,390.343 501.388,390.336 Z" marker-start="none" marker-end="none"/>
      <path d="M 540.81,408.638 C 540.422,408.644 540.105,408.595 539.863,408.487 C 539.621,408.38 539.496,408.175 539.489,407.874 C 539.5,407.621 539.58,407.425 539.729,407.286 C 539.879,407.148 540.034,407.002 540.197,406.849 C 540.36,406.697 540.467,406.473 540.517,406.176 C 540.568,405.88 540.499,405.448 540.312,404.878 L 536.287,392.804 L 532.468,404.819 C 532.31,405.353 532.261,405.767 532.325,406.061 C 532.389,406.355 532.503,406.586 532.67,406.754 C 532.836,406.923 532.993,407.086 533.141,407.244 C 533.29,407.402 533.369,407.612 533.378,407.874 C 533.374,408.162 533.251,408.363 533.011,408.477 C 532.772,408.589 532.443,408.643 532.028,408.638 L 527.327,408.638 C 526.871,408.645 526.528,408.593 526.295,408.484 C 526.064,408.374 525.947,408.16 525.947,407.845 C 525.951,407.591 526.026,407.391 526.17,407.247 C 526.313,407.103 526.494,406.953 526.714,406.795 C 526.934,406.636 527.162,406.408 527.397,406.109 C 527.632,405.812 527.843,405.382 528.032,404.819 L 528.385,403.673 L 524.566,392.687 L 520.541,404.819 C 520.376,405.353 520.323,405.767 520.382,406.061 C 520.442,406.355 520.553,406.586 520.718,406.754 C 520.882,406.923 521.038,407.086 521.186,407.244 C 521.333,407.402 521.412,407.612 521.423,407.874 C 521.417,408.162 521.296,408.363 521.056,408.477 C 520.815,408.589 520.488,408.643 520.071,408.638 L 515.372,408.638 C 514.916,408.645 514.571,408.593 514.34,408.484 C 514.108,408.374 513.991,408.16 513.99,407.845 C 513.996,407.591 514.07,407.39 514.214,407.244 C 514.358,407.097 514.541,406.944 514.766,406.783 C 514.989,406.623 515.223,406.394 515.465,406.097 C 515.708,405.8 515.931,405.375 516.134,404.819 L 521.863,388.486 C 521.957,388.21 522.145,388.036 522.429,387.964 C 522.712,387.893 523.151,387.911 523.743,388.016 C 524.131,388.075 524.436,388.152 524.658,388.246 C 524.88,388.341 525.045,388.448 525.148,388.569 C 525.254,388.689 525.324,388.818 525.359,388.956 L 529.354,400.794 L 533.554,388.486 C 533.646,388.207 533.838,388.03 534.132,387.953 C 534.425,387.877 534.889,387.898 535.523,388.016 C 535.91,388.076 536.213,388.155 536.432,388.255 C 536.65,388.354 536.812,388.465 536.916,388.59 C 537.02,388.715 537.094,388.847 537.139,388.985 L 542.573,404.878 C 542.77,405.425 543.004,405.845 543.272,406.135 C 543.54,406.426 543.805,406.649 544.064,406.806 C 544.324,406.963 544.54,407.114 544.714,407.262 C 544.886,407.408 544.976,407.612 544.982,407.874 C 544.975,408.175 544.834,408.38 544.56,408.487 C 544.285,408.595 543.917,408.644 543.455,408.638 L 540.81,408.638 Z" marker-start="none" marker-end="none"/>
      <path d="M 546.448,404.085 C 546.968,404.083 547.464,404.208 547.937,404.46 C 548.41,404.712 548.802,405.046 549.112,405.462 C 549.422,405.878 549.592,406.329 549.621,406.816 C 549.618,407.153 549.536,407.459 549.377,407.734 C 549.216,408.009 548.998,408.23 548.72,408.396 C 548.443,408.564 548.126,408.654 547.771,408.668 C 547.261,408.676 546.776,408.544 546.311,408.27 C 545.847,407.996 545.466,407.644 545.166,407.213 C 544.865,406.783 544.706,406.338 544.686,405.877 C 544.677,405.549 544.743,405.253 544.882,404.987 C 545.021,404.722 545.223,404.508 545.488,404.347 C 545.755,404.186 546.075,404.098 546.448,404.085 Z M 545.45,392.158 C 545.446,391.619 545.396,391.195 545.3,390.885 C 545.204,390.575 545.085,390.337 544.943,390.173 C 544.801,390.008 544.66,389.872 544.517,389.766 C 544.375,389.66 544.256,389.54 544.16,389.407 C 544.063,389.274 544.014,389.085 544.01,388.839 C 544.014,388.55 544.133,388.349 544.367,388.237 C 544.602,388.124 544.932,388.07 545.362,388.075 L 549.562,388.075 C 549.964,388.069 550.278,388.118 550.506,388.222 C 550.735,388.325 550.85,388.521 550.855,388.81 C 550.852,389.061 550.802,389.255 550.705,389.392 C 550.61,389.529 550.49,389.65 550.349,389.759 C 550.206,389.868 550.064,390.006 549.922,390.171 C 549.781,390.337 549.661,390.575 549.566,390.884 C 549.469,391.195 549.419,391.619 549.416,392.158 L 549.416,397.534 L 549.445,401.558 C 549.446,401.867 549.392,402.094 549.284,402.241 C 549.175,402.388 549.004,402.455 548.77,402.439 C 548.645,402.438 548.438,402.398 548.148,402.321 C 547.857,402.243 547.524,402.143 547.146,402.018 C 546.768,401.893 546.387,401.757 546.001,401.609 C 545.616,401.463 545.265,401.318 544.95,401.177 C 544.604,401.021 544.364,400.876 544.231,400.739 C 544.098,400.603 544.034,400.435 544.04,400.236 C 544.047,400.025 544.12,399.855 544.26,399.727 C 544.4,399.599 544.562,399.463 544.745,399.315 C 544.929,399.167 545.089,398.958 545.23,398.687 C 545.369,398.416 545.442,398.031 545.45,397.534 L 545.45,392.158 Z" marker-start="none" marker-end="none"/>
      <path d="M 553.783,387.781 C 553.965,387.788 554.114,387.839 554.231,387.933 C 554.347,388.028 554.456,388.122 554.56,388.217 C 554.664,388.31 554.787,388.361 554.929,388.368 C 555.13,388.361 555.392,388.31 555.715,388.217 C 556.04,388.122 556.459,388.028 556.973,387.933 C 557.485,387.839 558.126,387.788 558.895,387.781 C 559.934,387.787 560.868,387.968 561.697,388.325 C 562.527,388.682 563.185,389.182 563.671,389.823 C 564.158,390.463 564.407,391.212 564.418,392.07 C 564.412,392.768 564.201,393.383 563.785,393.914 C 563.368,394.445 562.777,394.937 562.015,395.386 C 561.252,395.835 560.35,396.287 559.306,396.741 C 558.503,397.079 557.831,397.386 557.29,397.662 C 556.751,397.939 556.345,398.216 556.073,398.492 C 555.8,398.769 555.663,399.076 555.663,399.414 C 555.663,399.653 555.729,399.873 555.86,400.078 C 555.991,400.281 556.19,400.446 556.456,400.571 C 556.72,400.698 557.054,400.761 557.456,400.765 C 557.889,400.76 558.337,400.676 558.796,400.513 C 559.255,400.352 559.706,400.144 560.149,399.89 C 560.592,399.636 561.006,399.37 561.391,399.091 C 561.702,398.862 561.972,398.661 562.204,398.488 C 562.434,398.317 562.644,398.199 562.832,398.135 C 563.021,398.072 563.206,398.086 563.389,398.18 C 563.583,398.265 563.702,398.418 563.746,398.64 C 563.788,398.86 563.739,399.167 563.595,399.561 C 563.469,399.858 563.347,400.137 563.227,400.398 C 563.109,400.659 562.957,400.967 562.773,401.323 C 562.548,401.731 562.357,402.025 562.2,402.204 C 562.042,402.385 561.851,402.472 561.626,402.469 C 561.456,402.464 561.318,402.429 561.209,402.363 C 561.101,402.296 560.987,402.23 560.869,402.164 C 560.751,402.098 560.592,402.063 560.393,402.058 C 560.112,402.072 559.805,402.112 559.474,402.177 C 559.142,402.243 558.765,402.307 558.345,402.37 C 557.924,402.431 557.443,402.464 556.897,402.469 C 556.316,402.47 555.739,402.387 555.164,402.223 C 554.589,402.058 554.063,401.808 553.585,401.47 C 553.107,401.133 552.724,400.706 552.436,400.189 C 552.147,399.672 551.999,399.061 551.991,398.356 C 551.997,397.749 552.12,397.216 552.362,396.753 C 552.604,396.29 552.932,395.882 553.347,395.529 C 553.761,395.175 554.231,394.86 554.755,394.581 C 555.279,394.301 555.827,394.043 556.398,393.803 C 557.686,393.271 558.686,392.778 559.398,392.324 C 560.109,391.869 560.47,391.382 560.481,390.865 C 560.473,390.434 560.313,390.093 560.004,389.842 C 559.694,389.59 559.285,389.461 558.777,389.455 C 557.919,389.461 557.059,389.721 556.199,390.234 C 555.34,390.747 554.436,391.476 553.489,392.423 C 553.168,392.721 552.885,392.938 552.638,393.072 C 552.39,393.206 552.165,393.224 551.962,393.128 C 551.783,393.043 551.657,392.91 551.584,392.731 C 551.512,392.551 551.51,392.301 551.58,391.982 C 551.71,391.495 551.861,391.015 552.036,390.546 C 552.209,390.077 552.42,389.546 552.666,388.956 C 552.848,388.495 553.016,388.183 553.171,388.016 C 553.325,387.85 553.53,387.772 553.783,387.781 Z" marker-start="none" marker-end="none"/>
      <path d="M 578.129,392.569 C 577.776,392.222 577.381,391.902 576.944,391.609 C 576.509,391.318 576.03,391.083 575.513,390.904 C 574.995,390.727 574.436,390.635 573.84,390.63 C 573.087,390.639 572.433,390.77 571.875,391.024 C 571.318,391.277 570.852,391.606 570.477,392.009 C 570.103,392.413 569.814,392.845 569.609,393.304 C 570.62,393.672 571.579,394.029 572.487,394.376 C 573.395,394.722 574.301,395.081 575.202,395.454 C 576.104,395.826 577.049,396.235 578.04,396.682 C 578.319,396.815 578.511,396.981 578.621,397.178 C 578.73,397.374 578.762,397.591 578.716,397.827 C 578.579,398.681 578.263,399.455 577.771,400.153 C 577.279,400.851 576.613,401.41 575.774,401.828 C 574.936,402.244 573.929,402.458 572.753,402.469 C 571.717,402.464 570.743,402.27 569.829,401.889 C 568.915,401.508 568.107,400.969 567.406,400.274 C 566.705,399.577 566.154,398.756 565.754,397.809 C 565.355,396.862 565.152,395.821 565.145,394.684 C 565.153,393.332 565.448,392.139 566.03,391.106 C 566.611,390.072 567.424,389.263 568.469,388.676 C 569.514,388.09 570.736,387.792 572.136,387.781 C 573.114,387.789 573.996,387.924 574.785,388.184 C 575.572,388.444 576.261,388.779 576.848,389.191 C 577.433,389.603 577.914,390.042 578.287,390.508 C 578.66,390.973 578.921,391.416 579.069,391.835 C 579.161,392.123 579.167,392.357 579.086,392.535 C 579.006,392.713 578.877,392.811 578.699,392.829 C 578.521,392.848 578.331,392.762 578.129,392.569 Z M 571.46,400.53 C 571.937,400.614 572.397,400.564 572.841,400.379 C 573.285,400.193 573.674,399.901 574.007,399.497 C 574.34,399.093 574.577,398.605 574.721,398.034 C 574.787,397.782 574.795,397.583 574.748,397.434 C 574.701,397.285 574.614,397.166 574.488,397.076 C 574.362,396.986 574.214,396.904 574.046,396.829 C 573.251,396.493 572.439,396.173 571.607,395.871 C 570.776,395.567 569.934,395.27 569.08,394.978 C 569.006,395.233 568.949,395.523 568.908,395.848 C 568.867,396.173 568.847,396.5 568.845,396.829 C 568.847,397.462 568.946,398.046 569.145,398.578 C 569.344,399.111 569.638,399.551 570.025,399.897 C 570.414,400.244 570.892,400.454 571.46,400.53 Z" marker-start="none" marker-end="none"/>
     </g>
    </g>
   </g>
   <g id="Group_4" stroke-linejoin="miter">
    <path d="M 400.297,408.472 C 400.261,408.455 400.018,408.441 399.757,408.439 C 399.495,408.438 399.126,408.413 398.936,408.387 C 398.749,408.359 398.483,408.324 398.347,408.309 C 397.939,408.263 396.894,408.036 396.693,407.95 C 396.657,407.935 396.546,407.903 396.447,407.88 C 396.348,407.858 396.245,407.828 396.218,407.814 C 396.191,407.8 396.099,407.77 396.013,407.748 C 395.927,407.727 395.849,407.696 395.839,407.681 C 395.83,407.664 395.791,407.652 395.752,407.652 C 395.714,407.652 395.66,407.632 395.631,407.609 C 395.564,407.552 394.99,407.324 394.915,407.324 C 394.882,407.324 394.841,407.311 394.824,407.293 C 394.8,407.271 393.917,406.823 393.466,406.607 C 393.324,406.539 393.237,406.485 393.161,406.414 C 393.121,406.375 393.036,406.323 392.971,406.296 C 392.907,406.27 392.835,406.225 392.813,406.197 C 392.766,406.14 392.34,405.849 392.305,405.849 C 392.272,405.849 391.784,405.475 391.5,405.233 C 391.149,404.931 390.681,404.467 390.681,404.418 C 390.681,404.395 390.663,404.377 390.638,404.377 C 390.539,404.377 389.778,403.426 389.39,402.818 C 389.262,402.619 389.139,402.427 389.117,402.392 C 389.076,402.328 388.95,402.093 388.815,401.821 C 388.776,401.739 388.707,401.608 388.666,401.527 C 388.211,400.637 387.842,399.08 387.83,398.004 C 387.816,396.624 387.882,396.035 388.159,395.072 C 388.215,394.883 388.266,394.705 388.272,394.678 C 388.371,394.321 388.81,393.337 388.969,393.121 C 389.01,393.064 389.044,392.997 389.044,392.971 C 389.044,392.945 389.06,392.906 389.08,392.887 C 389.122,392.844 389.185,392.739 389.252,392.599 C 389.279,392.544 389.353,392.433 389.417,392.353 C 389.482,392.272 389.535,392.19 389.535,392.171 C 389.535,392.151 389.579,392.093 389.633,392.041 C 389.687,391.989 389.732,391.932 389.732,391.913 C 389.732,391.829 390.628,390.78 390.7,390.78 C 390.742,390.78 390.877,390.641 390.877,390.597 C 390.877,390.581 390.911,390.552 390.951,390.535 C 390.988,390.516 391.045,390.463 391.072,390.415 C 391.102,390.368 391.259,390.209 391.424,390.062 C 391.59,389.914 391.734,389.771 391.743,389.744 C 391.754,389.716 391.763,388.764 391.763,387.629 C 391.763,386.117 391.774,385.528 391.801,385.431 C 391.854,385.26 392.114,384.979 392.319,384.87 L 392.482,384.785 L 394.714,384.785 L 396.946,384.785 L 397.13,384.886 C 397.361,385.013 397.452,385.094 397.479,385.206 C 397.491,385.254 397.534,385.327 397.573,385.369 C 397.641,385.443 397.643,385.477 397.653,386.232 C 397.661,386.865 397.672,387.018 397.708,387.035 C 397.734,387.043 397.98,387.015 398.255,386.968 C 398.906,386.86 399.262,386.825 399.903,386.8 C 400.191,386.789 400.475,386.774 400.533,386.764 L 400.638,386.749 L 400.631,394.965 L 400.626,403.18 L 400.267,403.176 C 399.697,403.167 398.926,403.039 398.281,402.849 C 397.846,402.718 397.702,402.664 397.118,402.414 C 396.728,402.248 396.672,402.233 396.447,402.233 C 395.856,402.231 395.466,402.648 395.505,403.242 C 395.538,403.752 395.774,403.966 396.734,404.357 C 397.85,404.81 399.097,405.069 400.477,405.14 L 400.626,405.147 L 400.628,406.826 L 400.633,408.504 L 400.497,408.503 C 400.423,408.5 400.333,408.487 400.297,408.472 M 404.304,384.795 C 404.328,384.785 404.356,384.788 404.368,384.798 C 404.377,384.809 404.358,384.817 404.324,384.815 C 404.286,384.814 404.278,384.807 404.304,384.795" fill="#59deb0" stroke-width="0.033"/>
    <path d="M 407.669,410.374 C 407.658,410.354 407.567,410.339 407.469,410.339 C 407.291,410.339 407.045,410.295 406.915,410.239 C 406.878,410.225 406.796,410.206 406.731,410.196 C 406.667,410.188 406.513,410.134 406.395,410.079 C 406.275,410.022 406.128,409.968 406.071,409.956 C 405.96,409.935 405.294,409.603 405.118,409.48 C 405.06,409.44 404.95,409.353 404.871,409.284 C 404.792,409.216 404.708,409.159 404.686,409.159 C 404.626,409.159 404.319,408.908 403.9,408.512 C 403.623,408.251 403.526,408.177 403.475,408.192 C 403.308,408.239 402.435,408.377 402.005,408.421 C 401.743,408.449 401.324,408.472 401.076,408.472 L 400.626,408.472 L 400.626,406.809 L 400.626,405.147 L 400.477,405.14 C 399.097,405.069 397.85,404.81 396.734,404.357 C 395.774,403.966 395.538,403.752 395.505,403.242 C 395.478,402.816 395.653,402.499 396.014,402.324 C 396.169,402.248 396.245,402.233 396.447,402.233 C 396.672,402.233 396.728,402.248 397.118,402.414 C 397.702,402.664 397.846,402.718 398.281,402.849 C 398.926,403.039 399.697,403.167 400.267,403.176 L 400.626,403.18 L 400.626,394.983 L 400.626,386.783 L 401.068,386.785 C 401.608,386.786 402.102,386.831 402.168,386.885 C 402.204,386.913 402.227,386.916 402.252,386.89 C 402.273,386.868 402.327,386.859 402.374,386.867 C 402.742,386.93 403.488,387.045 403.519,387.045 C 403.546,387.045 403.557,386.865 403.557,386.381 C 403.557,385.566 403.587,385.418 403.812,385.14 C 403.906,385.024 404.024,384.919 404.114,384.875 L 404.26,384.801 L 406.538,384.801 L 408.816,384.801 L 408.988,384.898 C 409.194,385.011 409.338,385.181 409.424,385.409 C 409.483,385.562 409.487,385.692 409.488,387.676 C 409.489,389.616 409.492,389.786 409.544,389.846 C 409.575,389.883 409.634,389.927 409.674,389.945 C 409.796,389.999 410.608,390.79 410.947,391.183 C 411.313,391.609 411.651,392.053 411.879,392.412 L 412.042,392.664 L 413.328,392.68 C 414.597,392.697 414.616,392.698 414.778,392.775 C 415.018,392.889 415.104,392.959 415.216,393.128 C 415.292,393.243 415.317,393.319 415.317,393.432 C 415.317,393.516 415.333,393.6 415.351,393.618 C 415.374,393.641 415.381,394.68 415.376,396.761 L 415.367,399.872 L 415.278,400.04 C 415.231,400.131 415.121,400.269 415.036,400.342 C 414.794,400.554 414.678,400.576 413.759,400.576 L 412.964,400.576 L 412.925,400.699 C 412.903,400.766 412.867,400.843 412.845,400.87 C 412.822,400.898 412.795,400.97 412.783,401.033 C 412.741,401.251 412.15,402.44 412.008,402.592 C 411.972,402.631 411.944,402.675 411.944,402.694 C 411.944,402.745 411.506,403.372 411.228,403.72 C 410.827,404.222 410.36,404.715 409.913,405.105 L 409.496,405.47 L 409.472,407.487 C 409.459,408.597 409.45,409.558 409.45,409.624 C 409.451,409.692 409.438,409.755 409.419,409.766 C 409.403,409.777 409.389,409.812 409.389,409.845 C 409.389,409.931 409.118,410.221 408.954,410.31 C 408.826,410.38 408.767,410.387 408.254,410.398 C 407.875,410.405 407.686,410.398 407.669,410.374 M 400.628,405.049 C 400.611,404.981 400.62,403.228 400.638,403.209 C 400.639,403.208 400.807,403.196 401.01,403.184 C 402.094,403.116 402.99,402.9 404.048,402.45 C 404.648,402.196 404.835,402.165 405.131,402.276 C 405.338,402.354 405.553,402.547 405.661,402.747 C 405.722,402.862 405.735,402.936 405.734,403.18 C 405.733,403.439 405.722,403.493 405.644,403.624 C 405.513,403.846 405.37,403.965 405.047,404.125 C 404.188,404.546 403.272,404.829 402.231,404.999 C 401.708,405.084 401.652,405.09 401.112,405.116 L 400.65,405.14 L 400.628,405.049 M 384.626,400.524 C 384.596,400.504 384.533,400.479 384.487,400.467 C 384.323,400.427 384.114,400.231 384.005,400.014 L 383.9,399.806 L 383.904,399.309 C 383.906,398.951 383.92,398.787 383.953,398.722 C 383.979,398.674 383.99,398.605 383.979,398.571 C 383.97,398.537 383.984,398.472 384.014,398.427 C 384.042,398.382 384.059,398.331 384.046,398.314 C 384.027,398.281 384.126,397.931 384.208,397.742 C 384.364,397.383 384.467,397.203 384.595,397.054 C 384.626,397.016 384.688,396.914 384.732,396.828 C 384.776,396.741 384.865,396.609 384.928,396.534 C 384.99,396.46 385.081,396.351 385.129,396.292 C 385.177,396.234 385.238,396.186 385.263,396.186 C 385.289,396.186 385.323,396.153 385.34,396.113 C 385.377,396.011 385.557,395.846 385.598,395.872 C 385.618,395.884 385.658,395.855 385.688,395.81 C 385.719,395.764 385.759,395.728 385.779,395.728 C 385.8,395.728 385.909,395.647 386.019,395.551 C 386.257,395.343 386.943,394.994 387.372,394.861 C 387.689,394.763 388.229,394.647 388.266,394.669 C 388.28,394.677 388.277,394.708 388.26,394.738 C 388.164,394.919 387.926,395.999 387.865,396.527 C 387.831,396.838 387.82,396.855 387.63,396.907 C 387.567,396.925 387.477,396.965 387.434,396.997 C 387.392,397.029 387.314,397.077 387.261,397.105 C 387.108,397.18 386.35,397.951 386.222,398.159 C 386.208,398.181 386.205,398.209 386.212,398.223 C 386.222,398.236 386.213,398.273 386.196,398.307 C 386.069,398.533 385.921,399.147 385.884,399.584 C 385.875,399.715 385.841,399.881 385.813,399.953 C 385.741,400.136 385.369,400.478 385.246,400.478 C 385.194,400.478 385.135,400.499 385.114,400.525 C 385.066,400.583 384.71,400.582 384.626,400.524 M 408.176,400.542 C 408.176,400.529 408.13,400.5 408.076,400.477 C 407.917,400.411 407.706,400.219 407.656,400.098 C 407.632,400.035 407.6,399.986 407.583,399.986 C 407.567,399.986 407.554,399.945 407.554,399.895 C 407.554,399.844 407.539,399.79 407.522,399.771 C 407.469,399.718 407.545,399.304 407.643,399.124 C 407.693,399.034 407.817,398.887 407.918,398.799 L 408.104,398.64 L 408.398,398.621 C 408.63,398.605 408.724,398.612 408.829,398.654 C 408.901,398.684 408.963,398.697 408.963,398.684 C 408.963,398.636 409.3,398.996 409.379,399.13 C 409.491,399.318 409.517,399.675 409.44,399.914 C 409.363,400.143 409.156,400.367 408.914,400.483 C 408.74,400.565 408.684,400.577 408.446,400.57 C 408.298,400.567 408.176,400.554 408.176,400.542 M 387.799,397.624 C 387.799,397.566 387.809,397.528 387.822,397.541 C 387.854,397.573 387.857,397.694 387.826,397.713 C 387.811,397.722 387.799,397.682 387.799,397.624 M 407.438,396.675 C 407.421,396.649 407.355,396.643 407.237,396.655 C 407.142,396.664 407.055,396.661 407.046,396.645 C 407.036,396.63 407.003,396.625 406.971,396.633 C 406.938,396.642 406.869,396.631 406.816,396.609 C 406.762,396.587 406.675,396.565 406.623,396.559 C 406.493,396.541 406.191,396.387 406.072,396.276 C 406.019,396.227 405.962,396.186 405.948,396.186 C 405.911,396.186 405.701,395.947 405.604,395.795 C 405.559,395.722 405.521,395.626 405.521,395.581 C 405.521,395.535 405.509,395.499 405.491,395.499 C 405.436,395.499 405.462,395.096 405.529,394.917 C 405.578,394.784 405.662,394.674 405.897,394.44 C 406.153,394.182 406.234,394.122 406.404,394.06 C 406.515,394.02 406.674,393.98 406.757,393.973 C 406.84,393.964 406.927,393.942 406.95,393.922 C 406.975,393.902 407.009,393.896 407.028,393.908 C 407.046,393.92 407.08,393.918 407.104,393.903 C 407.126,393.889 407.222,393.882 407.317,393.889 C 407.419,393.894 407.51,393.882 407.538,393.859 C 407.575,393.828 407.597,393.828 407.632,393.857 C 407.658,393.879 407.714,393.887 407.763,393.875 C 407.811,393.863 407.868,393.868 407.894,393.889 C 407.918,393.909 407.962,393.918 407.993,393.906 C 408.022,393.894 408.065,393.902 408.09,393.921 C 408.113,393.941 408.176,393.964 408.229,393.971 C 408.373,393.99 408.503,394.027 408.503,394.052 C 408.503,394.072 408.677,394.156 408.737,394.168 C 408.819,394.182 409.122,394.423 409.232,394.56 C 409.377,394.744 409.501,394.989 409.471,395.038 C 409.461,395.055 409.468,395.077 409.487,395.089 C 409.529,395.114 409.529,395.422 409.487,395.449 C 409.468,395.46 409.455,395.51 409.455,395.561 C 409.455,395.755 409.078,396.206 408.814,396.332 C 408.753,396.361 408.693,396.398 408.684,396.416 C 408.672,396.434 408.627,396.448 408.583,396.448 C 408.54,396.448 408.503,396.461 408.503,396.479 C 408.503,396.524 408.087,396.652 408.015,396.63 C 407.981,396.618 407.943,396.624 407.933,396.64 C 407.922,396.658 407.836,396.664 407.733,396.655 C 407.617,396.642 407.538,396.649 407.508,396.675 C 407.472,396.704 407.456,396.704 407.438,396.675 M 390.715,390.759 C 390.715,390.717 390.84,390.6 390.861,390.623 C 390.87,390.631 390.841,390.673 390.796,390.714 C 390.751,390.757 390.715,390.777 390.715,390.759 M 390.944,390.528 C 390.944,390.51 390.973,390.469 391.009,390.437 C 391.045,390.404 391.075,390.392 391.075,390.411 C 391.075,390.428 391.045,390.469 391.009,390.502 C 390.973,390.535 390.944,390.546 390.944,390.528" fill="#26bfa4" stroke-width="0.033"/>
    <path d="M 409.42,409.571 C 409.42,409.545 409.435,409.514 409.455,409.503 C 409.472,409.492 409.487,409.513 409.487,409.55 C 409.487,409.588 409.472,409.617 409.455,409.617 C 409.435,409.617 409.42,409.596 409.42,409.571 M 400.628,405.049 C 400.611,404.981 400.62,403.228 400.638,403.209 C 400.639,403.208 400.807,403.196 401.01,403.184 C 402.094,403.116 402.99,402.9 404.048,402.45 C 404.648,402.196 404.835,402.165 405.131,402.276 C 405.338,402.354 405.553,402.547 405.661,402.747 C 405.722,402.862 405.735,402.936 405.734,403.18 C 405.733,403.439 405.722,403.493 405.644,403.624 C 405.513,403.846 405.37,403.965 405.047,404.125 C 404.188,404.546 403.272,404.829 402.231,404.999 C 401.708,405.084 401.652,405.09 401.112,405.116 L 400.65,405.14 L 400.628,405.049 M 408.176,400.542 C 408.176,400.522 408.19,400.516 408.209,400.526 C 408.227,400.537 408.242,400.554 408.242,400.562 C 408.242,400.569 408.227,400.576 408.209,400.576 C 408.19,400.576 408.176,400.561 408.176,400.542 M 384.556,400.509 C 384.556,400.49 384.57,400.483 384.589,400.493 C 384.606,400.505 384.621,400.521 384.621,400.529 C 384.621,400.537 384.606,400.544 384.589,400.544 C 384.57,400.544 384.556,400.528 384.556,400.509 M 385.145,400.511 C 385.145,400.492 385.16,400.478 385.179,400.478 C 385.199,400.478 385.205,400.492 385.194,400.511 C 385.183,400.529 385.167,400.544 385.159,400.544 C 385.151,400.544 385.145,400.529 385.145,400.511 M 407.706,400.226 C 407.695,400.215 407.685,400.189 407.685,400.171 C 407.685,400.15 407.7,400.152 407.724,400.176 C 407.744,400.197 407.754,400.222 407.745,400.231 C 407.735,400.241 407.719,400.238 407.706,400.226 M 383.972,400.035 C 383.951,399.989 383.946,399.954 383.961,399.954 C 383.975,399.954 384.005,399.989 384.025,400.035 C 384.046,400.081 384.05,400.117 384.036,400.117 C 384.021,400.117 383.991,400.081 383.972,400.035 M 407.554,399.951 C 407.554,399.932 407.568,399.927 407.585,399.937 C 407.604,399.948 407.619,399.963 407.619,399.971 C 407.619,399.979 407.604,399.986 407.585,399.986 C 407.568,399.986 407.554,399.97 407.554,399.951 M 407.512,399.77 C 407.499,399.757 407.489,399.725 407.489,399.696 C 407.489,399.659 407.498,399.655 407.524,399.682 C 407.544,399.701 407.555,399.736 407.548,399.757 C 407.542,399.777 407.525,399.783 407.512,399.77 M 383.867,399.151 C 383.867,399.124 383.883,399.102 383.9,399.102 C 383.918,399.102 383.933,399.124 383.933,399.151 C 383.933,399.178 383.918,399.199 383.9,399.199 C 383.883,399.199 383.867,399.178 383.867,399.151 M 408.963,398.706 C 408.963,398.687 408.976,398.681 408.995,398.691 C 409.013,398.703 409.027,398.719 409.027,398.727 C 409.027,398.734 409.013,398.741 408.995,398.741 C 408.976,398.741 408.963,398.727 408.963,398.706 M 408.061,398.675 C 408.073,398.658 408.097,398.643 408.114,398.643 C 408.132,398.643 408.138,398.658 408.127,398.675 C 408.116,398.694 408.092,398.708 408.073,398.708 C 408.055,398.708 408.051,398.694 408.061,398.675 M 383.949,398.643 C 383.961,398.625 383.976,398.61 383.984,398.61 C 383.991,398.61 383.998,398.625 383.998,398.643 C 383.998,398.661 383.983,398.675 383.963,398.675 C 383.945,398.675 383.938,398.661 383.949,398.643 M 384.015,398.348 C 384.027,398.33 384.042,398.316 384.049,398.316 C 384.057,398.316 384.063,398.33 384.063,398.348 C 384.063,398.367 384.048,398.381 384.03,398.381 C 384.01,398.381 384.004,398.367 384.015,398.348 M 386.248,398.119 C 386.28,398.066 386.317,398.02 386.329,398.02 C 386.343,398.02 386.328,398.064 386.298,398.119 C 386.268,398.172 386.23,398.217 386.215,398.217 C 386.202,398.217 386.215,398.172 386.248,398.119 M 384.629,396.94 C 384.65,396.903 384.681,396.874 384.695,396.874 C 384.708,396.874 384.701,396.903 384.678,396.94 C 384.656,396.976 384.626,397.005 384.612,397.005 C 384.598,397.005 384.606,396.976 384.629,396.94 M 407.438,396.678 C 407.428,396.659 407.443,396.645 407.471,396.645 C 407.502,396.645 407.515,396.659 407.504,396.678 C 407.492,396.696 407.478,396.71 407.471,396.71 C 407.464,396.71 407.45,396.696 407.438,396.678 M 407.046,396.645 C 407.034,396.626 407.048,396.612 407.074,396.612 C 407.101,396.612 407.133,396.626 407.144,396.645 C 407.155,396.662 407.142,396.678 407.114,396.678 C 407.088,396.678 407.057,396.662 407.046,396.645 M 407.832,396.645 C 407.843,396.626 407.875,396.612 407.901,396.612 C 407.929,396.612 407.941,396.626 407.93,396.645 C 407.92,396.662 407.888,396.678 407.861,396.678 C 407.835,396.678 407.82,396.662 407.832,396.645 M 406.807,396.611 C 406.767,396.594 406.734,396.574 406.734,396.564 C 406.734,396.539 406.943,396.584 406.979,396.616 C 407.02,396.653 406.904,396.649 406.807,396.611 M 408.029,396.612 C 408.039,396.593 408.067,396.579 408.091,396.579 C 408.113,396.579 408.216,396.551 408.318,396.518 C 408.42,396.485 408.503,396.468 408.503,396.482 C 408.503,396.509 408.127,396.645 408.053,396.645 C 408.029,396.645 408.018,396.63 408.029,396.612 M 406.546,396.542 C 406.375,396.493 405.934,396.218 406.025,396.218 C 406.032,396.218 406.124,396.271 406.228,396.332 C 406.33,396.395 406.468,396.463 406.535,396.485 C 406.748,396.552 406.759,396.604 406.546,396.542 M 408.619,396.416 C 408.629,396.396 408.653,396.382 408.672,396.382 C 408.69,396.382 408.694,396.396 408.684,396.416 C 408.672,396.434 408.649,396.448 408.632,396.448 C 408.613,396.448 408.607,396.434 408.619,396.416 M 408.831,396.292 C 408.98,396.195 409.283,395.868 409.354,395.728 C 409.393,395.652 409.433,395.598 409.443,395.606 C 409.522,395.688 408.921,396.356 408.777,396.348 C 408.762,396.346 408.786,396.323 408.831,396.292 M 385.276,396.153 C 385.276,396.135 385.292,396.12 385.311,396.12 C 385.33,396.12 385.336,396.135 385.325,396.153 C 385.314,396.172 385.298,396.186 385.29,396.186 C 385.283,396.186 385.276,396.172 385.276,396.153 M 405.806,396.056 C 405.653,395.886 405.516,395.666 405.532,395.618 C 405.538,395.597 405.571,395.637 405.603,395.706 C 405.637,395.775 405.736,395.911 405.826,396.009 C 405.914,396.106 405.974,396.186 405.955,396.186 C 405.937,396.186 405.87,396.128 405.806,396.056 M 385.604,395.866 C 385.604,395.849 385.625,395.815 385.653,395.793 C 385.68,395.77 385.702,395.767 385.702,395.784 C 385.702,395.803 385.68,395.836 385.653,395.858 C 385.625,395.881 385.604,395.885 385.604,395.866 M 385.8,395.699 C 385.8,395.665 385.962,395.552 385.983,395.571 C 385.99,395.579 385.951,395.617 385.898,395.657 C 385.844,395.697 385.8,395.716 385.8,395.699 M 405.457,395.398 C 405.457,395.339 405.471,395.306 405.49,395.318 C 405.506,395.33 405.521,395.375 405.521,395.417 C 405.521,395.462 405.506,395.499 405.49,395.499 C 405.472,395.499 405.457,395.454 405.457,395.398 M 409.458,395.267 C 409.458,395.153 409.47,395.078 409.489,395.09 C 409.529,395.114 409.529,395.423 409.489,395.447 C 409.472,395.457 409.458,395.379 409.458,395.267 M 405.457,395.176 C 405.457,395.088 405.544,394.854 405.625,394.722 C 405.73,394.55 405.727,394.61 405.618,394.824 C 405.566,394.93 405.521,395.057 405.521,395.108 C 405.521,395.157 405.506,395.208 405.49,395.219 C 405.472,395.231 405.457,395.211 405.457,395.176 M 409.376,394.865 C 409.267,394.643 409.07,394.417 408.88,394.297 C 408.704,394.186 408.682,394.128 408.856,394.228 C 409.045,394.339 409.307,394.623 409.405,394.826 C 409.455,394.926 409.488,395.016 409.478,395.025 C 409.47,395.033 409.424,394.961 409.376,394.865 M 405.915,394.403 C 405.915,394.396 405.988,394.329 406.078,394.255 C 406.228,394.129 406.683,393.931 406.726,393.973 C 406.737,393.981 406.724,393.997 406.698,394.006 C 406.378,394.118 406.25,394.18 406.113,394.288 C 405.96,394.41 405.915,394.435 405.915,394.403 M 408.383,394.046 C 408.326,394.025 408.267,393.993 408.253,393.978 C 408.236,393.96 408.249,393.957 408.286,393.968 C 408.319,393.981 408.381,394 408.425,394.011 C 408.469,394.022 408.503,394.044 408.503,394.06 C 408.503,394.076 408.499,394.089 408.496,394.088 C 408.491,394.085 408.44,394.066 408.383,394.046 M 406.948,393.926 C 406.959,393.907 406.982,393.893 407,393.893 C 407.018,393.893 407.023,393.907 407.013,393.926 C 407.001,393.944 406.979,393.959 406.96,393.959 C 406.942,393.959 406.936,393.944 406.948,393.926 M 407.996,393.926 C 407.985,393.907 407.998,393.893 408.024,393.893 C 408.052,393.893 408.083,393.907 408.094,393.926 C 408.105,393.944 408.092,393.959 408.065,393.959 C 408.038,393.959 408.006,393.944 407.996,393.926 M 407.111,393.893 C 407.123,393.875 407.146,393.86 407.165,393.86 C 407.182,393.86 407.188,393.875 407.177,393.893 C 407.165,393.911 407.142,393.926 407.124,393.926 C 407.105,393.926 407.099,393.911 407.111,393.893 M 407.766,393.893 C 407.754,393.875 407.776,393.86 407.811,393.86 C 407.848,393.86 407.887,393.875 407.897,393.893 C 407.909,393.911 407.889,393.926 407.852,393.926 C 407.816,393.926 407.778,393.911 407.766,393.893 M 407.547,393.854 C 407.577,393.823 407.595,393.823 407.626,393.854 C 407.656,393.885 407.648,393.893 407.585,393.893 C 407.525,393.893 407.517,393.885 407.547,393.854 M 415.317,393.53 C 415.317,393.493 415.333,393.472 415.35,393.483 C 415.369,393.494 415.383,393.524 415.383,393.55 C 415.383,393.576 415.369,393.598 415.35,393.598 C 415.333,393.598 415.317,393.567 415.317,393.53 M 402.181,386.881 C 402.181,386.864 402.195,386.848 402.214,386.848 C 402.232,386.848 402.247,386.864 402.247,386.881 C 402.247,386.9 402.232,386.914 402.214,386.914 C 402.195,386.914 402.181,386.9 402.181,386.881" fill="#0aaca5" stroke-width="0.033"/>
    <path d="M 400.001,418.291 C 399.948,418.273 399.782,418.219 399.633,418.167 C 399.255,418.041 398.913,417.835 398.607,417.551 C 398.293,417.26 398.094,416.99 397.924,416.624 C 397.739,416.224 397.687,415.989 397.668,415.474 C 397.655,415.085 397.661,414.981 397.725,414.719 C 397.803,414.392 397.982,413.974 398.153,413.724 C 398.309,413.496 398.695,413.103 398.904,412.961 C 399.381,412.635 399.975,412.435 400.465,412.435 C 400.626,412.435 400.671,412.445 400.652,412.476 C 400.638,412.498 400.626,413.285 400.624,414.221 C 400.621,415.159 400.618,416.467 400.614,417.129 L 400.608,418.333 L 400.354,418.329 C 400.214,418.327 400.056,418.31 400.001,418.291 M 400.935,418.299 C 401.001,418.258 401.142,418.258 401.116,418.299 C 401.104,418.318 401.049,418.331 400.991,418.331 C 400.912,418.331 400.899,418.323 400.935,418.299 M 403.049,417.021 C 403.061,417.003 403.075,416.989 403.083,416.989 C 403.091,416.989 403.097,417.003 403.097,417.021 C 403.097,417.04 403.083,417.055 403.063,417.055 C 403.044,417.055 403.037,417.04 403.049,417.021 M 403.097,413.81 C 403.097,413.79 403.114,413.784 403.13,413.795 C 403.149,413.807 403.163,413.821 403.163,413.83 C 403.163,413.837 403.149,413.844 403.13,413.844 C 403.114,413.844 403.097,413.829 403.097,413.81 M 403.021,413.724 C 403.01,413.712 402.999,413.687 402.999,413.668 C 402.999,413.648 403.015,413.65 403.04,413.674 C 403.061,413.694 403.07,413.719 403.061,413.729 C 403.051,413.738 403.032,413.736 403.021,413.724 M 402.656,413.287 C 402.567,413.196 402.509,413.123 402.527,413.123 C 402.545,413.123 402.633,413.196 402.722,413.287 C 402.81,413.377 402.867,413.451 402.849,413.451 C 402.833,413.451 402.744,413.377 402.656,413.287 M 402.305,412.998 C 402.13,412.873 402.152,412.838 402.329,412.96 C 402.409,413.017 402.476,413.069 402.476,413.076 C 402.476,413.106 402.422,413.083 402.305,412.998 M 401.46,412.564 C 401.46,412.546 401.475,412.538 401.493,412.549 C 401.51,412.561 401.526,412.577 401.526,412.586 C 401.526,412.593 401.51,412.599 401.493,412.599 C 401.475,412.599 401.46,412.585 401.46,412.564" fill="#ffe040" stroke-width="0.033"/>
    <path d="M 400.622,415.428 C 400.631,413.828 400.639,412.504 400.639,412.489 C 400.641,412.442 401.267,412.484 401.395,412.54 C 401.457,412.568 401.595,412.616 401.702,412.651 C 401.808,412.684 401.927,412.738 401.969,412.769 C 402.009,412.802 402.054,412.829 402.065,412.829 C 402.161,412.829 402.916,413.503 403.011,413.674 C 403.031,413.711 403.102,413.82 403.167,413.915 C 403.298,414.112 403.424,414.416 403.505,414.723 C 403.605,415.121 403.559,415.873 403.404,416.35 C 403.334,416.565 403.15,416.933 403.084,416.986 C 403.056,417.011 403.032,417.05 403.032,417.075 C 403.032,417.143 402.591,417.595 402.364,417.755 C 402.254,417.833 402.069,417.946 401.951,418.004 C 401.556,418.205 401.392,418.248 400.764,418.321 L 400.607,418.338 L 400.622,415.428" fill="#ffbc40" stroke-width="0.033"/>
    <path d="M 408.045,400.689 C 407.776,400.58 407.548,400.358 407.415,400.074 C 407.354,399.945 407.332,399.816 407.33,399.577 C 407.328,399.302 407.343,399.225 407.433,399.055 C 407.654,398.64 407.974,398.434 408.443,398.407 C 408.721,398.393 408.789,398.402 408.984,398.491 C 409.216,398.598 409.482,398.852 409.601,399.08 C 409.703,399.276 409.723,399.735 409.64,399.983 C 409.49,400.433 408.997,400.789 408.522,400.786 C 408.362,400.786 408.203,400.754 408.045,400.689" stroke-width="0.039" fill="#3e434f"/>
    <path d="M 406.799,396.716 C 406.349,396.616 405.995,396.428 405.712,396.142 C 405.392,395.819 405.305,395.64 405.303,395.292 C 405.302,395.055 405.318,394.986 405.419,394.782 C 405.591,394.43 406.02,394.076 406.447,393.928 C 407.73,393.491 409.118,393.887 409.575,394.819 C 409.706,395.087 409.706,395.508 409.575,395.742 C 409.403,396.052 409.053,396.385 408.756,396.526 C 408.223,396.78 407.428,396.857 406.799,396.716" fill="#26bfa4" stroke-width="0.037"/>
   </g>
   <g id="Group_5" stroke-linejoin="miter">
    <path d="M 399.624,408.472 C 399.588,408.455 399.345,408.441 399.084,408.439 C 398.822,408.438 398.453,408.413 398.263,408.387 C 398.076,408.359 397.81,408.324 397.674,408.309 C 397.266,408.263 396.221,408.036 396.02,407.95 C 395.984,407.935 395.873,407.903 395.774,407.88 C 395.675,407.858 395.572,407.828 395.545,407.814 C 395.518,407.8 395.426,407.77 395.34,407.748 C 395.253,407.727 395.176,407.696 395.166,407.681 C 395.157,407.664 395.118,407.652 395.079,407.652 C 395.041,407.652 394.987,407.632 394.958,407.609 C 394.891,407.552 394.317,407.324 394.242,407.324 C 394.208,407.324 394.168,407.311 394.151,407.293 C 394.127,407.271 393.244,406.823 392.793,406.607 C 392.651,406.539 392.564,406.485 392.488,406.414 C 392.448,406.375 392.363,406.323 392.298,406.296 C 392.234,406.27 392.162,406.225 392.14,406.197 C 392.093,406.14 391.667,405.849 391.632,405.849 C 391.599,405.849 391.111,405.475 390.827,405.233 C 390.476,404.931 390.008,404.467 390.008,404.418 C 390.008,404.395 389.99,404.377 389.965,404.377 C 389.866,404.377 389.105,403.426 388.717,402.818 C 388.589,402.619 388.466,402.427 388.444,402.392 C 388.403,402.328 388.277,402.093 388.142,401.821 C 388.103,401.739 388.034,401.608 387.993,401.527 C 387.538,400.637 387.169,399.08 387.157,398.004 C 387.143,396.624 387.209,396.035 387.486,395.072 C 387.542,394.883 387.593,394.705 387.598,394.678 C 387.698,394.321 388.137,393.337 388.296,393.121 C 388.336,393.064 388.371,392.997 388.371,392.971 C 388.371,392.945 388.387,392.906 388.407,392.887 C 388.449,392.844 388.512,392.739 388.579,392.599 C 388.606,392.544 388.68,392.433 388.744,392.353 C 388.809,392.272 388.862,392.19 388.862,392.171 C 388.862,392.151 388.906,392.093 388.96,392.041 C 389.014,391.989 389.059,391.932 389.059,391.913 C 389.059,391.829 389.955,390.78 390.027,390.78 C 390.069,390.78 390.204,390.641 390.204,390.597 C 390.204,390.581 390.238,390.552 390.278,390.535 C 390.315,390.516 390.372,390.463 390.399,390.415 C 390.429,390.368 390.586,390.209 390.751,390.062 C 390.916,389.914 391.061,389.771 391.07,389.744 C 391.081,389.716 391.09,388.764 391.09,387.629 C 391.09,386.117 391.101,385.528 391.128,385.431 C 391.181,385.26 391.441,384.979 391.646,384.87 L 391.809,384.785 L 394.041,384.785 L 396.272,384.785 L 396.457,384.886 C 396.688,385.013 396.779,385.094 396.806,385.206 C 396.818,385.254 396.86,385.327 396.899,385.369 C 396.968,385.443 396.97,385.477 396.98,386.232 C 396.988,386.865 396.999,387.018 397.035,387.035 C 397.061,387.043 397.307,387.015 397.582,386.968 C 398.233,386.86 398.589,386.825 399.23,386.8 C 399.518,386.789 399.802,386.774 399.86,386.764 L 399.965,386.749 L 399.958,394.965 L 399.953,403.18 L 399.594,403.176 C 399.024,403.167 398.253,403.039 397.608,402.849 C 397.173,402.718 397.029,402.664 396.445,402.414 C 396.055,402.248 395.999,402.233 395.774,402.233 C 395.183,402.231 394.793,402.648 394.832,403.242 C 394.865,403.752 395.101,403.966 396.061,404.357 C 397.177,404.81 398.424,405.069 399.804,405.14 L 399.953,405.147 L 399.955,406.826 L 399.96,408.504 L 399.824,408.503 C 399.75,408.5 399.66,408.487 399.624,408.472 M 403.631,384.795 C 403.655,384.785 403.683,384.788 403.695,384.798 C 403.704,384.809 403.685,384.817 403.651,384.815 C 403.613,384.814 403.605,384.807 403.631,384.795" fill="#59deb0" stroke-width="0.033"/>
    <path d="M 406.996,410.374 C 406.984,410.354 406.894,410.339 406.796,410.339 C 406.618,410.339 406.372,410.295 406.242,410.239 C 406.205,410.225 406.123,410.206 406.058,410.196 C 405.994,410.188 405.84,410.134 405.722,410.079 C 405.602,410.022 405.455,409.968 405.398,409.956 C 405.287,409.935 404.621,409.603 404.445,409.48 C 404.387,409.44 404.277,409.353 404.198,409.284 C 404.119,409.216 404.035,409.159 404.012,409.159 C 403.953,409.159 403.646,408.908 403.227,408.512 C 402.95,408.251 402.853,408.177 402.802,408.192 C 402.634,408.239 401.762,408.377 401.332,408.421 C 401.07,408.449 400.651,408.472 400.403,408.472 L 399.953,408.472 L 399.953,406.809 L 399.953,405.147 L 399.804,405.14 C 398.424,405.069 397.177,404.81 396.061,404.357 C 395.101,403.966 394.865,403.752 394.832,403.242 C 394.805,402.816 394.98,402.499 395.341,402.324 C 395.496,402.248 395.572,402.233 395.774,402.233 C 395.999,402.233 396.055,402.248 396.445,402.414 C 397.029,402.664 397.173,402.718 397.608,402.849 C 398.253,403.039 399.024,403.167 399.594,403.176 L 399.953,403.18 L 399.953,394.983 L 399.953,386.783 L 400.395,386.785 C 400.935,386.786 401.429,386.831 401.495,386.885 C 401.53,386.913 401.554,386.916 401.579,386.89 C 401.6,386.868 401.654,386.859 401.701,386.867 C 402.069,386.93 402.815,387.045 402.846,387.045 C 402.873,387.045 402.884,386.865 402.884,386.381 C 402.884,385.566 402.914,385.418 403.139,385.14 C 403.233,385.024 403.351,384.919 403.441,384.875 L 403.587,384.801 L 405.865,384.801 L 408.143,384.801 L 408.315,384.898 C 408.521,385.011 408.665,385.181 408.751,385.409 C 408.81,385.562 408.814,385.692 408.815,387.676 C 408.816,389.616 408.819,389.786 408.871,389.846 C 408.902,389.883 408.961,389.927 409.001,389.945 C 409.123,389.999 409.935,390.79 410.274,391.183 C 410.64,391.609 410.978,392.053 411.206,392.412 L 411.369,392.664 L 412.655,392.68 C 413.924,392.697 413.943,392.698 414.105,392.775 C 414.345,392.889 414.43,392.959 414.543,393.128 C 414.619,393.243 414.644,393.319 414.644,393.432 C 414.644,393.516 414.66,393.6 414.678,393.618 C 414.701,393.641 414.708,394.68 414.703,396.761 L 414.694,399.872 L 414.605,400.04 C 414.558,400.131 414.448,400.269 414.363,400.342 C 414.121,400.554 414.005,400.576 413.086,400.576 L 412.291,400.576 L 412.252,400.699 C 412.229,400.766 412.194,400.843 412.172,400.87 C 412.149,400.898 412.122,400.97 412.11,401.033 C 412.068,401.251 411.477,402.44 411.334,402.592 C 411.299,402.631 411.271,402.675 411.271,402.694 C 411.271,402.745 410.833,403.372 410.555,403.72 C 410.154,404.222 409.687,404.715 409.24,405.105 L 408.823,405.47 L 408.799,407.487 C 408.786,408.597 408.777,409.558 408.777,409.624 C 408.778,409.692 408.765,409.755 408.746,409.766 C 408.73,409.777 408.716,409.812 408.716,409.845 C 408.716,409.931 408.445,410.221 408.281,410.31 C 408.153,410.38 408.094,410.387 407.581,410.398 C 407.202,410.405 407.013,410.398 406.996,410.374 M 399.955,405.049 C 399.938,404.981 399.947,403.228 399.965,403.209 C 399.966,403.208 400.134,403.196 400.337,403.184 C 401.421,403.116 402.317,402.9 403.375,402.45 C 403.975,402.196 404.162,402.165 404.458,402.276 C 404.665,402.354 404.88,402.547 404.988,402.747 C 405.049,402.862 405.062,402.936 405.061,403.18 C 405.06,403.439 405.049,403.493 404.971,403.624 C 404.84,403.846 404.697,403.965 404.374,404.125 C 403.515,404.546 402.599,404.829 401.558,404.999 C 401.035,405.084 400.979,405.09 400.439,405.116 L 399.977,405.14 L 399.955,405.049 M 383.953,400.524 C 383.923,400.504 383.86,400.479 383.814,400.467 C 383.65,400.427 383.441,400.231 383.332,400.014 L 383.227,399.806 L 383.231,399.309 C 383.233,398.951 383.247,398.787 383.28,398.722 C 383.306,398.674 383.317,398.605 383.306,398.571 C 383.297,398.537 383.311,398.472 383.341,398.427 C 383.369,398.382 383.385,398.331 383.372,398.314 C 383.354,398.281 383.453,397.931 383.535,397.742 C 383.691,397.383 383.794,397.203 383.922,397.054 C 383.953,397.016 384.015,396.914 384.059,396.828 C 384.103,396.741 384.192,396.609 384.255,396.534 C 384.317,396.46 384.408,396.351 384.456,396.292 C 384.504,396.234 384.565,396.186 384.59,396.186 C 384.616,396.186 384.65,396.153 384.667,396.113 C 384.704,396.011 384.884,395.846 384.925,395.872 C 384.945,395.884 384.985,395.855 385.015,395.81 C 385.046,395.764 385.086,395.728 385.106,395.728 C 385.127,395.728 385.236,395.647 385.346,395.551 C 385.584,395.343 386.27,394.994 386.699,394.861 C 387.016,394.763 387.556,394.647 387.593,394.669 C 387.607,394.677 387.604,394.708 387.587,394.738 C 387.491,394.919 387.253,395.999 387.192,396.527 C 387.158,396.838 387.147,396.855 386.957,396.907 C 386.894,396.925 386.804,396.965 386.761,396.997 C 386.719,397.029 386.641,397.077 386.588,397.105 C 386.435,397.18 385.677,397.951 385.549,398.159 C 385.534,398.181 385.532,398.209 385.539,398.223 C 385.549,398.236 385.54,398.273 385.523,398.307 C 385.396,398.533 385.248,399.147 385.211,399.584 C 385.202,399.715 385.168,399.881 385.14,399.953 C 385.068,400.136 384.696,400.478 384.573,400.478 C 384.521,400.478 384.462,400.499 384.441,400.525 C 384.393,400.583 384.037,400.582 383.953,400.524 M 407.503,400.542 C 407.503,400.529 407.457,400.5 407.402,400.477 C 407.244,400.411 407.033,400.219 406.983,400.098 C 406.959,400.035 406.927,399.986 406.91,399.986 C 406.894,399.986 406.881,399.945 406.881,399.895 C 406.881,399.844 406.866,399.79 406.849,399.771 C 406.796,399.718 406.872,399.304 406.97,399.124 C 407.02,399.034 407.144,398.887 407.245,398.799 L 407.431,398.64 L 407.725,398.621 C 407.957,398.605 408.051,398.612 408.156,398.654 C 408.228,398.684 408.29,398.697 408.29,398.684 C 408.29,398.636 408.627,398.996 408.706,399.13 C 408.818,399.318 408.844,399.675 408.767,399.914 C 408.69,400.143 408.483,400.367 408.241,400.483 C 408.067,400.565 408.011,400.577 407.773,400.57 C 407.624,400.567 407.503,400.554 407.503,400.542 M 387.126,397.624 C 387.126,397.566 387.136,397.528 387.149,397.541 C 387.18,397.573 387.184,397.694 387.153,397.713 C 387.138,397.722 387.126,397.682 387.126,397.624 M 406.765,396.675 C 406.748,396.649 406.682,396.643 406.564,396.655 C 406.468,396.664 406.382,396.661 406.373,396.645 C 406.363,396.63 406.33,396.625 406.298,396.633 C 406.265,396.642 406.196,396.631 406.143,396.609 C 406.089,396.587 406.002,396.565 405.95,396.559 C 405.82,396.541 405.518,396.387 405.399,396.276 C 405.346,396.227 405.289,396.186 405.275,396.186 C 405.238,396.186 405.028,395.947 404.931,395.795 C 404.886,395.722 404.848,395.626 404.848,395.581 C 404.848,395.535 404.835,395.499 404.818,395.499 C 404.763,395.499 404.789,395.096 404.856,394.917 C 404.905,394.784 404.989,394.674 405.224,394.44 C 405.48,394.182 405.56,394.122 405.73,394.06 C 405.841,394.02 406.001,393.98 406.084,393.973 C 406.167,393.964 406.254,393.942 406.277,393.922 C 406.302,393.902 406.336,393.896 406.355,393.908 C 406.373,393.92 406.407,393.918 406.431,393.903 C 406.453,393.889 406.549,393.882 406.644,393.889 C 406.746,393.894 406.837,393.882 406.865,393.859 C 406.902,393.828 406.924,393.828 406.959,393.857 C 406.984,393.879 407.041,393.887 407.09,393.875 C 407.138,393.863 407.195,393.868 407.221,393.889 C 407.245,393.909 407.289,393.918 407.32,393.906 C 407.349,393.894 407.392,393.902 407.417,393.921 C 407.44,393.941 407.503,393.964 407.556,393.971 C 407.7,393.99 407.83,394.027 407.83,394.052 C 407.83,394.072 408.003,394.156 408.064,394.168 C 408.146,394.182 408.449,394.423 408.558,394.56 C 408.704,394.744 408.828,394.989 408.798,395.038 C 408.788,395.055 408.795,395.077 408.814,395.089 C 408.856,395.114 408.856,395.422 408.814,395.449 C 408.795,395.46 408.782,395.51 408.782,395.561 C 408.782,395.755 408.405,396.206 408.14,396.332 C 408.08,396.361 408.02,396.398 408.011,396.416 C 407.999,396.434 407.954,396.448 407.91,396.448 C 407.867,396.448 407.83,396.461 407.83,396.479 C 407.83,396.524 407.414,396.652 407.342,396.63 C 407.308,396.618 407.27,396.624 407.26,396.64 C 407.249,396.658 407.163,396.664 407.06,396.655 C 406.944,396.642 406.865,396.649 406.835,396.675 C 406.799,396.704 406.783,396.704 406.765,396.675 M 390.042,390.759 C 390.042,390.717 390.167,390.6 390.188,390.623 C 390.197,390.631 390.168,390.673 390.123,390.714 C 390.078,390.757 390.042,390.777 390.042,390.759 M 390.271,390.528 C 390.271,390.51 390.3,390.469 390.336,390.437 C 390.372,390.404 390.402,390.392 390.402,390.411 C 390.402,390.428 390.372,390.469 390.336,390.502 C 390.3,390.535 390.271,390.546 390.271,390.528" fill="#26bfa4" stroke-width="0.033"/>
    <path d="M 408.747,409.571 C 408.747,409.545 408.762,409.514 408.782,409.503 C 408.799,409.492 408.814,409.513 408.814,409.55 C 408.814,409.588 408.799,409.617 408.782,409.617 C 408.762,409.617 408.747,409.596 408.747,409.571 M 399.955,405.049 C 399.938,404.981 399.947,403.228 399.965,403.209 C 399.966,403.208 400.134,403.196 400.337,403.184 C 401.421,403.116 402.317,402.9 403.375,402.45 C 403.975,402.196 404.162,402.165 404.458,402.276 C 404.665,402.354 404.88,402.547 404.988,402.747 C 405.049,402.862 405.062,402.936 405.061,403.18 C 405.06,403.439 405.049,403.493 404.971,403.624 C 404.84,403.846 404.697,403.965 404.374,404.125 C 403.515,404.546 402.599,404.829 401.558,404.999 C 401.035,405.084 400.979,405.09 400.439,405.116 L 399.977,405.14 L 399.955,405.049 M 407.503,400.542 C 407.503,400.522 407.517,400.516 407.536,400.526 C 407.554,400.537 407.569,400.554 407.569,400.562 C 407.569,400.569 407.554,400.576 407.536,400.576 C 407.517,400.576 407.503,400.561 407.503,400.542 M 383.883,400.509 C 383.883,400.49 383.897,400.483 383.916,400.493 C 383.933,400.505 383.948,400.521 383.948,400.529 C 383.948,400.537 383.933,400.544 383.916,400.544 C 383.897,400.544 383.883,400.528 383.883,400.509 M 384.472,400.511 C 384.472,400.492 384.487,400.478 384.506,400.478 C 384.526,400.478 384.532,400.492 384.521,400.511 C 384.51,400.529 384.494,400.544 384.486,400.544 C 384.478,400.544 384.472,400.529 384.472,400.511 M 407.033,400.226 C 407.022,400.215 407.012,400.189 407.012,400.171 C 407.012,400.15 407.027,400.152 407.051,400.176 C 407.071,400.197 407.081,400.222 407.072,400.231 C 407.062,400.241 407.046,400.238 407.033,400.226 M 383.299,400.035 C 383.278,399.989 383.273,399.954 383.287,399.954 C 383.302,399.954 383.332,399.989 383.352,400.035 C 383.372,400.081 383.377,400.117 383.363,400.117 C 383.348,400.117 383.318,400.081 383.299,400.035 M 406.881,399.951 C 406.881,399.932 406.895,399.927 406.912,399.937 C 406.931,399.948 406.946,399.963 406.946,399.971 C 406.946,399.979 406.931,399.986 406.912,399.986 C 406.895,399.986 406.881,399.97 406.881,399.951 M 406.839,399.77 C 406.826,399.757 406.816,399.725 406.816,399.696 C 406.816,399.659 406.825,399.655 406.851,399.682 C 406.871,399.701 406.882,399.736 406.875,399.757 C 406.869,399.777 406.852,399.783 406.839,399.77 M 383.194,399.151 C 383.194,399.124 383.21,399.102 383.227,399.102 C 383.245,399.102 383.26,399.124 383.26,399.151 C 383.26,399.178 383.245,399.199 383.227,399.199 C 383.21,399.199 383.194,399.178 383.194,399.151 M 408.29,398.706 C 408.29,398.687 408.303,398.681 408.322,398.691 C 408.34,398.703 408.354,398.719 408.354,398.727 C 408.354,398.734 408.34,398.741 408.322,398.741 C 408.303,398.741 408.29,398.727 408.29,398.706 M 407.388,398.675 C 407.4,398.658 407.424,398.643 407.441,398.643 C 407.459,398.643 407.465,398.658 407.454,398.675 C 407.443,398.694 407.419,398.708 407.4,398.708 C 407.382,398.708 407.378,398.694 407.388,398.675 M 383.276,398.643 C 383.287,398.625 383.303,398.61 383.311,398.61 C 383.318,398.61 383.325,398.625 383.325,398.643 C 383.325,398.661 383.31,398.675 383.29,398.675 C 383.272,398.675 383.265,398.661 383.276,398.643 M 383.342,398.348 C 383.354,398.33 383.369,398.316 383.376,398.316 C 383.384,398.316 383.39,398.33 383.39,398.348 C 383.39,398.367 383.375,398.381 383.357,398.381 C 383.337,398.381 383.331,398.367 383.342,398.348 M 385.575,398.119 C 385.607,398.066 385.644,398.02 385.656,398.02 C 385.67,398.02 385.655,398.064 385.625,398.119 C 385.595,398.172 385.557,398.217 385.542,398.217 C 385.529,398.217 385.542,398.172 385.575,398.119 M 383.956,396.94 C 383.977,396.903 384.008,396.874 384.022,396.874 C 384.035,396.874 384.028,396.903 384.005,396.94 C 383.983,396.976 383.953,397.005 383.939,397.005 C 383.925,397.005 383.933,396.976 383.956,396.94 M 406.765,396.678 C 406.755,396.659 406.77,396.645 406.798,396.645 C 406.829,396.645 406.842,396.659 406.831,396.678 C 406.819,396.696 406.805,396.71 406.798,396.71 C 406.791,396.71 406.777,396.696 406.765,396.678 M 406.373,396.645 C 406.361,396.626 406.375,396.612 406.401,396.612 C 406.428,396.612 406.46,396.626 406.471,396.645 C 406.481,396.662 406.468,396.678 406.441,396.678 C 406.415,396.678 406.383,396.662 406.373,396.645 M 407.159,396.645 C 407.17,396.626 407.202,396.612 407.228,396.612 C 407.256,396.612 407.268,396.626 407.257,396.645 C 407.247,396.662 407.215,396.678 407.188,396.678 C 407.162,396.678 407.147,396.662 407.159,396.645 M 406.134,396.611 C 406.094,396.594 406.061,396.574 406.061,396.564 C 406.061,396.539 406.27,396.584 406.306,396.616 C 406.347,396.653 406.231,396.649 406.134,396.611 M 407.356,396.612 C 407.366,396.593 407.394,396.579 407.418,396.579 C 407.44,396.579 407.543,396.551 407.645,396.518 C 407.747,396.485 407.83,396.468 407.83,396.482 C 407.83,396.509 407.454,396.645 407.38,396.645 C 407.356,396.645 407.345,396.63 407.356,396.612 M 405.873,396.542 C 405.702,396.493 405.261,396.218 405.351,396.218 C 405.359,396.218 405.451,396.271 405.555,396.332 C 405.657,396.395 405.795,396.463 405.862,396.485 C 406.075,396.552 406.086,396.604 405.873,396.542 M 407.946,396.416 C 407.956,396.396 407.98,396.382 407.999,396.382 C 408.016,396.382 408.021,396.396 408.011,396.416 C 407.999,396.434 407.976,396.448 407.959,396.448 C 407.94,396.448 407.934,396.434 407.946,396.416 M 408.158,396.292 C 408.307,396.195 408.61,395.868 408.681,395.728 C 408.72,395.652 408.76,395.598 408.77,395.606 C 408.849,395.688 408.248,396.356 408.104,396.348 C 408.089,396.346 408.113,396.323 408.158,396.292 M 384.603,396.153 C 384.603,396.135 384.619,396.12 384.638,396.12 C 384.657,396.12 384.663,396.135 384.652,396.153 C 384.641,396.172 384.625,396.186 384.617,396.186 C 384.61,396.186 384.603,396.172 384.603,396.153 M 405.133,396.056 C 404.98,395.886 404.843,395.666 404.859,395.618 C 404.865,395.597 404.898,395.637 404.93,395.706 C 404.964,395.775 405.063,395.911 405.153,396.009 C 405.24,396.106 405.301,396.186 405.282,396.186 C 405.264,396.186 405.197,396.128 405.133,396.056 M 384.931,395.866 C 384.931,395.849 384.952,395.815 384.98,395.793 C 385.007,395.77 385.029,395.767 385.029,395.784 C 385.029,395.803 385.007,395.836 384.98,395.858 C 384.952,395.881 384.931,395.885 384.931,395.866 M 385.127,395.699 C 385.127,395.665 385.289,395.552 385.31,395.571 C 385.317,395.579 385.278,395.617 385.225,395.657 C 385.171,395.697 385.127,395.716 385.127,395.699 M 404.784,395.398 C 404.784,395.339 404.798,395.306 404.817,395.318 C 404.833,395.33 404.848,395.375 404.848,395.417 C 404.848,395.462 404.833,395.499 404.817,395.499 C 404.799,395.499 404.784,395.454 404.784,395.398 M 408.785,395.267 C 408.785,395.153 408.797,395.078 408.816,395.09 C 408.856,395.114 408.856,395.423 408.816,395.447 C 408.799,395.457 408.785,395.379 408.785,395.267 M 404.784,395.176 C 404.784,395.088 404.871,394.854 404.952,394.722 C 405.057,394.55 405.054,394.61 404.945,394.824 C 404.893,394.93 404.848,395.057 404.848,395.108 C 404.848,395.157 404.833,395.208 404.817,395.219 C 404.799,395.231 404.784,395.211 404.784,395.176 M 408.703,394.865 C 408.594,394.643 408.397,394.417 408.207,394.297 C 408.031,394.186 408.009,394.128 408.183,394.228 C 408.372,394.339 408.634,394.623 408.732,394.826 C 408.782,394.926 408.815,395.016 408.805,395.025 C 408.797,395.033 408.751,394.961 408.703,394.865 M 405.242,394.403 C 405.242,394.396 405.315,394.329 405.405,394.255 C 405.555,394.129 406.01,393.931 406.053,393.973 C 406.063,393.981 406.05,393.997 406.025,394.006 C 405.705,394.118 405.577,394.18 405.44,394.288 C 405.287,394.41 405.242,394.435 405.242,394.403 M 407.709,394.046 C 407.653,394.025 407.594,393.993 407.58,393.978 C 407.563,393.96 407.576,393.957 407.613,393.968 C 407.646,393.981 407.708,394 407.752,394.011 C 407.796,394.022 407.83,394.044 407.83,394.06 C 407.83,394.076 407.826,394.089 407.823,394.088 C 407.818,394.085 407.767,394.066 407.709,394.046 M 406.275,393.926 C 406.285,393.907 406.309,393.893 406.327,393.893 C 406.345,393.893 406.35,393.907 406.34,393.926 C 406.328,393.944 406.306,393.959 406.287,393.959 C 406.269,393.959 406.263,393.944 406.275,393.926 M 407.323,393.926 C 407.312,393.907 407.325,393.893 407.351,393.893 C 407.379,393.893 407.41,393.907 407.421,393.926 C 407.432,393.944 407.419,393.959 407.392,393.959 C 407.365,393.959 407.333,393.944 407.323,393.926 M 406.438,393.893 C 406.45,393.875 406.473,393.86 406.492,393.86 C 406.509,393.86 406.515,393.875 406.504,393.893 C 406.492,393.911 406.468,393.926 406.451,393.926 C 406.432,393.926 406.426,393.911 406.438,393.893 M 407.093,393.893 C 407.081,393.875 407.103,393.86 407.138,393.86 C 407.175,393.86 407.214,393.875 407.224,393.893 C 407.236,393.911 407.216,393.926 407.179,393.926 C 407.143,393.926 407.105,393.911 407.093,393.893 M 406.873,393.854 C 406.904,393.823 406.922,393.823 406.953,393.854 C 406.983,393.885 406.975,393.893 406.912,393.893 C 406.852,393.893 406.844,393.885 406.873,393.854 M 414.644,393.53 C 414.644,393.493 414.66,393.472 414.677,393.483 C 414.696,393.494 414.71,393.524 414.71,393.55 C 414.71,393.576 414.696,393.598 414.677,393.598 C 414.66,393.598 414.644,393.567 414.644,393.53 M 401.508,386.881 C 401.508,386.864 401.522,386.848 401.541,386.848 C 401.559,386.848 401.574,386.864 401.574,386.881 C 401.574,386.9 401.559,386.914 401.541,386.914 C 401.522,386.914 401.508,386.9 401.508,386.881" fill="#0aaca5" stroke-width="0.033"/>
    <path d="M 399.328,418.291 C 399.275,418.273 399.109,418.219 398.96,418.167 C 398.582,418.041 398.24,417.835 397.934,417.551 C 397.62,417.26 397.421,416.99 397.251,416.624 C 397.066,416.224 397.014,415.989 396.995,415.474 C 396.982,415.085 396.988,414.981 397.052,414.719 C 397.13,414.392 397.309,413.974 397.48,413.724 C 397.636,413.496 398.022,413.103 398.231,412.961 C 398.708,412.635 399.302,412.435 399.792,412.435 C 399.953,412.435 399.998,412.445 399.979,412.476 C 399.965,412.498 399.953,413.285 399.951,414.221 C 399.948,415.159 399.945,416.467 399.941,417.129 L 399.935,418.333 L 399.681,418.329 C 399.541,418.327 399.383,418.31 399.328,418.291 M 400.262,418.299 C 400.328,418.258 400.469,418.258 400.443,418.299 C 400.431,418.318 400.376,418.331 400.318,418.331 C 400.239,418.331 400.226,418.323 400.262,418.299 M 402.376,417.021 C 402.388,417.003 402.402,416.989 402.41,416.989 C 402.418,416.989 402.424,417.003 402.424,417.021 C 402.424,417.04 402.41,417.055 402.39,417.055 C 402.371,417.055 402.364,417.04 402.376,417.021 M 402.424,413.81 C 402.424,413.79 402.441,413.784 402.457,413.795 C 402.476,413.807 402.49,413.821 402.49,413.83 C 402.49,413.837 402.476,413.844 402.457,413.844 C 402.441,413.844 402.424,413.829 402.424,413.81 M 402.348,413.724 C 402.337,413.712 402.326,413.687 402.326,413.668 C 402.326,413.648 402.342,413.65 402.366,413.674 C 402.388,413.694 402.397,413.719 402.388,413.729 C 402.378,413.738 402.359,413.736 402.348,413.724 M 401.983,413.287 C 401.894,413.196 401.836,413.123 401.854,413.123 C 401.872,413.123 401.96,413.196 402.049,413.287 C 402.137,413.377 402.194,413.451 402.176,413.451 C 402.16,413.451 402.071,413.377 401.983,413.287 M 401.632,412.998 C 401.457,412.873 401.479,412.838 401.656,412.96 C 401.736,413.017 401.803,413.069 401.803,413.076 C 401.803,413.106 401.749,413.083 401.632,412.998 M 400.787,412.564 C 400.787,412.546 400.802,412.538 400.82,412.549 C 400.837,412.561 400.853,412.577 400.853,412.586 C 400.853,412.593 400.837,412.599 400.82,412.599 C 400.802,412.599 400.787,412.585 400.787,412.564" fill="#ffe040" stroke-width="0.033"/>
    <path d="M 399.949,415.428 C 399.958,413.828 399.966,412.504 399.966,412.489 C 399.968,412.442 400.594,412.484 400.722,412.54 C 400.784,412.568 400.922,412.616 401.029,412.651 C 401.135,412.684 401.254,412.738 401.295,412.769 C 401.336,412.802 401.381,412.829 401.392,412.829 C 401.488,412.829 402.242,413.503 402.338,413.674 C 402.358,413.711 402.429,413.82 402.494,413.915 C 402.625,414.112 402.751,414.416 402.832,414.723 C 402.932,415.121 402.886,415.873 402.731,416.35 C 402.66,416.565 402.477,416.933 402.411,416.986 C 402.383,417.011 402.359,417.05 402.359,417.075 C 402.359,417.143 401.918,417.595 401.691,417.755 C 401.581,417.833 401.396,417.946 401.278,418.004 C 400.883,418.205 400.719,418.248 400.091,418.321 L 399.934,418.338 L 399.949,415.428" fill="#ffbc40" stroke-width="0.033"/>
    <path d="M 407.372,400.689 C 407.103,400.58 406.875,400.358 406.742,400.074 C 406.681,399.945 406.659,399.816 406.657,399.577 C 406.655,399.302 406.67,399.225 406.76,399.055 C 406.981,398.64 407.301,398.434 407.77,398.407 C 408.048,398.393 408.116,398.402 408.31,398.491 C 408.543,398.598 408.809,398.852 408.928,399.08 C 409.03,399.276 409.05,399.735 408.967,399.983 C 408.817,400.433 408.323,400.789 407.849,400.786 C 407.689,400.786 407.53,400.754 407.372,400.689" stroke-width="0.039" fill="#3e434f"/>
    <path d="M 406.126,396.716 C 405.676,396.616 405.322,396.428 405.039,396.142 C 404.719,395.819 404.632,395.64 404.63,395.292 C 404.629,395.055 404.645,394.986 404.746,394.782 C 404.918,394.43 405.347,394.076 405.774,393.928 C 407.057,393.491 408.445,393.887 408.902,394.819 C 409.033,395.087 409.033,395.508 408.902,395.742 C 408.73,396.052 408.38,396.385 408.083,396.526 C 407.55,396.78 406.755,396.857 406.126,396.716" fill="#26bfa4" stroke-width="0.037"/>
   </g>
  </g>
 </g>
</svg>
