<?xml version="1.0" standalone="no"?>
<!DOCTYPE svg PUBLIC "-//W3C//DTD SVG 1.1//EN" "http://www.w3.org/Graphics/SVG/1.1/DTD/svg11.dtd">
<!--Generator: Xara Designer (www.xara.com), SVG filter version: 6.7.0.0-->
<svg fill="none" fill-rule="evenodd" stroke="black" stroke-width="0.501" stroke-linejoin="bevel" stroke-miterlimit="10" font-family="Times New Roman" font-size="16" style="font-variant-ligatures:none" xmlns:xlink="http://www.w3.org/1999/xlink" xmlns="http://www.w3.org/2000/svg" version="1.1" overflow="visible" width="206.029pt" height="47.929pt" viewBox="158.702 -423.041 206.029 47.929">
 <defs>
	</defs>
 <g id="Layer 1" transform="scale(1 -1)">
  <g id="Group" stroke="none">
   <rect x="158.703" y="375.113" width="206.028" height="47.929" rx="6.11" ry="6.11" stroke-width="0.992" stroke-linejoin="miter" stroke-linecap="round"/>
   <g id="Group_1" fill="#c7e0da" font-weight="bold" font-family="" stroke-linejoin="round" stroke-linecap="round" stroke-width="0.407">
    <g id="Group_2" fill-rule="nonzero">
     <g id="Group_3">
      <path d="M 216.598,387.819 C 217.598,387.82 218.559,387.96 219.479,388.238 C 220.401,388.516 221.224,388.921 221.951,389.456 C 222.678,389.989 223.25,390.64 223.669,391.411 C 224.088,392.18 224.295,393.057 224.289,394.042 C 224.276,394.858 224.107,395.56 223.784,396.148 C 223.459,396.737 223.014,397.256 222.447,397.705 C 221.879,398.152 221.226,398.572 220.483,398.963 C 219.74,399.355 218.945,399.759 218.095,400.178 C 217.076,400.687 216.215,401.154 215.513,401.579 C 214.811,402.004 214.278,402.446 213.916,402.906 C 213.552,403.368 213.37,403.906 213.368,404.523 C 213.369,405.016 213.481,405.452 213.704,405.829 C 213.927,406.207 214.254,406.504 214.686,406.719 C 215.118,406.934 215.648,407.043 216.274,407.047 C 216.847,407.041 217.375,406.937 217.861,406.735 C 218.346,406.534 218.79,406.269 219.192,405.942 C 219.594,405.616 219.955,405.262 220.275,404.879 C 220.595,404.498 220.876,404.124 221.118,403.759 C 221.391,403.335 221.632,403.023 221.842,402.824 C 222.052,402.623 222.27,402.524 222.499,402.526 C 222.802,402.53 223.009,402.647 223.118,402.874 C 223.228,403.103 223.266,403.417 223.233,403.818 C 223.171,404.465 223.088,405.086 222.983,405.678 C 222.878,406.27 222.765,406.825 222.645,407.341 C 222.558,407.757 222.462,408.078 222.356,408.305 C 222.251,408.531 222.129,408.688 221.995,408.774 C 221.86,408.859 221.705,408.901 221.53,408.897 C 221.34,408.891 221.178,408.856 221.044,408.79 C 220.909,408.724 220.767,408.658 220.617,408.591 C 220.466,408.525 220.271,408.49 220.033,408.485 C 219.806,408.49 219.525,408.525 219.192,408.591 C 218.859,408.658 218.482,408.724 218.064,408.79 C 217.645,408.856 217.196,408.891 216.716,408.897 C 215.624,408.891 214.632,408.737 213.735,408.433 C 212.839,408.131 212.066,407.711 211.416,407.175 C 210.766,406.64 210.265,406.02 209.912,405.317 C 209.559,404.614 209.381,403.86 209.376,403.055 C 209.381,402.196 209.534,401.458 209.834,400.844 C 210.135,400.228 210.55,399.692 211.082,399.234 C 211.615,398.777 212.231,398.356 212.93,397.973 C 213.631,397.589 214.383,397.199 215.189,396.802 C 215.812,396.489 216.415,396.179 216.999,395.87 C 217.583,395.563 218.107,395.24 218.572,394.901 C 219.037,394.563 219.404,394.192 219.672,393.788 C 219.939,393.385 220.07,392.931 220.062,392.428 C 220.044,391.959 219.925,391.522 219.705,391.115 C 219.483,390.706 219.144,390.375 218.687,390.12 C 218.231,389.866 217.642,389.734 216.921,389.727 C 216.093,389.735 215.359,389.867 214.719,390.123 C 214.078,390.381 213.52,390.713 213.046,391.122 C 212.57,391.53 212.167,391.964 211.834,392.427 C 211.502,392.889 211.231,393.329 211.02,393.748 C 210.848,394.041 210.697,394.278 210.568,394.46 C 210.438,394.642 210.309,394.774 210.181,394.858 C 210.051,394.941 209.901,394.983 209.728,394.981 C 209.454,394.977 209.269,394.861 209.171,394.633 C 209.073,394.404 209.034,394.091 209.053,393.689 C 209.114,392.932 209.198,392.203 209.303,391.503 C 209.408,390.803 209.52,390.103 209.64,389.404 C 209.742,388.784 209.883,388.358 210.066,388.123 C 210.248,387.889 210.478,387.778 210.756,387.789 C 210.944,387.796 211.102,387.845 211.231,387.935 C 211.36,388.023 211.502,388.113 211.661,388.202 C 211.819,388.292 212.036,388.34 212.312,388.348 C 212.574,388.34 212.898,388.294 213.285,388.211 C 213.674,388.126 214.14,388.041 214.684,387.956 C 215.229,387.871 215.866,387.825 216.598,387.819 Z" marker-start="none" marker-end="none"/>
      <path d="M 235.095,402.467 C 234.285,402.461 233.567,402.34 232.942,402.104 C 232.318,401.869 231.776,401.556 231.318,401.167 C 230.859,400.779 230.474,400.35 230.163,399.884 L 230.163,401.587 C 230.165,401.893 230.11,402.117 229.998,402.258 C 229.886,402.399 229.706,402.47 229.458,402.467 C 229.343,402.466 229.157,402.434 228.903,402.373 C 228.647,402.31 228.354,402.229 228.024,402.126 C 227.693,402.024 227.358,401.91 227.019,401.786 C 226.678,401.663 226.367,401.537 226.082,401.411 C 225.736,401.257 225.49,401.109 225.348,400.966 C 225.207,400.824 225.138,400.64 225.143,400.413 C 225.15,400.212 225.21,400.048 225.323,399.921 C 225.436,399.793 225.562,399.674 225.701,399.561 C 225.996,399.359 226.22,399.117 226.376,398.834 C 226.532,398.552 226.61,398.208 226.611,397.799 L 226.611,386.292 C 226.608,385.753 226.558,385.329 226.461,385.02 C 226.366,384.711 226.246,384.472 226.105,384.307 C 225.963,384.141 225.82,384.004 225.679,383.895 C 225.537,383.787 225.418,383.664 225.323,383.527 C 225.226,383.39 225.176,383.197 225.173,382.946 C 225.176,382.671 225.294,382.479 225.529,382.37 C 225.763,382.26 226.094,382.208 226.523,382.212 L 230.721,382.212 C 231.121,382.206 231.436,382.254 231.664,382.358 C 231.892,382.462 232.008,382.658 232.013,382.946 C 232.01,383.197 231.959,383.39 231.863,383.527 C 231.768,383.664 231.648,383.787 231.506,383.895 C 231.364,384.004 231.222,384.141 231.081,384.307 C 230.938,384.472 230.82,384.711 230.723,385.02 C 230.628,385.329 230.578,385.753 230.575,386.292 L 230.575,388.993 C 231.093,388.66 231.692,388.379 232.372,388.149 C 233.053,387.919 233.784,387.799 234.567,387.789 C 235.347,387.789 236.118,387.955 236.881,388.284 C 237.643,388.613 238.339,389.105 238.967,389.76 C 239.595,390.415 240.097,391.233 240.475,392.211 C 240.851,393.189 241.045,394.328 241.054,395.627 C 241.049,396.694 240.894,397.649 240.589,398.492 C 240.285,399.336 239.861,400.053 239.318,400.644 C 238.776,401.235 238.144,401.686 237.426,401.998 C 236.706,402.308 235.929,402.465 235.095,402.467 Z M 234.302,389.609 C 233.85,389.61 233.407,389.713 232.974,389.916 C 232.539,390.119 232.146,390.416 231.792,390.805 C 231.438,391.196 231.155,391.673 230.942,392.234 C 230.729,392.797 230.616,393.439 230.603,394.16 L 230.575,396.068 L 230.575,396.156 C 230.577,396.869 230.704,397.52 230.955,398.107 C 231.205,398.695 231.558,399.165 232.014,399.517 C 232.47,399.87 233.008,400.052 233.627,400.06 C 234.346,400.051 234.974,399.784 235.508,399.261 C 236.044,398.739 236.459,398.022 236.757,397.111 C 237.053,396.2 237.204,395.158 237.209,393.983 C 237.21,393.449 237.157,392.926 237.048,392.413 C 236.94,391.899 236.77,391.433 236.537,391.014 C 236.305,390.597 236.005,390.26 235.636,390.008 C 235.266,389.755 234.823,389.623 234.302,389.609 Z" marker-start="none" marker-end="none"/>
      <path d="M 254.908,392.574 C 254.556,392.227 254.162,391.908 253.725,391.615 C 253.29,391.323 252.812,391.089 252.295,390.91 C 251.777,390.733 251.219,390.641 250.623,390.637 C 249.87,390.645 249.216,390.776 248.659,391.03 C 248.102,391.283 247.636,391.611 247.262,392.015 C 246.888,392.419 246.599,392.85 246.395,393.308 C 247.405,393.676 248.363,394.033 249.27,394.38 C 250.178,394.725 251.083,395.084 251.983,395.457 C 252.885,395.829 253.83,396.238 254.82,396.684 C 255.098,396.818 255.291,396.983 255.401,397.18 C 255.509,397.376 255.541,397.593 255.495,397.829 C 255.358,398.682 255.043,399.456 254.551,400.153 C 254.059,400.851 253.393,401.409 252.556,401.827 C 251.718,402.243 250.711,402.457 249.536,402.467 C 248.501,402.463 247.528,402.269 246.614,401.888 C 245.701,401.507 244.894,400.969 244.193,400.274 C 243.492,399.578 242.942,398.757 242.542,397.811 C 242.143,396.865 241.94,395.824 241.933,394.688 C 241.942,393.337 242.237,392.145 242.818,391.112 C 243.399,390.079 244.211,389.27 245.255,388.684 C 246.299,388.099 247.521,387.8 248.92,387.789 C 249.897,387.798 250.779,387.932 251.567,388.192 C 252.354,388.451 253.042,388.786 253.628,389.198 C 254.213,389.61 254.694,390.049 255.067,390.514 C 255.439,390.979 255.7,391.421 255.848,391.84 C 255.94,392.128 255.946,392.362 255.865,392.54 C 255.785,392.718 255.657,392.816 255.478,392.834 C 255.3,392.853 255.11,392.767 254.908,392.574 Z M 248.244,400.53 C 248.721,400.614 249.181,400.564 249.624,400.379 C 250.068,400.193 250.456,399.901 250.789,399.497 C 251.122,399.094 251.359,398.606 251.503,398.035 C 251.569,397.784 251.577,397.585 251.53,397.436 C 251.483,397.287 251.396,397.168 251.271,397.078 C 251.144,396.989 250.997,396.906 250.828,396.832 C 250.034,396.495 249.222,396.176 248.391,395.874 C 247.561,395.57 246.719,395.273 245.866,394.981 C 245.792,395.236 245.735,395.527 245.694,395.851 C 245.653,396.176 245.633,396.502 245.631,396.832 C 245.633,397.464 245.732,398.047 245.931,398.579 C 246.129,399.111 246.423,399.552 246.81,399.897 C 247.198,400.244 247.676,400.454 248.244,400.53 Z" marker-start="none" marker-end="none"/>
      <path d="M 271.556,396.42 C 271.31,397.714 270.981,398.812 270.567,399.71 C 270.153,400.609 269.595,401.292 268.894,401.761 C 268.193,402.229 267.289,402.465 266.183,402.467 C 265.553,402.467 264.944,402.367 264.355,402.166 C 263.767,401.966 263.22,401.667 262.716,401.272 C 262.213,400.876 261.774,400.383 261.398,399.796 L 261.398,401.558 C 261.4,401.851 261.344,402.071 261.233,402.218 C 261.121,402.365 260.941,402.438 260.693,402.438 C 260.57,402.43 260.38,402.394 260.121,402.33 C 259.862,402.268 259.567,402.184 259.237,402.083 C 258.906,401.98 258.574,401.867 258.237,401.74 C 257.901,401.615 257.594,401.486 257.317,401.352 C 256.97,401.199 256.726,401.05 256.583,400.909 C 256.441,400.766 256.373,400.581 256.378,400.354 C 256.382,400.152 256.439,399.989 256.546,399.865 C 256.655,399.742 256.783,399.631 256.936,399.532 C 257.231,399.316 257.456,399.065 257.611,398.78 C 257.766,398.494 257.844,398.147 257.845,397.741 L 257.845,392.164 C 257.842,391.624 257.791,391.201 257.693,390.892 C 257.595,390.581 257.474,390.344 257.329,390.18 C 257.185,390.015 257.04,389.879 256.894,389.773 C 256.749,389.667 256.629,389.548 256.531,389.414 C 256.433,389.281 256.382,389.092 256.378,388.847 C 256.382,388.558 256.505,388.357 256.745,388.245 C 256.984,388.132 257.312,388.078 257.729,388.083 L 261.926,388.083 C 262.34,388.077 262.657,388.126 262.881,388.23 C 263.104,388.333 263.216,388.529 263.218,388.817 C 263.214,389.069 263.165,389.262 263.072,389.399 C 262.977,389.536 262.86,389.657 262.722,389.766 C 262.583,389.874 262.444,390.013 262.305,390.178 C 262.165,390.344 262.05,390.581 261.955,390.89 C 261.861,391.201 261.813,391.624 261.809,392.164 L 261.809,395.921 C 261.816,396.783 261.958,397.511 262.232,398.105 C 262.506,398.697 262.866,399.147 263.314,399.452 C 263.761,399.758 264.247,399.911 264.774,399.914 C 265.413,399.911 265.92,399.739 266.295,399.393 C 266.671,399.049 266.957,398.599 267.157,398.046 C 267.356,397.492 267.512,396.901 267.622,396.274 L 268.531,391.635 C 268.618,391.167 268.612,390.798 268.514,390.531 C 268.415,390.264 268.278,390.049 268.102,389.889 C 267.926,389.728 267.766,389.572 267.619,389.423 C 267.473,389.273 267.395,389.08 267.387,388.847 C 267.39,388.558 267.507,388.357 267.739,388.245 C 267.97,388.132 268.293,388.078 268.707,388.083 L 272.817,388.083 C 273.218,388.077 273.532,388.126 273.761,388.23 C 273.989,388.333 274.105,388.529 274.109,388.817 C 274.103,389.065 274.041,389.261 273.919,389.402 C 273.799,389.544 273.65,389.684 273.474,389.823 C 273.299,389.961 273.126,390.148 272.958,390.385 C 272.789,390.623 272.654,390.961 272.553,391.4 L 271.556,396.42 Z" marker-start="none" marker-end="none"/>
      <path d="M 288.08,408.045 C 288.082,408.352 288.029,408.575 287.919,408.717 C 287.81,408.858 287.639,408.928 287.405,408.925 C 287.282,408.924 287.075,408.884 286.785,408.806 C 286.495,408.73 286.161,408.627 285.784,408.501 C 285.407,408.373 285.025,408.234 284.64,408.084 C 284.254,407.933 283.904,407.783 283.589,407.635 C 283.244,407.479 283.003,407.335 282.87,407.201 C 282.736,407.068 282.673,406.909 282.68,406.725 C 282.687,406.512 282.759,406.341 282.894,406.211 C 283.031,406.08 283.189,405.94 283.369,405.789 C 283.549,405.637 283.707,405.424 283.843,405.151 C 283.98,404.878 284.052,404.492 284.059,403.994 L 284.059,401.704 C 283.645,401.941 283.174,402.127 282.647,402.262 C 282.118,402.397 281.552,402.465 280.947,402.467 C 280.077,402.465 279.207,402.28 278.337,401.912 C 277.469,401.543 276.671,401.008 275.945,400.306 C 275.22,399.605 274.637,398.752 274.198,397.749 C 273.758,396.746 273.532,395.608 273.521,394.336 C 273.529,393.064 273.781,391.944 274.279,390.977 C 274.776,390.008 275.464,389.247 276.343,388.693 C 277.221,388.139 278.237,387.847 279.391,387.819 C 280.153,387.795 280.834,387.885 281.434,388.088 C 282.032,388.292 282.557,388.575 283.005,388.939 C 283.455,389.302 283.835,389.712 284.148,390.167 L 284.176,389.581 C 284.215,388.968 284.328,388.526 284.518,388.252 C 284.707,387.978 285.004,387.844 285.409,387.848 C 285.693,387.852 286.041,387.909 286.453,388.016 C 286.865,388.125 287.278,388.257 287.692,388.414 C 288.108,388.571 288.462,388.724 288.757,388.875 C 289.092,389.063 289.337,389.24 289.494,389.407 C 289.65,389.576 289.727,389.761 289.725,389.962 C 289.716,390.165 289.626,390.316 289.454,390.414 C 289.283,390.514 289.085,390.624 288.859,390.743 C 288.634,390.863 288.434,391.056 288.263,391.32 C 288.092,391.584 288.001,391.983 287.993,392.515 L 288.051,404.024 L 288.08,408.045 Z M 281.123,390.343 C 280.439,390.348 279.809,390.58 279.234,391.04 C 278.658,391.5 278.197,392.161 277.846,393.023 C 277.497,393.884 277.317,394.919 277.307,396.126 C 277.309,397.042 277.435,397.835 277.686,398.505 C 277.935,399.175 278.297,399.693 278.768,400.06 C 279.24,400.427 279.81,400.614 280.478,400.618 C 281.127,400.618 281.7,400.45 282.198,400.112 C 282.697,399.775 283.102,399.267 283.414,398.592 C 283.617,398.173 283.768,397.682 283.868,397.121 C 283.968,396.559 284.032,395.973 284.059,395.364 L 284.059,393.602 C 284,392.998 283.85,392.452 283.611,391.961 C 283.371,391.471 283.044,391.08 282.628,390.79 C 282.212,390.499 281.711,390.35 281.123,390.343 Z" marker-start="none" marker-end="none"/>
      <path d="M 320.52,408.633 C 320.131,408.639 319.815,408.589 319.573,408.482 C 319.331,408.374 319.206,408.17 319.199,407.869 C 319.21,407.616 319.29,407.42 319.439,407.282 C 319.589,407.144 319.744,406.997 319.907,406.845 C 320.07,406.693 320.176,406.469 320.227,406.173 C 320.278,405.876 320.208,405.444 320.022,404.875 L 315.999,392.809 L 312.183,404.816 C 312.025,405.35 311.976,405.763 312.04,406.057 C 312.104,406.351 312.218,406.582 312.385,406.75 C 312.551,406.918 312.708,407.081 312.856,407.239 C 313.004,407.397 313.083,407.607 313.093,407.869 C 313.088,408.157 312.965,408.358 312.726,408.471 C 312.486,408.583 312.158,408.638 311.743,408.633 L 307.045,408.633 C 306.59,408.64 306.246,408.588 306.014,408.478 C 305.783,408.368 305.666,408.155 305.666,407.84 C 305.671,407.586 305.745,407.387 305.889,407.243 C 306.032,407.099 306.213,406.949 306.433,406.791 C 306.652,406.632 306.88,406.404 307.115,406.105 C 307.35,405.808 307.561,405.378 307.75,404.816 L 308.103,403.671 L 304.286,392.692 L 300.264,404.816 C 300.099,405.35 300.046,405.763 300.105,406.057 C 300.165,406.351 300.276,406.582 300.441,406.75 C 300.605,406.918 300.761,407.081 300.908,407.239 C 301.056,407.397 301.135,407.607 301.145,407.869 C 301.139,408.157 301.018,408.358 300.778,408.471 C 300.538,408.583 300.211,408.638 299.794,408.633 L 295.098,408.633 C 294.642,408.64 294.298,408.588 294.067,408.478 C 293.835,408.368 293.718,408.155 293.717,407.84 C 293.723,407.586 293.797,407.386 293.941,407.239 C 294.085,407.093 294.268,406.939 294.493,406.779 C 294.716,406.619 294.949,406.39 295.191,406.093 C 295.434,405.796 295.657,405.371 295.86,404.816 L 301.585,388.494 C 301.679,388.218 301.866,388.044 302.151,387.972 C 302.434,387.901 302.872,387.919 303.464,388.024 C 303.851,388.083 304.157,388.16 304.378,388.254 C 304.6,388.349 304.764,388.456 304.868,388.576 C 304.973,388.697 305.044,388.825 305.078,388.963 L 309.071,400.794 L 313.269,388.494 C 313.361,388.215 313.552,388.038 313.846,387.962 C 314.138,387.885 314.602,387.906 315.236,388.024 C 315.623,388.084 315.926,388.163 316.144,388.263 C 316.362,388.362 316.524,388.473 316.628,388.598 C 316.732,388.723 316.806,388.855 316.851,388.993 L 322.281,404.875 C 322.478,405.422 322.712,405.841 322.98,406.131 C 323.248,406.421 323.512,406.645 323.772,406.801 C 324.031,406.958 324.247,407.109 324.421,407.257 C 324.593,407.403 324.683,407.607 324.689,407.869 C 324.681,408.17 324.541,408.374 324.267,408.482 C 323.992,408.589 323.624,408.639 323.163,408.633 L 320.52,408.633 Z" marker-start="none" marker-end="none"/>
      <path d="M 326.154,404.083 C 326.673,404.08 327.169,404.205 327.642,404.457 C 328.114,404.709 328.506,405.043 328.816,405.459 C 329.125,405.874 329.295,406.325 329.325,406.812 C 329.321,407.148 329.24,407.454 329.08,407.729 C 328.92,408.004 328.702,408.225 328.424,408.391 C 328.147,408.558 327.831,408.648 327.476,408.662 C 326.966,408.671 326.481,408.538 326.017,408.265 C 325.553,407.991 325.172,407.639 324.873,407.209 C 324.572,406.779 324.412,406.334 324.392,405.873 C 324.384,405.546 324.45,405.25 324.588,404.984 C 324.727,404.719 324.929,404.505 325.195,404.345 C 325.461,404.183 325.781,404.096 326.154,404.083 Z M 325.156,392.164 C 325.152,391.624 325.103,391.201 325.006,390.892 C 324.91,390.581 324.791,390.344 324.65,390.18 C 324.508,390.015 324.366,389.879 324.224,389.773 C 324.082,389.667 323.963,389.548 323.867,389.414 C 323.77,389.281 323.721,389.092 323.717,388.847 C 323.721,388.558 323.84,388.357 324.074,388.245 C 324.309,388.132 324.639,388.078 325.068,388.083 L 329.266,388.083 C 329.667,388.077 329.981,388.126 330.209,388.23 C 330.437,388.333 330.553,388.529 330.558,388.817 C 330.554,389.069 330.505,389.262 330.408,389.399 C 330.312,389.536 330.193,389.657 330.052,389.766 C 329.909,389.874 329.767,390.013 329.626,390.178 C 329.484,390.344 329.365,390.581 329.269,390.89 C 329.172,391.201 329.123,391.624 329.119,392.164 L 329.119,397.536 L 329.149,401.558 C 329.15,401.866 329.096,402.093 328.987,402.24 C 328.879,402.387 328.708,402.453 328.474,402.438 C 328.349,402.437 328.142,402.397 327.852,402.32 C 327.562,402.242 327.229,402.142 326.851,402.017 C 326.474,401.891 326.093,401.756 325.707,401.608 C 325.322,401.462 324.972,401.317 324.657,401.176 C 324.311,401.021 324.071,400.876 323.938,400.739 C 323.805,400.603 323.741,400.435 323.747,400.236 C 323.754,400.025 323.827,399.855 323.968,399.727 C 324.107,399.6 324.268,399.463 324.451,399.316 C 324.635,399.168 324.796,398.959 324.936,398.688 C 325.076,398.418 325.149,398.033 325.156,397.536 L 325.156,392.164 Z" marker-start="none" marker-end="none"/>
      <path d="M 333.484,387.789 C 333.666,387.796 333.815,387.847 333.931,387.942 C 334.047,388.036 334.157,388.13 334.261,388.225 C 334.364,388.318 334.487,388.369 334.629,388.376 C 334.829,388.369 335.091,388.318 335.415,388.225 C 335.739,388.13 336.158,388.036 336.671,387.942 C 337.183,387.847 337.824,387.796 338.592,387.789 C 339.631,387.795 340.564,387.976 341.393,388.333 C 342.222,388.69 342.879,389.189 343.365,389.83 C 343.852,390.469 344.101,391.218 344.111,392.075 C 344.105,392.773 343.895,393.387 343.479,393.918 C 343.062,394.449 342.472,394.94 341.71,395.39 C 340.948,395.838 340.046,396.29 339.003,396.743 C 338.201,397.081 337.529,397.387 336.989,397.664 C 336.45,397.941 336.044,398.217 335.772,398.493 C 335.5,398.77 335.363,399.077 335.363,399.415 C 335.363,399.653 335.429,399.874 335.56,400.078 C 335.691,400.281 335.889,400.446 336.155,400.571 C 336.419,400.697 336.753,400.761 337.154,400.765 C 337.587,400.76 338.034,400.676 338.493,400.513 C 338.952,400.352 339.403,400.144 339.846,399.89 C 340.288,399.637 340.702,399.371 341.087,399.091 C 341.397,398.862 341.667,398.662 341.899,398.49 C 342.129,398.318 342.339,398.2 342.526,398.137 C 342.715,398.073 342.901,398.087 343.083,398.182 C 343.277,398.267 343.396,398.419 343.44,398.641 C 343.482,398.861 343.433,399.168 343.289,399.561 C 343.164,399.858 343.041,400.137 342.922,400.398 C 342.804,400.658 342.652,400.966 342.467,401.323 C 342.243,401.73 342.052,402.024 341.895,402.203 C 341.737,402.384 341.546,402.471 341.322,402.467 C 341.152,402.463 341.014,402.427 340.905,402.361 C 340.797,402.295 340.683,402.229 340.565,402.163 C 340.447,402.097 340.288,402.061 340.09,402.057 C 339.809,402.071 339.502,402.111 339.171,402.176 C 338.839,402.242 338.463,402.306 338.043,402.368 C 337.622,402.43 337.141,402.463 336.596,402.467 C 336.015,402.469 335.438,402.386 334.864,402.222 C 334.289,402.057 333.764,401.807 333.286,401.469 C 332.808,401.133 332.426,400.706 332.138,400.189 C 331.849,399.672 331.701,399.062 331.693,398.357 C 331.699,397.751 331.822,397.218 332.063,396.755 C 332.305,396.292 332.633,395.885 333.048,395.533 C 333.462,395.179 333.931,394.863 334.455,394.585 C 334.979,394.305 335.527,394.047 336.097,393.807 C 337.384,393.275 338.384,392.783 339.095,392.329 C 339.805,391.875 340.166,391.388 340.177,390.872 C 340.169,390.441 340.01,390.1 339.7,389.848 C 339.391,389.597 338.982,389.469 338.474,389.463 C 337.617,389.469 336.757,389.728 335.898,390.24 C 335.039,390.754 334.137,391.482 333.19,392.428 C 332.869,392.726 332.586,392.942 332.34,393.077 C 332.092,393.21 331.866,393.229 331.663,393.132 C 331.485,393.047 331.359,392.915 331.286,392.736 C 331.214,392.557 331.213,392.306 331.282,391.988 C 331.412,391.5 331.563,391.021 331.738,390.553 C 331.911,390.083 332.121,389.553 332.368,388.963 C 332.55,388.503 332.717,388.191 332.872,388.024 C 333.026,387.858 333.23,387.78 333.484,387.789 Z" marker-start="none" marker-end="none"/>
      <path d="M 357.813,392.574 C 357.46,392.227 357.066,391.908 356.63,391.615 C 356.194,391.323 355.716,391.089 355.2,390.91 C 354.682,390.733 354.123,390.641 353.528,390.637 C 352.775,390.645 352.121,390.776 351.564,391.03 C 351.007,391.283 350.541,391.611 350.167,392.015 C 349.793,392.419 349.504,392.85 349.3,393.308 C 350.31,393.676 351.268,394.033 352.175,394.38 C 353.083,394.725 353.988,395.084 354.888,395.457 C 355.79,395.829 356.735,396.238 357.725,396.684 C 358.003,396.818 358.196,396.983 358.305,397.18 C 358.414,397.376 358.446,397.593 358.4,397.829 C 358.263,398.682 357.948,399.456 357.456,400.153 C 356.964,400.851 356.298,401.409 355.46,401.827 C 354.623,402.243 353.616,402.457 352.441,402.467 C 351.406,402.463 350.432,402.269 349.519,401.888 C 348.606,401.507 347.799,400.969 347.098,400.274 C 346.397,399.578 345.847,398.757 345.447,397.811 C 345.048,396.865 344.845,395.824 344.838,394.688 C 344.846,393.337 345.141,392.145 345.723,391.112 C 346.304,390.079 347.115,389.27 348.16,388.684 C 349.204,388.099 350.425,387.8 351.825,387.789 C 352.802,387.798 353.683,387.932 354.472,388.192 C 355.259,388.451 355.947,388.786 356.533,389.198 C 357.118,389.61 357.599,390.049 357.971,390.514 C 358.344,390.979 358.605,391.421 358.753,391.84 C 358.845,392.128 358.85,392.362 358.77,392.54 C 358.69,392.718 358.561,392.816 358.383,392.834 C 358.205,392.853 358.015,392.767 357.813,392.574 Z M 351.149,400.53 C 351.625,400.614 352.086,400.564 352.529,400.379 C 352.973,400.193 353.361,399.901 353.694,399.497 C 354.027,399.094 354.264,398.606 354.408,398.035 C 354.474,397.784 354.482,397.585 354.435,397.436 C 354.388,397.287 354.3,397.168 354.175,397.078 C 354.049,396.989 353.902,396.906 353.733,396.832 C 352.939,396.495 352.127,396.176 351.296,395.874 C 350.465,395.57 349.624,395.273 348.771,394.981 C 348.697,395.236 348.64,395.527 348.599,395.851 C 348.557,396.176 348.537,396.502 348.536,396.832 C 348.537,397.464 348.636,398.047 348.836,398.579 C 349.034,399.111 349.328,399.552 349.715,399.897 C 350.103,400.244 350.581,400.454 351.149,400.53 Z" marker-start="none" marker-end="none"/>
     </g>
    </g>
   </g>
   <g id="Group_4" stroke-linejoin="miter">
    <path d="M 180.099,408.466 C 180.064,408.45 179.821,408.436 179.56,408.433 C 179.298,408.432 178.93,408.407 178.74,408.381 C 178.552,408.353 178.287,408.319 178.151,408.304 C 177.743,408.258 176.699,408.031 176.498,407.945 C 176.463,407.93 176.352,407.898 176.253,407.875 C 176.153,407.853 176.051,407.823 176.024,407.809 C 175.996,407.795 175.904,407.765 175.818,407.743 C 175.732,407.722 175.654,407.691 175.645,407.676 C 175.635,407.659 175.596,407.647 175.558,407.647 C 175.52,407.647 175.465,407.627 175.437,407.604 C 175.37,407.547 174.796,407.319 174.721,407.319 C 174.688,407.319 174.648,407.306 174.63,407.289 C 174.606,407.266 173.724,406.819 173.273,406.603 C 173.131,406.535 173.044,406.48 172.969,406.41 C 172.928,406.371 172.844,406.319 172.779,406.292 C 172.715,406.266 172.643,406.221 172.621,406.193 C 172.573,406.136 172.149,405.846 172.113,405.846 C 172.08,405.846 171.593,405.472 171.308,405.23 C 170.958,404.928 170.491,404.464 170.491,404.415 C 170.491,404.392 170.472,404.374 170.447,404.374 C 170.348,404.374 169.588,403.424 169.2,402.817 C 169.072,402.617 168.95,402.426 168.927,402.391 C 168.886,402.327 168.761,402.092 168.625,401.82 C 168.586,401.738 168.518,401.607 168.476,401.526 C 168.022,400.637 167.653,399.081 167.641,398.006 C 167.627,396.626 167.693,396.038 167.97,395.076 C 168.026,394.887 168.076,394.709 168.082,394.682 C 168.181,394.325 168.62,393.341 168.78,393.125 C 168.82,393.069 168.854,393.001 168.854,392.975 C 168.854,392.95 168.87,392.911 168.891,392.892 C 168.932,392.849 168.996,392.744 169.062,392.604 C 169.089,392.549 169.163,392.439 169.227,392.358 C 169.292,392.277 169.345,392.195 169.345,392.177 C 169.345,392.157 169.389,392.099 169.443,392.047 C 169.497,391.995 169.542,391.937 169.542,391.918 C 169.542,391.834 170.438,390.787 170.51,390.787 C 170.551,390.787 170.687,390.647 170.687,390.604 C 170.687,390.587 170.72,390.559 170.76,390.541 C 170.797,390.522 170.854,390.469 170.881,390.422 C 170.911,390.375 171.068,390.215 171.233,390.069 C 171.398,389.92 171.542,389.778 171.551,389.751 C 171.562,389.723 171.571,388.771 171.571,387.637 C 171.571,386.127 171.582,385.538 171.609,385.441 C 171.662,385.27 171.922,384.989 172.127,384.881 L 172.29,384.796 L 174.52,384.796 L 176.75,384.796 L 176.935,384.896 C 177.166,385.023 177.257,385.104 177.284,385.216 C 177.296,385.264 177.338,385.337 177.377,385.379 C 177.445,385.453 177.448,385.487 177.457,386.241 C 177.466,386.874 177.476,387.027 177.513,387.044 C 177.539,387.052 177.784,387.024 178.059,386.976 C 178.709,386.869 179.066,386.834 179.706,386.809 C 179.994,386.798 180.277,386.783 180.335,386.773 L 180.44,386.758 L 180.433,394.968 L 180.429,403.178 L 180.07,403.174 C 179.5,403.165 178.729,403.037 178.085,402.847 C 177.651,402.716 177.507,402.662 176.923,402.413 C 176.533,402.247 176.477,402.231 176.253,402.231 C 175.661,402.23 175.272,402.647 175.311,403.24 C 175.344,403.75 175.58,403.964 176.539,404.354 C 177.654,404.807 178.9,405.066 180.28,405.136 L 180.429,405.144 L 180.431,406.821 L 180.436,408.498 L 180.3,408.497 C 180.226,408.495 180.136,408.482 180.099,408.466 M 184.104,384.805 C 184.128,384.796 184.156,384.798 184.168,384.809 C 184.177,384.819 184.158,384.828 184.124,384.825 C 184.086,384.824 184.078,384.817 184.104,384.805" fill="#59deb0" stroke-width="0.033"/>
    <path d="M 187.467,410.367 C 187.455,410.347 187.365,410.332 187.267,410.332 C 187.09,410.332 186.843,410.288 186.713,410.233 C 186.677,410.219 186.594,410.2 186.529,410.189 C 186.465,410.181 186.312,410.128 186.194,410.072 C 186.074,410.016 185.927,409.961 185.869,409.95 C 185.759,409.928 185.093,409.597 184.917,409.474 C 184.859,409.434 184.75,409.347 184.671,409.278 C 184.592,409.21 184.508,409.153 184.485,409.153 C 184.426,409.153 184.12,408.902 183.701,408.507 C 183.423,408.246 183.327,408.171 183.276,408.187 C 183.108,408.234 182.236,408.372 181.807,408.416 C 181.545,408.444 181.126,408.466 180.878,408.466 L 180.429,408.466 L 180.429,406.805 L 180.429,405.144 L 180.28,405.136 C 178.9,405.066 177.654,404.807 176.539,404.354 C 175.58,403.964 175.344,403.75 175.311,403.24 C 175.284,402.814 175.458,402.498 175.819,402.322 C 175.974,402.247 176.051,402.231 176.253,402.231 C 176.477,402.231 176.533,402.247 176.923,402.413 C 177.507,402.662 177.651,402.716 178.085,402.847 C 178.729,403.037 179.5,403.165 180.07,403.174 L 180.429,403.178 L 180.429,394.986 L 180.429,386.792 L 180.87,386.793 C 181.41,386.795 181.904,386.84 181.97,386.894 C 182.005,386.922 182.029,386.924 182.053,386.899 C 182.075,386.877 182.129,386.868 182.175,386.876 C 182.543,386.939 183.289,387.054 183.32,387.054 C 183.347,387.054 183.357,386.874 183.357,386.39 C 183.357,385.576 183.388,385.428 183.612,385.15 C 183.707,385.034 183.825,384.929 183.914,384.885 L 184.061,384.811 L 186.337,384.811 L 188.613,384.811 L 188.785,384.908 C 188.991,385.021 189.135,385.191 189.221,385.419 C 189.28,385.572 189.283,385.702 189.284,387.684 C 189.286,389.623 189.289,389.793 189.341,389.853 C 189.372,389.89 189.431,389.933 189.471,389.952 C 189.592,390.005 190.404,390.796 190.743,391.189 C 191.109,391.615 191.446,392.059 191.674,392.417 L 191.837,392.669 L 193.122,392.685 C 194.39,392.702 194.409,392.703 194.571,392.78 C 194.811,392.894 194.896,392.964 195.009,393.132 C 195.085,393.248 195.11,393.324 195.11,393.437 C 195.11,393.521 195.125,393.604 195.144,393.622 C 195.167,393.646 195.174,394.684 195.169,396.763 L 195.16,399.873 L 195.071,400.04 C 195.024,400.131 194.914,400.269 194.829,400.342 C 194.587,400.553 194.472,400.576 193.552,400.576 L 192.758,400.576 L 192.719,400.699 C 192.697,400.766 192.662,400.842 192.639,400.87 C 192.617,400.898 192.59,400.97 192.578,401.032 C 192.535,401.251 191.945,402.439 191.802,402.59 C 191.767,402.629 191.739,402.674 191.739,402.693 C 191.739,402.743 191.301,403.37 191.024,403.718 C 190.622,404.22 190.156,404.712 189.709,405.102 L 189.293,405.467 L 189.269,407.482 C 189.256,408.591 189.247,409.552 189.247,409.618 C 189.248,409.685 189.235,409.749 189.216,409.76 C 189.199,409.77 189.185,409.806 189.185,409.839 C 189.185,409.925 188.915,410.214 188.751,410.304 C 188.624,410.373 188.565,410.38 188.051,410.391 C 187.672,410.398 187.484,410.391 187.467,410.367 M 180.431,405.046 C 180.413,404.978 180.423,403.226 180.44,403.207 C 180.441,403.206 180.609,403.194 180.812,403.182 C 181.895,403.114 182.791,402.898 183.848,402.448 C 184.448,402.195 184.635,402.164 184.93,402.275 C 185.138,402.353 185.353,402.545 185.46,402.746 C 185.521,402.86 185.534,402.935 185.533,403.178 C 185.532,403.437 185.521,403.49 185.443,403.621 C 185.313,403.843 185.17,403.962 184.846,404.123 C 183.989,404.543 183.073,404.826 182.032,404.996 C 181.509,405.081 181.454,405.087 180.915,405.113 L 180.452,405.136 L 180.431,405.046 M 164.44,400.524 C 164.409,400.504 164.346,400.479 164.3,400.467 C 164.136,400.427 163.928,400.231 163.819,400.014 L 163.714,399.806 L 163.717,399.31 C 163.72,398.952 163.734,398.788 163.767,398.723 C 163.793,398.675 163.804,398.606 163.793,398.572 C 163.784,398.538 163.798,398.473 163.827,398.428 C 163.856,398.383 163.872,398.333 163.859,398.315 C 163.84,398.282 163.939,397.933 164.022,397.744 C 164.178,397.385 164.28,397.205 164.408,397.056 C 164.44,397.018 164.501,396.917 164.545,396.831 C 164.589,396.743 164.678,396.611 164.741,396.537 C 164.803,396.462 164.894,396.354 164.942,396.295 C 164.989,396.237 165.051,396.189 165.076,396.189 C 165.102,396.189 165.136,396.156 165.152,396.115 C 165.19,396.014 165.369,395.849 165.411,395.875 C 165.431,395.887 165.471,395.858 165.5,395.813 C 165.531,395.767 165.571,395.731 165.591,395.731 C 165.613,395.731 165.721,395.651 165.831,395.554 C 166.069,395.346 166.755,394.998 167.183,394.865 C 167.501,394.767 168.04,394.651 168.076,394.672 C 168.091,394.681 168.088,394.711 168.07,394.742 C 167.975,394.922 167.737,396.002 167.676,396.53 C 167.642,396.84 167.631,396.858 167.442,396.91 C 167.378,396.927 167.288,396.967 167.246,396.999 C 167.203,397.031 167.125,397.079 167.072,397.107 C 166.92,397.182 166.162,397.953 166.034,398.16 C 166.02,398.183 166.017,398.21 166.024,398.224 C 166.034,398.237 166.026,398.275 166.008,398.308 C 165.882,398.534 165.733,399.148 165.696,399.585 C 165.687,399.716 165.654,399.881 165.626,399.953 C 165.554,400.136 165.182,400.478 165.059,400.478 C 165.007,400.478 164.948,400.499 164.927,400.525 C 164.879,400.583 164.523,400.582 164.44,400.524 M 187.973,400.542 C 187.973,400.529 187.927,400.5 187.873,400.477 C 187.715,400.411 187.504,400.219 187.454,400.098 C 187.429,400.035 187.398,399.986 187.381,399.986 C 187.365,399.986 187.352,399.946 187.352,399.895 C 187.352,399.844 187.337,399.79 187.32,399.771 C 187.267,399.718 187.343,399.305 187.441,399.124 C 187.491,399.035 187.615,398.888 187.716,398.8 L 187.901,398.641 L 188.195,398.622 C 188.428,398.606 188.521,398.613 188.626,398.655 C 188.698,398.685 188.76,398.698 188.76,398.685 C 188.76,398.637 189.097,398.997 189.176,399.13 C 189.288,399.319 189.314,399.675 189.237,399.914 C 189.159,400.143 188.953,400.367 188.711,400.483 C 188.537,400.565 188.481,400.577 188.244,400.57 C 188.095,400.566 187.973,400.553 187.973,400.542 M 167.61,397.626 C 167.61,397.568 167.62,397.53 167.633,397.543 C 167.665,397.575 167.668,397.695 167.637,397.714 C 167.622,397.724 167.61,397.684 167.61,397.626 M 187.236,396.677 C 187.219,396.651 187.153,396.645 187.035,396.657 C 186.94,396.666 186.854,396.663 186.844,396.648 C 186.835,396.632 186.802,396.628 186.77,396.636 C 186.737,396.644 186.667,396.633 186.614,396.611 C 186.561,396.59 186.474,396.567 186.422,396.561 C 186.292,396.544 185.99,396.389 185.871,396.278 C 185.818,396.23 185.761,396.189 185.747,396.189 C 185.71,396.189 185.5,395.95 185.403,395.798 C 185.359,395.725 185.321,395.629 185.321,395.584 C 185.321,395.538 185.308,395.502 185.29,395.502 C 185.236,395.502 185.262,395.099 185.328,394.92 C 185.377,394.788 185.461,394.678 185.696,394.443 C 185.952,394.186 186.032,394.126 186.202,394.065 C 186.313,394.024 186.472,393.984 186.555,393.977 C 186.639,393.968 186.725,393.947 186.749,393.927 C 186.773,393.906 186.808,393.901 186.826,393.912 C 186.844,393.924 186.878,393.922 186.902,393.908 C 186.924,393.893 187.02,393.886 187.116,393.893 C 187.217,393.898 187.308,393.886 187.336,393.863 C 187.373,393.832 187.395,393.832 187.429,393.862 C 187.455,393.883 187.512,393.891 187.56,393.879 C 187.609,393.868 187.665,393.872 187.691,393.893 C 187.716,393.914 187.76,393.922 187.79,393.91 C 187.82,393.898 187.862,393.906 187.887,393.925 C 187.911,393.945 187.973,393.968 188.026,393.975 C 188.17,393.994 188.3,394.032 188.3,394.056 C 188.3,394.076 188.474,394.16 188.534,394.172 C 188.616,394.186 188.919,394.427 189.028,394.564 C 189.173,394.748 189.297,394.992 189.268,395.042 C 189.257,395.058 189.264,395.081 189.283,395.092 C 189.326,395.117 189.326,395.425 189.283,395.452 C 189.264,395.463 189.251,395.514 189.251,395.564 C 189.251,395.758 188.875,396.209 188.611,396.335 C 188.55,396.363 188.49,396.401 188.481,396.419 C 188.469,396.436 188.424,396.451 188.38,396.451 C 188.337,396.451 188.3,396.464 188.3,396.481 C 188.3,396.526 187.885,396.655 187.813,396.632 C 187.779,396.62 187.741,396.626 187.73,396.643 C 187.72,396.661 187.634,396.666 187.531,396.657 C 187.415,396.644 187.336,396.651 187.306,396.677 C 187.27,396.707 187.254,396.707 187.236,396.677 M 170.524,390.765 C 170.524,390.723 170.649,390.606 170.67,390.63 C 170.679,390.638 170.65,390.679 170.605,390.72 C 170.56,390.763 170.524,390.783 170.524,390.765 M 170.753,390.534 C 170.753,390.516 170.782,390.475 170.817,390.443 C 170.854,390.41 170.884,390.398 170.884,390.417 C 170.884,390.435 170.854,390.475 170.817,390.508 C 170.782,390.541 170.753,390.553 170.753,390.534" fill="#26bfa4" stroke-width="0.033"/>
    <path d="M 189.217,409.565 C 189.217,409.539 189.231,409.508 189.251,409.497 C 189.269,409.486 189.283,409.507 189.283,409.544 C 189.283,409.582 189.269,409.611 189.251,409.611 C 189.231,409.611 189.217,409.59 189.217,409.565 M 180.431,405.046 C 180.413,404.978 180.423,403.226 180.44,403.207 C 180.441,403.206 180.609,403.194 180.812,403.182 C 181.895,403.114 182.791,402.898 183.848,402.448 C 184.448,402.195 184.635,402.164 184.93,402.275 C 185.138,402.353 185.353,402.545 185.46,402.746 C 185.521,402.86 185.534,402.935 185.533,403.178 C 185.532,403.437 185.521,403.49 185.443,403.621 C 185.313,403.843 185.17,403.962 184.846,404.123 C 183.989,404.543 183.073,404.826 182.032,404.996 C 181.509,405.081 181.454,405.087 180.915,405.113 L 180.452,405.136 L 180.431,405.046 M 187.973,400.542 C 187.973,400.522 187.988,400.516 188.006,400.526 C 188.024,400.537 188.039,400.553 188.039,400.562 C 188.039,400.569 188.024,400.576 188.006,400.576 C 187.988,400.576 187.973,400.56 187.973,400.542 M 164.369,400.509 C 164.369,400.49 164.383,400.483 164.402,400.493 C 164.42,400.505 164.434,400.52 164.434,400.529 C 164.434,400.537 164.42,400.544 164.402,400.544 C 164.383,400.544 164.369,400.527 164.369,400.509 M 164.958,400.511 C 164.958,400.492 164.973,400.478 164.992,400.478 C 165.012,400.478 165.018,400.492 165.007,400.511 C 164.995,400.529 164.98,400.544 164.972,400.544 C 164.964,400.544 164.958,400.529 164.958,400.511 M 187.504,400.227 C 187.493,400.215 187.483,400.189 187.483,400.171 C 187.483,400.15 187.498,400.152 187.521,400.176 C 187.542,400.197 187.552,400.222 187.543,400.231 C 187.533,400.241 187.517,400.238 187.504,400.227 M 163.786,400.035 C 163.765,399.989 163.76,399.954 163.774,399.954 C 163.788,399.954 163.819,399.989 163.839,400.035 C 163.859,400.081 163.864,400.117 163.85,400.117 C 163.834,400.117 163.805,400.081 163.786,400.035 M 187.352,399.952 C 187.352,399.933 187.366,399.927 187.383,399.937 C 187.402,399.948 187.416,399.963 187.416,399.972 C 187.416,399.979 187.402,399.986 187.383,399.986 C 187.366,399.986 187.352,399.97 187.352,399.952 M 187.31,399.77 C 187.297,399.757 187.287,399.725 187.287,399.697 C 187.287,399.659 187.296,399.655 187.322,399.683 C 187.342,399.701 187.353,399.737 187.346,399.757 C 187.34,399.777 187.323,399.783 187.31,399.77 M 163.681,399.152 C 163.681,399.124 163.696,399.103 163.714,399.103 C 163.732,399.103 163.747,399.124 163.747,399.152 C 163.747,399.179 163.732,399.2 163.714,399.2 C 163.696,399.2 163.681,399.179 163.681,399.152 M 188.76,398.707 C 188.76,398.688 188.773,398.682 188.792,398.693 C 188.81,398.704 188.824,398.72 188.824,398.728 C 188.824,398.735 188.81,398.742 188.792,398.742 C 188.773,398.742 188.76,398.728 188.76,398.707 M 187.859,398.676 C 187.871,398.659 187.894,398.644 187.912,398.644 C 187.93,398.644 187.936,398.659 187.925,398.676 C 187.913,398.695 187.89,398.709 187.871,398.709 C 187.853,398.709 187.848,398.695 187.859,398.676 M 163.762,398.644 C 163.774,398.626 163.789,398.611 163.798,398.611 C 163.805,398.611 163.812,398.626 163.812,398.644 C 163.812,398.662 163.797,398.676 163.776,398.676 C 163.759,398.676 163.752,398.662 163.762,398.644 M 163.828,398.349 C 163.84,398.331 163.856,398.317 163.863,398.317 C 163.871,398.317 163.877,398.331 163.877,398.349 C 163.877,398.368 163.861,398.382 163.844,398.382 C 163.824,398.382 163.818,398.368 163.828,398.349 M 166.06,398.12 C 166.092,398.067 166.129,398.021 166.141,398.021 C 166.155,398.021 166.14,398.066 166.11,398.12 C 166.08,398.173 166.042,398.218 166.027,398.218 C 166.014,398.218 166.027,398.173 166.06,398.12 M 164.442,396.943 C 164.463,396.905 164.494,396.877 164.508,396.877 C 164.521,396.877 164.514,396.905 164.492,396.943 C 164.469,396.978 164.44,397.008 164.425,397.008 C 164.411,397.008 164.42,396.978 164.442,396.943 M 187.236,396.681 C 187.226,396.662 187.241,396.648 187.269,396.648 C 187.3,396.648 187.313,396.662 187.302,396.681 C 187.29,396.698 187.276,396.713 187.269,396.713 C 187.262,396.713 187.248,396.698 187.236,396.681 M 186.844,396.648 C 186.832,396.629 186.846,396.615 186.872,396.615 C 186.9,396.615 186.931,396.629 186.942,396.648 C 186.953,396.664 186.94,396.681 186.913,396.681 C 186.887,396.681 186.855,396.664 186.844,396.648 M 187.63,396.648 C 187.641,396.629 187.672,396.615 187.698,396.615 C 187.727,396.615 187.739,396.629 187.728,396.648 C 187.717,396.664 187.685,396.681 187.658,396.681 C 187.632,396.681 187.618,396.664 187.63,396.648 M 186.606,396.613 C 186.566,396.597 186.533,396.577 186.533,396.566 C 186.533,396.541 186.741,396.586 186.777,396.618 C 186.818,396.656 186.703,396.651 186.606,396.613 M 187.827,396.615 C 187.837,396.596 187.865,396.582 187.888,396.582 C 187.911,396.582 188.014,396.553 188.115,396.52 C 188.218,396.487 188.3,396.471 188.3,396.485 C 188.3,396.512 187.925,396.648 187.851,396.648 C 187.827,396.648 187.815,396.632 187.827,396.615 M 186.345,396.545 C 186.174,396.495 185.733,396.22 185.823,396.22 C 185.831,396.22 185.923,396.274 186.026,396.335 C 186.129,396.397 186.267,396.466 186.333,396.487 C 186.547,396.554 186.557,396.606 186.345,396.545 M 188.416,396.419 C 188.427,396.399 188.45,396.384 188.469,396.384 C 188.487,396.384 188.491,396.399 188.481,396.419 C 188.469,396.436 188.447,396.451 188.429,396.451 C 188.41,396.451 188.404,396.436 188.416,396.419 M 188.628,396.295 C 188.777,396.198 189.08,395.871 189.151,395.731 C 189.19,395.655 189.23,395.601 189.24,395.609 C 189.319,395.691 188.718,396.359 188.574,396.35 C 188.559,396.349 188.583,396.325 188.628,396.295 M 165.089,396.156 C 165.089,396.138 165.105,396.123 165.124,396.123 C 165.143,396.123 165.149,396.138 165.138,396.156 C 165.126,396.174 165.111,396.189 165.103,396.189 C 165.096,396.189 165.089,396.174 165.089,396.156 M 185.605,396.059 C 185.452,395.889 185.315,395.669 185.331,395.621 C 185.337,395.6 185.37,395.64 185.402,395.71 C 185.436,395.778 185.536,395.914 185.625,396.012 C 185.713,396.108 185.773,396.189 185.754,396.189 C 185.736,396.189 185.669,396.131 185.605,396.059 M 165.417,395.869 C 165.417,395.852 165.438,395.818 165.465,395.796 C 165.492,395.773 165.515,395.77 165.515,395.787 C 165.515,395.806 165.492,395.839 165.465,395.861 C 165.438,395.884 165.417,395.888 165.417,395.869 M 165.613,395.702 C 165.613,395.668 165.774,395.555 165.795,395.574 C 165.803,395.582 165.764,395.62 165.71,395.66 C 165.656,395.7 165.613,395.719 165.613,395.702 M 185.256,395.402 C 185.256,395.343 185.27,395.309 185.289,395.321 C 185.305,395.333 185.321,395.378 185.321,395.42 C 185.321,395.465 185.305,395.502 185.289,395.502 C 185.271,395.502 185.256,395.457 185.256,395.402 M 189.255,395.271 C 189.255,395.156 189.267,395.082 189.286,395.094 C 189.326,395.117 189.326,395.426 189.286,395.45 C 189.269,395.461 189.255,395.383 189.255,395.271 M 185.256,395.18 C 185.256,395.091 185.343,394.858 185.425,394.725 C 185.53,394.554 185.526,394.613 185.418,394.828 C 185.366,394.933 185.321,395.061 185.321,395.111 C 185.321,395.161 185.305,395.212 185.289,395.222 C 185.271,395.234 185.256,395.214 185.256,395.18 M 189.172,394.868 C 189.064,394.646 188.867,394.421 188.677,394.301 C 188.501,394.19 188.48,394.132 188.653,394.232 C 188.842,394.343 189.104,394.626 189.202,394.829 C 189.251,394.93 189.284,395.019 189.275,395.029 C 189.267,395.037 189.221,394.965 189.172,394.868 M 185.714,394.407 C 185.714,394.4 185.787,394.332 185.877,394.259 C 186.026,394.133 186.482,393.935 186.524,393.977 C 186.535,393.986 186.522,394.001 186.496,394.01 C 186.176,394.122 186.049,394.184 185.912,394.292 C 185.759,394.414 185.714,394.439 185.714,394.407 M 188.18,394.05 C 188.123,394.029 188.064,393.997 188.05,393.982 C 188.034,393.964 188.047,393.961 188.083,393.973 C 188.116,393.986 188.179,394.004 188.222,394.015 C 188.266,394.026 188.3,394.048 188.3,394.065 C 188.3,394.08 188.297,394.093 188.293,394.092 C 188.288,394.089 188.238,394.07 188.18,394.05 M 186.746,393.93 C 186.757,393.911 186.78,393.897 186.798,393.897 C 186.816,393.897 186.822,393.911 186.811,393.93 C 186.799,393.948 186.777,393.963 186.758,393.963 C 186.74,393.963 186.734,393.948 186.746,393.93 M 187.794,393.93 C 187.782,393.911 187.795,393.897 187.821,393.897 C 187.849,393.897 187.88,393.911 187.892,393.93 C 187.903,393.948 187.89,393.963 187.862,393.963 C 187.835,393.963 187.803,393.948 187.794,393.93 M 186.909,393.897 C 186.921,393.879 186.944,393.864 186.963,393.864 C 186.98,393.864 186.986,393.879 186.975,393.897 C 186.963,393.915 186.94,393.93 186.922,393.93 C 186.903,393.93 186.897,393.915 186.909,393.897 M 187.564,393.897 C 187.552,393.879 187.573,393.864 187.609,393.864 C 187.645,393.864 187.684,393.879 187.695,393.897 C 187.707,393.915 187.687,393.93 187.65,393.93 C 187.613,393.93 187.576,393.915 187.564,393.897 M 187.344,393.858 C 187.375,393.827 187.393,393.827 187.424,393.858 C 187.454,393.889 187.446,393.897 187.383,393.897 C 187.323,393.897 187.315,393.889 187.344,393.858 M 195.11,393.535 C 195.11,393.497 195.125,393.477 195.143,393.488 C 195.162,393.498 195.176,393.529 195.176,393.555 C 195.176,393.581 195.162,393.602 195.143,393.602 C 195.125,393.602 195.11,393.571 195.11,393.535 M 181.983,386.89 C 181.983,386.873 181.997,386.857 182.016,386.857 C 182.033,386.857 182.049,386.873 182.049,386.89 C 182.049,386.909 182.033,386.923 182.016,386.923 C 181.997,386.923 181.983,386.909 181.983,386.89" fill="#0aaca5" stroke-width="0.033"/>
    <path d="M 179.804,418.279 C 179.751,418.262 179.585,418.207 179.436,418.155 C 179.059,418.029 178.716,417.824 178.411,417.539 C 178.097,417.249 177.899,416.979 177.729,416.613 C 177.543,416.213 177.492,415.978 177.473,415.464 C 177.46,415.076 177.466,414.972 177.529,414.71 C 177.607,414.383 177.787,413.965 177.958,413.715 C 178.113,413.487 178.499,413.094 178.708,412.953 C 179.185,412.627 179.778,412.426 180.268,412.426 C 180.429,412.426 180.473,412.437 180.454,412.468 C 180.44,412.49 180.429,413.276 180.426,414.212 C 180.424,415.149 180.42,416.456 180.417,417.118 L 180.411,418.321 L 180.157,418.317 C 180.017,418.315 179.859,418.298 179.804,418.279 M 180.738,418.287 C 180.804,418.246 180.944,418.246 180.918,418.287 C 180.906,418.306 180.851,418.319 180.793,418.319 C 180.714,418.319 180.701,418.311 180.738,418.287 M 182.85,417.01 C 182.862,416.992 182.876,416.978 182.884,416.978 C 182.892,416.978 182.898,416.992 182.898,417.01 C 182.898,417.028 182.884,417.044 182.864,417.044 C 182.845,417.044 182.838,417.028 182.85,417.01 M 182.898,413.801 C 182.898,413.781 182.915,413.775 182.931,413.786 C 182.95,413.798 182.964,413.812 182.964,413.821 C 182.964,413.828 182.95,413.835 182.931,413.835 C 182.915,413.835 182.898,413.82 182.898,413.801 M 182.822,413.715 C 182.811,413.703 182.8,413.678 182.8,413.66 C 182.8,413.639 182.816,413.641 182.84,413.665 C 182.862,413.686 182.871,413.71 182.862,413.72 C 182.852,413.729 182.833,413.727 182.822,413.715 M 182.457,413.278 C 182.368,413.188 182.311,413.114 182.328,413.114 C 182.346,413.114 182.435,413.188 182.523,413.278 C 182.612,413.368 182.668,413.442 182.65,413.442 C 182.634,413.442 182.545,413.368 182.457,413.278 M 182.106,412.989 C 181.932,412.864 181.953,412.83 182.13,412.952 C 182.21,413.008 182.278,413.06 182.278,413.067 C 182.278,413.098 182.223,413.074 182.106,412.989 M 181.262,412.556 C 181.262,412.537 181.277,412.53 181.295,412.541 C 181.312,412.553 181.328,412.569 181.328,412.578 C 181.328,412.585 181.312,412.59 181.295,412.59 C 181.277,412.59 181.262,412.576 181.262,412.556" fill="#ffe040" stroke-width="0.033"/>
    <path d="M 180.425,415.418 C 180.433,413.819 180.441,412.496 180.441,412.481 C 180.444,412.434 181.069,412.476 181.197,412.531 C 181.259,412.56 181.397,412.608 181.503,412.642 C 181.61,412.675 181.729,412.73 181.77,412.76 C 181.81,412.793 181.855,412.821 181.867,412.821 C 181.963,412.821 182.717,413.494 182.812,413.665 C 182.832,413.702 182.903,413.811 182.968,413.906 C 183.099,414.103 183.225,414.406 183.305,414.713 C 183.406,415.111 183.36,415.863 183.205,416.339 C 183.134,416.554 182.951,416.922 182.885,416.975 C 182.857,417 182.833,417.039 182.833,417.064 C 182.833,417.132 182.392,417.583 182.165,417.744 C 182.056,417.821 181.87,417.935 181.752,417.992 C 181.358,418.193 181.194,418.236 180.567,418.309 L 180.41,418.326 L 180.425,415.418" fill="#ffbc40" stroke-width="0.033"/>
    <path d="M 187.842,400.689 C 187.573,400.579 187.346,400.357 187.213,400.074 C 187.152,399.946 187.13,399.816 187.129,399.578 C 187.126,399.303 187.141,399.226 187.231,399.056 C 187.452,398.641 187.772,398.435 188.24,398.408 C 188.519,398.394 188.586,398.403 188.781,398.492 C 189.013,398.599 189.278,398.853 189.398,399.081 C 189.499,399.277 189.519,399.736 189.437,399.983 C 189.287,400.433 188.793,400.788 188.319,400.786 C 188.16,400.786 188.001,400.754 187.842,400.689" stroke-width="0.039" fill="#3e434f"/>
    <path d="M 186.598,396.718 C 186.148,396.618 185.794,396.43 185.511,396.145 C 185.191,395.822 185.105,395.643 185.102,395.295 C 185.101,395.058 185.118,394.99 185.218,394.786 C 185.39,394.434 185.819,394.08 186.246,393.932 C 187.527,393.496 188.915,393.891 189.372,394.822 C 189.503,395.09 189.503,395.511 189.372,395.745 C 189.199,396.055 188.85,396.388 188.553,396.528 C 188.021,396.782 187.226,396.859 186.598,396.718" fill="#26bfa4" stroke-width="0.037"/>
   </g>
   <g id="Group_5" stroke-linejoin="miter">
    <path d="M 179.427,408.466 C 179.391,408.45 179.148,408.436 178.887,408.433 C 178.625,408.432 178.257,408.407 178.067,408.381 C 177.88,408.353 177.614,408.319 177.479,408.304 C 177.07,408.258 176.026,408.031 175.825,407.945 C 175.79,407.93 175.679,407.898 175.58,407.875 C 175.481,407.853 175.378,407.823 175.351,407.809 C 175.324,407.795 175.232,407.765 175.146,407.743 C 175.06,407.722 174.982,407.691 174.972,407.676 C 174.963,407.659 174.924,407.647 174.885,407.647 C 174.847,407.647 174.793,407.627 174.765,407.604 C 174.697,407.547 174.124,407.319 174.048,407.319 C 174.015,407.319 173.975,407.306 173.957,407.289 C 173.934,407.266 173.051,406.819 172.6,406.603 C 172.459,406.535 172.372,406.48 172.296,406.41 C 172.256,406.371 172.171,406.319 172.106,406.292 C 172.042,406.266 171.97,406.221 171.948,406.193 C 171.901,406.136 171.476,405.846 171.441,405.846 C 171.407,405.846 170.92,405.472 170.636,405.23 C 170.285,404.928 169.818,404.464 169.818,404.415 C 169.818,404.392 169.799,404.374 169.774,404.374 C 169.675,404.374 168.915,403.424 168.527,402.817 C 168.4,402.617 168.277,402.426 168.255,402.391 C 168.213,402.327 168.088,402.092 167.952,401.82 C 167.914,401.738 167.845,401.607 167.804,401.526 C 167.349,400.637 166.98,399.081 166.968,398.006 C 166.954,396.626 167.02,396.038 167.298,395.076 C 167.353,394.887 167.404,394.709 167.41,394.682 C 167.509,394.325 167.948,393.341 168.107,393.125 C 168.147,393.069 168.181,393.001 168.181,392.975 C 168.181,392.95 168.198,392.911 168.218,392.892 C 168.259,392.849 168.323,392.744 168.389,392.604 C 168.416,392.549 168.491,392.439 168.554,392.358 C 168.619,392.277 168.672,392.195 168.672,392.177 C 168.672,392.157 168.716,392.099 168.77,392.047 C 168.824,391.995 168.869,391.937 168.869,391.918 C 168.869,391.834 169.765,390.787 169.837,390.787 C 169.878,390.787 170.014,390.647 170.014,390.604 C 170.014,390.587 170.047,390.559 170.087,390.541 C 170.125,390.522 170.181,390.469 170.209,390.422 C 170.238,390.375 170.395,390.215 170.56,390.069 C 170.725,389.92 170.869,389.778 170.879,389.751 C 170.889,389.723 170.899,388.771 170.899,387.637 C 170.899,386.127 170.91,385.538 170.937,385.441 C 170.99,385.27 171.249,384.989 171.455,384.881 L 171.618,384.796 L 173.848,384.796 L 176.078,384.796 L 176.262,384.896 C 176.493,385.023 176.584,385.104 176.611,385.216 C 176.623,385.264 176.666,385.337 176.704,385.379 C 176.773,385.453 176.775,385.487 176.785,386.241 C 176.793,386.874 176.804,387.027 176.84,387.044 C 176.866,387.052 177.112,387.024 177.386,386.976 C 178.037,386.869 178.393,386.834 179.034,386.809 C 179.322,386.798 179.605,386.783 179.663,386.773 L 179.768,386.758 L 179.761,394.968 L 179.756,403.178 L 179.397,403.174 C 178.827,403.165 178.057,403.037 177.412,402.847 C 176.978,402.716 176.834,402.662 176.25,402.413 C 175.861,402.247 175.804,402.231 175.58,402.231 C 174.989,402.23 174.599,402.647 174.638,403.24 C 174.671,403.75 174.907,403.964 175.867,404.354 C 176.982,404.807 178.228,405.066 179.607,405.136 L 179.756,405.144 L 179.758,406.821 L 179.763,408.498 L 179.627,408.497 C 179.553,408.495 179.463,408.482 179.427,408.466 M 183.432,384.805 C 183.455,384.796 183.484,384.798 183.495,384.809 C 183.505,384.819 183.486,384.828 183.452,384.825 C 183.414,384.824 183.406,384.817 183.432,384.805" fill="#59deb0" stroke-width="0.033"/>
    <path d="M 186.795,410.367 C 186.783,410.347 186.692,410.332 186.594,410.332 C 186.417,410.332 186.17,410.288 186.041,410.233 C 186.004,410.219 185.921,410.2 185.856,410.189 C 185.793,410.181 185.639,410.128 185.521,410.072 C 185.401,410.016 185.255,409.961 185.197,409.95 C 185.086,409.928 184.42,409.597 184.245,409.474 C 184.187,409.434 184.077,409.347 183.998,409.278 C 183.919,409.21 183.835,409.153 183.813,409.153 C 183.754,409.153 183.447,408.902 183.028,408.507 C 182.751,408.246 182.654,408.171 182.603,408.187 C 182.436,408.234 181.564,408.372 181.134,408.416 C 180.872,408.444 180.453,408.466 180.206,408.466 L 179.756,408.466 L 179.756,406.805 L 179.756,405.144 L 179.607,405.136 C 178.228,405.066 176.982,404.807 175.867,404.354 C 174.907,403.964 174.671,403.75 174.638,403.24 C 174.611,402.814 174.786,402.498 175.147,402.322 C 175.301,402.247 175.378,402.231 175.58,402.231 C 175.804,402.231 175.861,402.247 176.25,402.413 C 176.834,402.662 176.978,402.716 177.412,402.847 C 178.057,403.037 178.827,403.165 179.397,403.174 L 179.756,403.178 L 179.756,394.986 L 179.756,386.792 L 180.197,386.793 C 180.738,386.795 181.231,386.84 181.297,386.894 C 181.332,386.922 181.356,386.924 181.381,386.899 C 181.402,386.877 181.456,386.868 181.502,386.876 C 181.87,386.939 182.616,387.054 182.647,387.054 C 182.674,387.054 182.685,386.874 182.685,386.39 C 182.685,385.576 182.715,385.428 182.94,385.15 C 183.034,385.034 183.152,384.929 183.242,384.885 L 183.388,384.811 L 185.664,384.811 L 187.94,384.811 L 188.113,384.908 C 188.318,385.021 188.462,385.191 188.548,385.419 C 188.607,385.572 188.611,385.702 188.612,387.684 C 188.613,389.623 188.616,389.793 188.668,389.853 C 188.699,389.89 188.758,389.933 188.798,389.952 C 188.92,390.005 189.732,390.796 190.07,391.189 C 190.436,391.615 190.774,392.059 191.001,392.417 L 191.164,392.669 L 192.449,392.685 C 193.718,392.702 193.736,392.703 193.898,392.78 C 194.139,392.894 194.224,392.964 194.336,393.132 C 194.413,393.248 194.437,393.324 194.437,393.437 C 194.437,393.521 194.453,393.604 194.472,393.622 C 194.494,393.646 194.501,394.684 194.496,396.763 L 194.487,399.873 L 194.398,400.04 C 194.351,400.131 194.242,400.269 194.157,400.342 C 193.915,400.553 193.799,400.576 192.88,400.576 L 192.086,400.576 L 192.047,400.699 C 192.024,400.766 191.989,400.842 191.966,400.87 C 191.944,400.898 191.917,400.97 191.905,401.032 C 191.863,401.251 191.273,402.439 191.13,402.59 C 191.094,402.629 191.066,402.674 191.066,402.693 C 191.066,402.743 190.628,403.37 190.351,403.718 C 189.95,404.22 189.484,404.712 189.037,405.102 L 188.62,405.467 L 188.596,407.482 C 188.583,408.591 188.574,409.552 188.574,409.618 C 188.575,409.685 188.562,409.749 188.543,409.76 C 188.527,409.77 188.513,409.806 188.513,409.839 C 188.513,409.925 188.242,410.214 188.078,410.304 C 187.951,410.373 187.892,410.38 187.379,410.391 C 187,410.398 186.811,410.391 186.795,410.367 M 179.758,405.046 C 179.741,404.978 179.75,403.226 179.768,403.207 C 179.769,403.206 179.936,403.194 180.139,403.182 C 181.223,403.114 182.118,402.898 183.176,402.448 C 183.775,402.195 183.963,402.164 184.258,402.275 C 184.465,402.353 184.68,402.545 184.787,402.746 C 184.849,402.86 184.862,402.935 184.861,403.178 C 184.859,403.437 184.849,403.49 184.771,403.621 C 184.64,403.843 184.497,403.962 184.174,404.123 C 183.316,404.543 182.4,404.826 181.36,404.996 C 180.837,405.081 180.781,405.087 180.242,405.113 L 179.78,405.136 L 179.758,405.046 M 163.767,400.524 C 163.736,400.504 163.674,400.479 163.628,400.467 C 163.464,400.427 163.255,400.231 163.146,400.014 L 163.041,399.806 L 163.045,399.31 C 163.047,398.952 163.061,398.788 163.094,398.723 C 163.12,398.675 163.131,398.606 163.12,398.572 C 163.111,398.538 163.125,398.473 163.155,398.428 C 163.183,398.383 163.199,398.333 163.186,398.315 C 163.168,398.282 163.267,397.933 163.349,397.744 C 163.505,397.385 163.608,397.205 163.735,397.056 C 163.767,397.018 163.828,396.917 163.872,396.831 C 163.917,396.743 164.005,396.611 164.068,396.537 C 164.13,396.462 164.221,396.354 164.27,396.295 C 164.317,396.237 164.378,396.189 164.403,396.189 C 164.429,396.189 164.463,396.156 164.48,396.115 C 164.517,396.014 164.697,395.849 164.738,395.875 C 164.758,395.887 164.798,395.858 164.828,395.813 C 164.859,395.767 164.899,395.731 164.919,395.731 C 164.94,395.731 165.048,395.651 165.158,395.554 C 165.397,395.346 166.082,394.998 166.511,394.865 C 166.828,394.767 167.367,394.651 167.404,394.672 C 167.418,394.681 167.416,394.711 167.398,394.742 C 167.302,394.922 167.064,396.002 167.004,396.53 C 166.97,396.84 166.959,396.858 166.769,396.91 C 166.705,396.927 166.616,396.967 166.573,396.999 C 166.531,397.031 166.453,397.079 166.4,397.107 C 166.247,397.182 165.49,397.953 165.361,398.16 C 165.347,398.183 165.345,398.21 165.352,398.224 C 165.361,398.237 165.353,398.275 165.335,398.308 C 165.209,398.534 165.06,399.148 165.024,399.585 C 165.014,399.716 164.981,399.881 164.953,399.953 C 164.881,400.136 164.509,400.478 164.387,400.478 C 164.335,400.478 164.276,400.499 164.254,400.525 C 164.206,400.583 163.851,400.582 163.767,400.524 M 187.301,400.542 C 187.301,400.529 187.255,400.5 187.2,400.477 C 187.042,400.411 186.831,400.219 186.782,400.098 C 186.757,400.035 186.725,399.986 186.708,399.986 C 186.692,399.986 186.679,399.946 186.679,399.895 C 186.679,399.844 186.665,399.79 186.647,399.771 C 186.594,399.718 186.671,399.305 186.769,399.124 C 186.818,399.035 186.942,398.888 187.044,398.8 L 187.229,398.641 L 187.523,398.622 C 187.755,398.606 187.848,398.613 187.953,398.655 C 188.025,398.685 188.088,398.698 188.088,398.685 C 188.088,398.637 188.424,398.997 188.503,399.13 C 188.615,399.319 188.641,399.675 188.565,399.914 C 188.487,400.143 188.28,400.367 188.038,400.483 C 187.865,400.565 187.808,400.577 187.571,400.57 C 187.422,400.566 187.301,400.553 187.301,400.542 M 166.938,397.626 C 166.938,397.568 166.947,397.53 166.96,397.543 C 166.992,397.575 166.995,397.695 166.965,397.714 C 166.949,397.724 166.938,397.684 166.938,397.626 M 186.563,396.677 C 186.547,396.651 186.481,396.645 186.363,396.657 C 186.267,396.666 186.181,396.663 186.172,396.648 C 186.162,396.632 186.129,396.628 186.097,396.636 C 186.064,396.644 185.995,396.633 185.941,396.611 C 185.888,396.59 185.801,396.567 185.749,396.561 C 185.619,396.544 185.317,396.389 185.198,396.278 C 185.145,396.23 185.088,396.189 185.074,396.189 C 185.038,396.189 184.828,395.95 184.731,395.798 C 184.686,395.725 184.648,395.629 184.648,395.584 C 184.648,395.538 184.635,395.502 184.617,395.502 C 184.563,395.502 184.589,395.099 184.655,394.92 C 184.705,394.788 184.789,394.678 185.023,394.443 C 185.279,394.186 185.36,394.126 185.53,394.065 C 185.641,394.024 185.8,393.984 185.882,393.977 C 185.966,393.968 186.052,393.947 186.076,393.927 C 186.101,393.906 186.135,393.901 186.154,393.912 C 186.172,393.924 186.206,393.922 186.229,393.908 C 186.252,393.893 186.347,393.886 186.443,393.893 C 186.544,393.898 186.635,393.886 186.664,393.863 C 186.7,393.832 186.723,393.832 186.757,393.862 C 186.783,393.883 186.839,393.891 186.888,393.879 C 186.936,393.868 186.993,393.872 187.019,393.893 C 187.044,393.914 187.087,393.922 187.118,393.91 C 187.147,393.898 187.19,393.906 187.215,393.925 C 187.238,393.945 187.301,393.968 187.354,393.975 C 187.498,393.994 187.628,394.032 187.628,394.056 C 187.628,394.076 187.801,394.16 187.861,394.172 C 187.944,394.186 188.246,394.427 188.356,394.564 C 188.501,394.748 188.625,394.992 188.595,395.042 C 188.585,395.058 188.592,395.081 188.611,395.092 C 188.653,395.117 188.653,395.425 188.611,395.452 C 188.592,395.463 188.579,395.514 188.579,395.564 C 188.579,395.758 188.202,396.209 187.938,396.335 C 187.878,396.363 187.818,396.401 187.808,396.419 C 187.796,396.436 187.752,396.451 187.708,396.451 C 187.664,396.451 187.628,396.464 187.628,396.481 C 187.628,396.526 187.212,396.655 187.14,396.632 C 187.106,396.62 187.068,396.626 187.058,396.643 C 187.047,396.661 186.961,396.666 186.858,396.657 C 186.743,396.644 186.664,396.651 186.633,396.677 C 186.598,396.707 186.581,396.707 186.563,396.677 M 169.851,390.765 C 169.851,390.723 169.976,390.606 169.997,390.63 C 170.007,390.638 169.977,390.679 169.932,390.72 C 169.888,390.763 169.851,390.783 169.851,390.765 M 170.08,390.534 C 170.08,390.516 170.109,390.475 170.145,390.443 C 170.181,390.41 170.211,390.398 170.211,390.417 C 170.211,390.435 170.181,390.475 170.145,390.508 C 170.109,390.541 170.08,390.553 170.08,390.534" fill="#26bfa4" stroke-width="0.033"/>
    <path d="M 188.545,409.565 C 188.545,409.539 188.559,409.508 188.579,409.497 C 188.596,409.486 188.611,409.507 188.611,409.544 C 188.611,409.582 188.596,409.611 188.579,409.611 C 188.559,409.611 188.545,409.59 188.545,409.565 M 179.758,405.046 C 179.741,404.978 179.75,403.226 179.768,403.207 C 179.769,403.206 179.936,403.194 180.139,403.182 C 181.223,403.114 182.118,402.898 183.176,402.448 C 183.775,402.195 183.963,402.164 184.258,402.275 C 184.465,402.353 184.68,402.545 184.787,402.746 C 184.849,402.86 184.862,402.935 184.861,403.178 C 184.859,403.437 184.849,403.49 184.771,403.621 C 184.64,403.843 184.497,403.962 184.174,404.123 C 183.316,404.543 182.4,404.826 181.36,404.996 C 180.837,405.081 180.781,405.087 180.242,405.113 L 179.78,405.136 L 179.758,405.046 M 187.301,400.542 C 187.301,400.522 187.315,400.516 187.334,400.526 C 187.352,400.537 187.367,400.553 187.367,400.562 C 187.367,400.569 187.352,400.576 187.334,400.576 C 187.315,400.576 187.301,400.56 187.301,400.542 M 163.696,400.509 C 163.696,400.49 163.71,400.483 163.729,400.493 C 163.747,400.505 163.761,400.52 163.761,400.529 C 163.761,400.537 163.747,400.544 163.729,400.544 C 163.71,400.544 163.696,400.527 163.696,400.509 M 164.285,400.511 C 164.285,400.492 164.3,400.478 164.319,400.478 C 164.339,400.478 164.345,400.492 164.335,400.511 C 164.323,400.529 164.307,400.544 164.299,400.544 C 164.291,400.544 164.285,400.529 164.285,400.511 M 186.831,400.227 C 186.821,400.215 186.81,400.189 186.81,400.171 C 186.81,400.15 186.825,400.152 186.849,400.176 C 186.869,400.197 186.88,400.222 186.87,400.231 C 186.861,400.241 186.844,400.238 186.831,400.227 M 163.113,400.035 C 163.092,399.989 163.087,399.954 163.102,399.954 C 163.116,399.954 163.146,399.989 163.166,400.035 C 163.186,400.081 163.191,400.117 163.177,400.117 C 163.162,400.117 163.132,400.081 163.113,400.035 M 186.679,399.952 C 186.679,399.933 186.693,399.927 186.711,399.937 C 186.73,399.948 186.744,399.963 186.744,399.972 C 186.744,399.979 186.73,399.986 186.711,399.986 C 186.693,399.986 186.679,399.97 186.679,399.952 M 186.638,399.77 C 186.625,399.757 186.614,399.725 186.614,399.697 C 186.614,399.659 186.623,399.655 186.649,399.683 C 186.67,399.701 186.68,399.737 186.673,399.757 C 186.667,399.777 186.651,399.783 186.638,399.77 M 163.008,399.152 C 163.008,399.124 163.024,399.103 163.041,399.103 C 163.059,399.103 163.074,399.124 163.074,399.152 C 163.074,399.179 163.059,399.2 163.041,399.2 C 163.024,399.2 163.008,399.179 163.008,399.152 M 188.088,398.707 C 188.088,398.688 188.101,398.682 188.12,398.693 C 188.137,398.704 188.152,398.72 188.152,398.728 C 188.152,398.735 188.137,398.742 188.12,398.742 C 188.101,398.742 188.088,398.728 188.088,398.707 M 187.186,398.676 C 187.198,398.659 187.222,398.644 187.239,398.644 C 187.257,398.644 187.263,398.659 187.252,398.676 C 187.241,398.695 187.217,398.709 187.198,398.709 C 187.18,398.709 187.176,398.695 187.186,398.676 M 163.09,398.644 C 163.102,398.626 163.117,398.611 163.125,398.611 C 163.132,398.611 163.139,398.626 163.139,398.644 C 163.139,398.662 163.124,398.676 163.104,398.676 C 163.086,398.676 163.079,398.662 163.09,398.644 M 163.156,398.349 C 163.168,398.331 163.183,398.317 163.19,398.317 C 163.198,398.317 163.204,398.331 163.204,398.349 C 163.204,398.368 163.189,398.382 163.171,398.382 C 163.151,398.382 163.145,398.368 163.156,398.349 M 165.387,398.12 C 165.419,398.067 165.457,398.021 165.469,398.021 C 165.483,398.021 165.467,398.066 165.438,398.12 C 165.407,398.173 165.369,398.218 165.354,398.218 C 165.341,398.218 165.354,398.173 165.387,398.12 M 163.769,396.943 C 163.791,396.905 163.821,396.877 163.835,396.877 C 163.848,396.877 163.841,396.905 163.819,396.943 C 163.797,396.978 163.767,397.008 163.753,397.008 C 163.739,397.008 163.747,396.978 163.769,396.943 M 186.563,396.681 C 186.554,396.662 186.568,396.648 186.596,396.648 C 186.627,396.648 186.64,396.662 186.629,396.681 C 186.618,396.698 186.603,396.713 186.596,396.713 C 186.589,396.713 186.575,396.698 186.563,396.681 M 186.172,396.648 C 186.16,396.629 186.174,396.615 186.2,396.615 C 186.227,396.615 186.259,396.629 186.269,396.648 C 186.28,396.664 186.267,396.681 186.24,396.681 C 186.214,396.681 186.182,396.664 186.172,396.648 M 186.957,396.648 C 186.968,396.629 187,396.615 187.026,396.615 C 187.054,396.615 187.066,396.629 187.055,396.648 C 187.045,396.664 187.013,396.681 186.986,396.681 C 186.96,396.681 186.946,396.664 186.957,396.648 M 185.933,396.613 C 185.893,396.597 185.86,396.577 185.86,396.566 C 185.86,396.541 186.069,396.586 186.104,396.618 C 186.146,396.656 186.03,396.651 185.933,396.613 M 187.154,396.615 C 187.164,396.596 187.192,396.582 187.216,396.582 C 187.238,396.582 187.341,396.553 187.442,396.52 C 187.545,396.487 187.628,396.471 187.628,396.485 C 187.628,396.512 187.252,396.648 187.178,396.648 C 187.154,396.648 187.143,396.632 187.154,396.615 M 185.672,396.545 C 185.501,396.495 185.06,396.22 185.151,396.22 C 185.158,396.22 185.25,396.274 185.354,396.335 C 185.456,396.397 185.595,396.466 185.661,396.487 C 185.874,396.554 185.885,396.606 185.672,396.545 M 187.743,396.419 C 187.754,396.399 187.778,396.384 187.796,396.384 C 187.814,396.384 187.819,396.399 187.808,396.419 C 187.796,396.436 187.774,396.451 187.756,396.451 C 187.737,396.451 187.731,396.436 187.743,396.419 M 187.956,396.295 C 188.104,396.198 188.408,395.871 188.478,395.731 C 188.517,395.655 188.557,395.601 188.567,395.609 C 188.646,395.691 188.045,396.359 187.901,396.35 C 187.886,396.349 187.911,396.325 187.956,396.295 M 164.416,396.156 C 164.416,396.138 164.433,396.123 164.451,396.123 C 164.47,396.123 164.476,396.138 164.466,396.156 C 164.454,396.174 164.438,396.189 164.43,396.189 C 164.423,396.189 164.416,396.174 164.416,396.156 M 184.933,396.059 C 184.779,395.889 184.642,395.669 184.659,395.621 C 184.665,395.6 184.698,395.64 184.73,395.71 C 184.764,395.778 184.863,395.914 184.953,396.012 C 185.04,396.108 185.1,396.189 185.081,396.189 C 185.064,396.189 184.996,396.131 184.933,396.059 M 164.744,395.869 C 164.744,395.852 164.765,395.818 164.792,395.796 C 164.82,395.773 164.842,395.77 164.842,395.787 C 164.842,395.806 164.82,395.839 164.792,395.861 C 164.765,395.884 164.744,395.888 164.744,395.869 M 164.94,395.702 C 164.94,395.668 165.102,395.555 165.123,395.574 C 165.13,395.582 165.091,395.62 165.038,395.66 C 164.984,395.7 164.94,395.719 164.94,395.702 M 184.583,395.402 C 184.583,395.343 184.597,395.309 184.616,395.321 C 184.633,395.333 184.648,395.378 184.648,395.42 C 184.648,395.465 184.633,395.502 184.616,395.502 C 184.599,395.502 184.583,395.457 184.583,395.402 M 188.582,395.271 C 188.582,395.156 188.594,395.082 188.613,395.094 C 188.653,395.117 188.653,395.426 188.613,395.45 C 188.596,395.461 188.582,395.383 188.582,395.271 M 184.583,395.18 C 184.583,395.091 184.671,394.858 184.752,394.725 C 184.857,394.554 184.853,394.613 184.745,394.828 C 184.693,394.933 184.648,395.061 184.648,395.111 C 184.648,395.161 184.633,395.212 184.616,395.222 C 184.599,395.234 184.583,395.214 184.583,395.18 M 188.5,394.868 C 188.391,394.646 188.194,394.421 188.004,394.301 C 187.828,394.19 187.807,394.132 187.98,394.232 C 188.169,394.343 188.431,394.626 188.529,394.829 C 188.579,394.93 188.612,395.019 188.602,395.029 C 188.594,395.037 188.548,394.965 188.5,394.868 M 185.041,394.407 C 185.041,394.4 185.114,394.332 185.204,394.259 C 185.354,394.133 185.809,393.935 185.852,393.977 C 185.862,393.986 185.849,394.001 185.823,394.01 C 185.504,394.122 185.376,394.184 185.239,394.292 C 185.086,394.414 185.041,394.439 185.041,394.407 M 187.507,394.05 C 187.451,394.029 187.392,393.997 187.377,393.982 C 187.361,393.964 187.374,393.961 187.411,393.973 C 187.444,393.986 187.506,394.004 187.55,394.015 C 187.593,394.026 187.628,394.048 187.628,394.065 C 187.628,394.08 187.624,394.093 187.621,394.092 C 187.616,394.089 187.565,394.07 187.507,394.05 M 186.074,393.93 C 186.084,393.911 186.108,393.897 186.126,393.897 C 186.143,393.897 186.149,393.911 186.139,393.93 C 186.127,393.948 186.104,393.963 186.085,393.963 C 186.068,393.963 186.062,393.948 186.074,393.93 M 187.121,393.93 C 187.11,393.911 187.123,393.897 187.149,393.897 C 187.177,393.897 187.208,393.911 187.219,393.93 C 187.23,393.948 187.217,393.963 187.19,393.963 C 187.163,393.963 187.131,393.948 187.121,393.93 M 186.236,393.897 C 186.248,393.879 186.272,393.864 186.291,393.864 C 186.307,393.864 186.313,393.879 186.303,393.897 C 186.291,393.915 186.267,393.93 186.249,393.93 C 186.231,393.93 186.225,393.915 186.236,393.897 M 186.891,393.897 C 186.88,393.879 186.901,393.864 186.936,393.864 C 186.973,393.864 187.012,393.879 187.022,393.897 C 187.034,393.915 187.014,393.93 186.977,393.93 C 186.941,393.93 186.903,393.915 186.891,393.897 M 186.672,393.858 C 186.703,393.827 186.72,393.827 186.751,393.858 C 186.782,393.889 186.773,393.897 186.711,393.897 C 186.651,393.897 186.642,393.889 186.672,393.858 M 194.437,393.535 C 194.437,393.497 194.453,393.477 194.47,393.488 C 194.489,393.498 194.503,393.529 194.503,393.555 C 194.503,393.581 194.489,393.602 194.47,393.602 C 194.453,393.602 194.437,393.571 194.437,393.535 M 181.31,386.89 C 181.31,386.873 181.324,386.857 181.343,386.857 C 181.361,386.857 181.376,386.873 181.376,386.89 C 181.376,386.909 181.361,386.923 181.343,386.923 C 181.324,386.923 181.31,386.909 181.31,386.89" fill="#0aaca5" stroke-width="0.033"/>
    <path d="M 179.132,418.279 C 179.079,418.262 178.912,418.207 178.764,418.155 C 178.386,418.029 178.044,417.824 177.738,417.539 C 177.424,417.249 177.226,416.979 177.056,416.613 C 176.871,416.213 176.819,415.978 176.8,415.464 C 176.787,415.076 176.793,414.972 176.857,414.71 C 176.935,414.383 177.114,413.965 177.285,413.715 C 177.441,413.487 177.827,413.094 178.035,412.953 C 178.512,412.627 179.106,412.426 179.595,412.426 C 179.756,412.426 179.801,412.437 179.782,412.468 C 179.768,412.49 179.756,413.276 179.754,414.212 C 179.751,415.149 179.748,416.456 179.744,417.118 L 179.738,418.321 L 179.485,418.317 C 179.344,418.315 179.186,418.298 179.132,418.279 M 180.065,418.287 C 180.131,418.246 180.272,418.246 180.246,418.287 C 180.234,418.306 180.178,418.319 180.121,418.319 C 180.041,418.319 180.029,418.311 180.065,418.287 M 182.177,417.01 C 182.189,416.992 182.203,416.978 182.211,416.978 C 182.22,416.978 182.226,416.992 182.226,417.01 C 182.226,417.028 182.211,417.044 182.191,417.044 C 182.173,417.044 182.165,417.028 182.177,417.01 M 182.226,413.801 C 182.226,413.781 182.242,413.775 182.259,413.786 C 182.278,413.798 182.292,413.812 182.292,413.821 C 182.292,413.828 182.278,413.835 182.259,413.835 C 182.242,413.835 182.226,413.82 182.226,413.801 M 182.149,413.715 C 182.138,413.703 182.128,413.678 182.128,413.66 C 182.128,413.639 182.143,413.641 182.168,413.665 C 182.189,413.686 182.199,413.71 182.189,413.72 C 182.18,413.729 182.161,413.727 182.149,413.715 M 181.784,413.278 C 181.696,413.188 181.638,413.114 181.656,413.114 C 181.673,413.114 181.762,413.188 181.85,413.278 C 181.939,413.368 181.996,413.442 181.978,413.442 C 181.961,413.442 181.873,413.368 181.784,413.278 M 181.434,412.989 C 181.259,412.864 181.28,412.83 181.457,412.952 C 181.538,413.008 181.605,413.06 181.605,413.067 C 181.605,413.098 181.551,413.074 181.434,412.989 M 180.589,412.556 C 180.589,412.537 180.604,412.53 180.622,412.541 C 180.64,412.553 180.655,412.569 180.655,412.578 C 180.655,412.585 180.64,412.59 180.622,412.59 C 180.604,412.59 180.589,412.576 180.589,412.556" fill="#ffe040" stroke-width="0.033"/>
    <path d="M 179.752,415.418 C 179.761,413.819 179.769,412.496 179.769,412.481 C 179.771,412.434 180.397,412.476 180.524,412.531 C 180.587,412.56 180.725,412.608 180.831,412.642 C 180.937,412.675 181.056,412.73 181.098,412.76 C 181.138,412.793 181.183,412.821 181.194,412.821 C 181.29,412.821 182.044,413.494 182.14,413.665 C 182.16,413.702 182.23,413.811 182.295,413.906 C 182.426,414.103 182.553,414.406 182.633,414.713 C 182.733,415.111 182.687,415.863 182.532,416.339 C 182.462,416.554 182.279,416.922 182.213,416.975 C 182.184,417 182.161,417.039 182.161,417.064 C 182.161,417.132 181.719,417.583 181.493,417.744 C 181.383,417.821 181.198,417.935 181.08,417.992 C 180.686,418.193 180.522,418.236 179.894,418.309 L 179.737,418.326 L 179.752,415.418" fill="#ffbc40" stroke-width="0.033"/>
    <path d="M 187.17,400.689 C 186.901,400.579 186.673,400.357 186.541,400.074 C 186.48,399.946 186.457,399.816 186.456,399.578 C 186.454,399.303 186.469,399.226 186.559,399.056 C 186.779,398.641 187.099,398.435 187.567,398.408 C 187.846,398.394 187.913,398.403 188.108,398.492 C 188.34,398.599 188.606,398.853 188.725,399.081 C 188.827,399.277 188.847,399.736 188.764,399.983 C 188.614,400.433 188.121,400.788 187.647,400.786 C 187.487,400.786 187.328,400.754 187.17,400.689" stroke-width="0.039" fill="#3e434f"/>
    <path d="M 185.925,396.718 C 185.475,396.618 185.121,396.43 184.838,396.145 C 184.518,395.822 184.432,395.643 184.43,395.295 C 184.429,395.058 184.445,394.99 184.546,394.786 C 184.718,394.434 185.146,394.08 185.573,393.932 C 186.855,393.496 188.242,393.891 188.699,394.822 C 188.83,395.09 188.83,395.511 188.699,395.745 C 188.527,396.055 188.178,396.388 187.88,396.528 C 187.348,396.782 186.554,396.859 185.925,396.718" fill="#26bfa4" stroke-width="0.037"/>
   </g>
  </g>
 </g>
</svg>
