<?xml version="1.0" standalone="no"?>
<!DOCTYPE svg PUBLIC "-//W3C//DTD SVG 1.1//EN" "http://www.w3.org/Graphics/SVG/1.1/DTD/svg11.dtd">
<!--Generator: Xara Designer (www.xara.com), SVG filter version: 6.7.0.0-->
<svg fill="none" fill-rule="evenodd" stroke="black" stroke-width="0.501" stroke-linejoin="bevel" stroke-miterlimit="10" font-family="Times New Roman" font-size="16" style="font-variant-ligatures:none" xmlns:xlink="http://www.w3.org/1999/xlink" xmlns="http://www.w3.org/2000/svg" version="1.1" overflow="visible" width="206.029pt" height="47.929pt" viewBox="266.421 -352.002 206.029 47.929">
 <defs>
	</defs>
 <g id="Layer 1" transform="scale(1 -1)">
  <g id="Group" stroke="none">
   <rect x="266.422" y="304.074" width="206.028" height="47.929" rx="6.11" ry="6.11" fill="#3f3d37" stroke-width="0.992" stroke-linejoin="miter" stroke-linecap="round"/>
   <g id="Group_1" fill="#c7e0da" font-weight="bold" font-family="" stroke-linejoin="round" stroke-linecap="round" stroke-width="0.345">
    <g id="Group_2" fill-rule="nonzero">
     <g id="Group_3">
      <path d="M 329.948,318.468 C 330.796,318.469 331.61,318.588 332.39,318.823 C 333.171,319.059 333.869,319.402 334.485,319.855 C 335.101,320.307 335.586,320.859 335.941,321.512 C 336.296,322.164 336.471,322.907 336.466,323.742 C 336.455,324.433 336.312,325.028 336.038,325.527 C 335.763,326.026 335.386,326.466 334.905,326.846 C 334.424,327.225 333.87,327.581 333.241,327.912 C 332.611,328.244 331.937,328.587 331.217,328.942 C 330.353,329.373 329.624,329.769 329.029,330.129 C 328.434,330.489 327.982,330.864 327.675,331.254 C 327.367,331.645 327.213,332.101 327.211,332.624 C 327.212,333.042 327.307,333.411 327.496,333.731 C 327.685,334.051 327.962,334.303 328.328,334.485 C 328.694,334.667 329.143,334.76 329.674,334.763 C 330.159,334.758 330.607,334.67 331.019,334.499 C 331.43,334.328 331.806,334.104 332.147,333.827 C 332.487,333.55 332.793,333.25 333.064,332.926 C 333.336,332.603 333.574,332.286 333.779,331.977 C 334.01,331.617 334.214,331.353 334.392,331.184 C 334.57,331.014 334.755,330.93 334.949,330.932 C 335.206,330.935 335.381,331.034 335.474,331.227 C 335.567,331.421 335.599,331.687 335.571,332.027 C 335.519,332.575 335.448,333.101 335.359,333.603 C 335.27,334.105 335.175,334.575 335.073,335.012 C 334.999,335.365 334.918,335.637 334.828,335.829 C 334.739,336.021 334.636,336.154 334.522,336.227 C 334.408,336.299 334.276,336.334 334.128,336.331 C 333.967,336.326 333.83,336.296 333.716,336.24 C 333.602,336.184 333.481,336.128 333.354,336.072 C 333.226,336.016 333.061,335.986 332.859,335.982 C 332.667,335.986 332.429,336.016 332.147,336.072 C 331.864,336.128 331.545,336.184 331.191,336.24 C 330.836,336.296 330.455,336.326 330.048,336.331 C 329.123,336.326 328.282,336.195 327.522,335.938 C 326.763,335.682 326.108,335.326 325.557,334.872 C 325.006,334.418 324.581,333.893 324.282,333.297 C 323.983,332.701 323.832,332.062 323.828,331.38 C 323.832,330.652 323.962,330.027 324.216,329.506 C 324.471,328.984 324.823,328.53 325.274,328.142 C 325.725,327.755 326.247,327.398 326.84,327.073 C 327.434,326.748 328.071,326.417 328.754,326.081 C 329.282,325.816 329.793,325.553 330.288,325.291 C 330.783,325.031 331.227,324.757 331.621,324.47 C 332.015,324.183 332.326,323.869 332.553,323.527 C 332.78,323.185 332.891,322.8 332.884,322.374 C 332.869,321.977 332.768,321.606 332.581,321.261 C 332.393,320.915 332.106,320.634 331.719,320.418 C 331.332,320.203 330.833,320.091 330.222,320.085 C 329.52,320.092 328.898,320.204 328.356,320.421 C 327.813,320.639 327.34,320.921 326.938,321.267 C 326.535,321.613 326.193,321.981 325.911,322.373 C 325.63,322.765 325.4,323.138 325.221,323.493 C 325.075,323.741 324.947,323.942 324.838,324.096 C 324.728,324.25 324.619,324.362 324.51,324.433 C 324.4,324.504 324.273,324.539 324.126,324.538 C 323.894,324.534 323.737,324.436 323.654,324.243 C 323.571,324.049 323.538,323.783 323.554,323.443 C 323.606,322.801 323.677,322.183 323.766,321.59 C 323.855,320.997 323.95,320.404 324.052,319.811 C 324.138,319.286 324.258,318.925 324.413,318.726 C 324.567,318.527 324.762,318.433 324.997,318.443 C 325.157,318.449 325.291,318.49 325.4,318.566 C 325.509,318.641 325.63,318.717 325.764,318.793 C 325.898,318.869 326.082,318.91 326.316,318.916 C 326.538,318.91 326.813,318.871 327.141,318.8 C 327.47,318.728 327.865,318.656 328.326,318.584 C 328.788,318.512 329.328,318.473 329.948,318.468 Z" marker-start="none" marker-end="none"/>
      <path d="M 345.624,330.882 C 344.937,330.877 344.329,330.774 343.799,330.574 C 343.27,330.375 342.811,330.11 342.423,329.78 C 342.034,329.451 341.708,329.088 341.444,328.693 L 341.444,330.136 C 341.446,330.395 341.399,330.585 341.304,330.705 C 341.209,330.824 341.057,330.884 340.847,330.882 C 340.749,330.881 340.592,330.854 340.376,330.802 C 340.159,330.749 339.911,330.68 339.631,330.593 C 339.351,330.506 339.067,330.41 338.78,330.305 C 338.491,330.2 338.227,330.094 337.986,329.987 C 337.692,329.856 337.484,329.731 337.364,329.61 C 337.244,329.489 337.186,329.333 337.19,329.141 C 337.196,328.971 337.247,328.832 337.342,328.724 C 337.438,328.616 337.545,328.515 337.663,328.419 C 337.913,328.248 338.103,328.043 338.235,327.803 C 338.367,327.564 338.433,327.272 338.434,326.926 L 338.434,317.174 C 338.431,316.717 338.389,316.358 338.307,316.096 C 338.226,315.834 338.125,315.632 338.005,315.492 C 337.885,315.351 337.764,315.235 337.644,315.143 C 337.524,315.051 337.423,314.947 337.342,314.831 C 337.26,314.715 337.218,314.551 337.215,314.338 C 337.218,314.105 337.318,313.943 337.517,313.85 C 337.715,313.757 337.996,313.713 338.359,313.716 L 341.917,313.716 C 342.256,313.711 342.523,313.752 342.716,313.84 C 342.909,313.928 343.008,314.094 343.012,314.338 C 343.009,314.551 342.966,314.715 342.885,314.831 C 342.804,314.947 342.703,315.051 342.582,315.143 C 342.462,315.235 342.342,315.351 342.222,315.492 C 342.101,315.632 342.001,315.834 341.919,316.096 C 341.838,316.358 341.796,316.717 341.793,317.174 L 341.793,319.463 C 342.232,319.181 342.74,318.943 343.316,318.748 C 343.893,318.553 344.513,318.451 345.176,318.443 C 345.837,318.443 346.491,318.583 347.137,318.862 C 347.783,319.141 348.373,319.558 348.905,320.113 C 349.437,320.668 349.863,321.361 350.183,322.19 C 350.502,323.019 350.666,323.984 350.674,325.085 C 350.67,325.989 350.538,326.799 350.28,327.513 C 350.022,328.228 349.663,328.836 349.203,329.337 C 348.743,329.838 348.208,330.22 347.599,330.484 C 346.989,330.747 346.331,330.88 345.624,330.882 Z M 344.952,319.985 C 344.569,319.986 344.193,320.073 343.826,320.245 C 343.458,320.417 343.125,320.669 342.825,320.999 C 342.525,321.33 342.285,321.734 342.104,322.21 C 341.924,322.687 341.828,323.231 341.817,323.842 L 341.793,325.459 L 341.793,325.533 C 341.795,326.138 341.903,326.689 342.115,327.187 C 342.327,327.685 342.626,328.083 343.013,328.382 C 343.399,328.681 343.855,328.835 344.38,328.842 C 344.989,328.834 345.521,328.608 345.974,328.165 C 346.428,327.722 346.78,327.115 347.032,326.343 C 347.283,325.571 347.411,324.688 347.415,323.692 C 347.416,323.239 347.371,322.796 347.279,322.361 C 347.187,321.926 347.043,321.531 346.846,321.176 C 346.649,320.822 346.395,320.537 346.082,320.323 C 345.769,320.109 345.393,319.997 344.952,319.985 Z" marker-start="none" marker-end="none"/>
      <path d="M 362.415,322.498 C 362.116,322.204 361.782,321.933 361.412,321.685 C 361.043,321.438 360.638,321.239 360.2,321.088 C 359.761,320.938 359.288,320.86 358.783,320.856 C 358.145,320.863 357.591,320.974 357.119,321.189 C 356.647,321.404 356.252,321.682 355.935,322.024 C 355.618,322.366 355.373,322.732 355.2,323.12 C 356.056,323.432 356.868,323.734 357.637,324.028 C 358.406,324.321 359.173,324.625 359.936,324.941 C 360.7,325.256 361.501,325.603 362.34,325.981 C 362.576,326.094 362.739,326.234 362.832,326.401 C 362.924,326.567 362.951,326.751 362.912,326.951 C 362.796,327.674 362.529,328.33 362.112,328.921 C 361.695,329.512 361.131,329.985 360.421,330.339 C 359.711,330.692 358.858,330.873 357.862,330.882 C 356.985,330.878 356.16,330.714 355.386,330.391 C 354.612,330.068 353.928,329.612 353.334,329.023 C 352.74,328.433 352.274,327.738 351.935,326.936 C 351.597,326.134 351.425,325.252 351.419,324.289 C 351.426,323.144 351.676,322.134 352.169,321.259 C 352.661,320.383 353.349,319.698 354.234,319.201 C 355.119,318.705 356.154,318.452 357.34,318.443 C 358.168,318.45 358.915,318.564 359.583,318.784 C 360.25,319.004 360.833,319.288 361.33,319.637 C 361.826,319.986 362.233,320.358 362.549,320.752 C 362.865,321.146 363.086,321.521 363.211,321.876 C 363.289,322.12 363.294,322.318 363.226,322.469 C 363.158,322.62 363.049,322.703 362.898,322.718 C 362.747,322.734 362.586,322.661 362.415,322.498 Z M 356.767,329.24 C 357.171,329.311 357.561,329.269 357.937,329.112 C 358.313,328.955 358.642,328.707 358.924,328.365 C 359.206,328.023 359.407,327.61 359.529,327.126 C 359.585,326.913 359.592,326.744 359.552,326.618 C 359.512,326.492 359.438,326.391 359.332,326.315 C 359.225,326.239 359.1,326.169 358.957,326.106 C 358.284,325.821 357.596,325.55 356.892,325.294 C 356.188,325.037 355.475,324.785 354.752,324.538 C 354.689,324.754 354.641,325 354.606,325.275 C 354.571,325.55 354.554,325.827 354.553,326.106 C 354.554,326.642 354.638,327.136 354.807,327.587 C 354.975,328.038 355.224,328.411 355.552,328.704 C 355.881,328.998 356.286,329.176 356.767,329.24 Z" marker-start="none" marker-end="none"/>
      <path d="M 376.523,325.757 C 376.315,326.854 376.036,327.784 375.685,328.545 C 375.334,329.307 374.861,329.886 374.267,330.283 C 373.673,330.68 372.907,330.88 371.97,330.882 C 371.436,330.882 370.92,330.797 370.421,330.627 C 369.922,330.457 369.459,330.204 369.032,329.869 C 368.605,329.533 368.233,329.116 367.915,328.618 L 367.915,330.111 C 367.916,330.36 367.869,330.546 367.775,330.671 C 367.68,330.795 367.527,330.857 367.317,330.857 C 367.213,330.85 367.052,330.82 366.832,330.766 C 366.613,330.713 366.363,330.642 366.083,330.556 C 365.803,330.469 365.521,330.373 365.236,330.266 C 364.951,330.16 364.691,330.05 364.456,329.937 C 364.162,329.807 363.955,329.681 363.834,329.561 C 363.714,329.44 363.656,329.283 363.66,329.091 C 363.664,328.92 363.712,328.782 363.803,328.677 C 363.895,328.572 364.004,328.478 364.133,328.394 C 364.383,328.211 364.574,327.999 364.705,327.757 C 364.837,327.515 364.903,327.221 364.904,326.877 L 364.904,322.15 C 364.901,321.693 364.858,321.334 364.775,321.072 C 364.692,320.809 364.589,320.608 364.466,320.469 C 364.344,320.329 364.221,320.214 364.098,320.124 C 363.975,320.034 363.873,319.933 363.79,319.82 C 363.707,319.707 363.664,319.547 363.66,319.339 C 363.664,319.094 363.768,318.924 363.971,318.829 C 364.174,318.733 364.452,318.688 364.805,318.692 L 368.362,318.692 C 368.713,318.687 368.982,318.728 369.171,318.816 C 369.36,318.904 369.455,319.07 369.457,319.314 C 369.454,319.527 369.412,319.691 369.333,319.807 C 369.253,319.923 369.154,320.026 369.037,320.118 C 368.919,320.21 368.801,320.327 368.683,320.467 C 368.565,320.608 368.467,320.809 368.387,321.071 C 368.307,321.334 368.266,321.693 368.263,322.15 L 368.263,325.334 C 368.269,326.065 368.389,326.682 368.621,327.185 C 368.854,327.687 369.159,328.068 369.538,328.327 C 369.917,328.586 370.329,328.716 370.776,328.718 C 371.317,328.716 371.747,328.57 372.065,328.277 C 372.383,327.985 372.626,327.604 372.795,327.135 C 372.964,326.666 373.096,326.165 373.189,325.633 L 373.96,321.702 C 374.033,321.305 374.028,320.993 373.945,320.766 C 373.861,320.54 373.745,320.358 373.596,320.222 C 373.447,320.086 373.311,319.954 373.187,319.827 C 373.063,319.7 372.997,319.537 372.99,319.339 C 372.993,319.094 373.092,318.924 373.288,318.829 C 373.484,318.733 373.758,318.688 374.109,318.692 L 377.592,318.692 C 377.932,318.687 378.198,318.728 378.392,318.816 C 378.585,318.904 378.683,319.07 378.687,319.314 C 378.682,319.524 378.629,319.69 378.526,319.81 C 378.424,319.93 378.298,320.049 378.149,320.166 C 378,320.283 377.854,320.442 377.711,320.643 C 377.568,320.844 377.454,321.131 377.368,321.503 L 376.523,325.757 Z" marker-start="none" marker-end="none"/>
      <path d="M 390.527,335.609 C 390.528,335.869 390.483,336.058 390.39,336.178 C 390.298,336.298 390.153,336.357 389.955,336.355 C 389.85,336.354 389.675,336.32 389.429,336.254 C 389.183,336.189 388.9,336.102 388.581,335.995 C 388.261,335.887 387.938,335.769 387.611,335.642 C 387.284,335.514 386.988,335.387 386.721,335.261 C 386.428,335.129 386.224,335.007 386.111,334.894 C 385.998,334.781 385.944,334.646 385.95,334.49 C 385.956,334.31 386.017,334.165 386.132,334.055 C 386.248,333.944 386.382,333.825 386.534,333.697 C 386.687,333.568 386.821,333.388 386.936,333.156 C 387.052,332.925 387.113,332.598 387.119,332.176 L 387.119,330.235 C 386.768,330.436 386.369,330.594 385.922,330.708 C 385.474,330.822 384.994,330.88 384.482,330.882 C 383.744,330.88 383.007,330.723 382.27,330.411 C 381.534,330.099 380.858,329.645 380.243,329.05 C 379.628,328.456 379.134,327.733 378.762,326.883 C 378.389,326.033 378.198,325.069 378.188,323.991 C 378.195,322.913 378.409,321.964 378.831,321.144 C 379.252,320.323 379.835,319.678 380.58,319.209 C 381.324,318.739 382.185,318.492 383.163,318.468 C 383.809,318.448 384.386,318.524 384.894,318.696 C 385.401,318.869 385.846,319.109 386.226,319.417 C 386.607,319.725 386.929,320.072 387.194,320.458 L 387.218,319.961 C 387.251,319.442 387.347,319.067 387.508,318.835 C 387.668,318.603 387.92,318.489 388.263,318.493 C 388.504,318.496 388.799,318.544 389.148,318.635 C 389.497,318.727 389.847,318.839 390.198,318.972 C 390.55,319.105 390.85,319.235 391.1,319.363 C 391.384,319.522 391.592,319.672 391.725,319.814 C 391.857,319.957 391.922,320.114 391.921,320.284 C 391.913,320.456 391.837,320.584 391.691,320.667 C 391.546,320.752 391.378,320.845 391.187,320.946 C 390.996,321.048 390.827,321.211 390.682,321.435 C 390.537,321.659 390.46,321.997 390.453,322.448 L 390.502,332.201 L 390.527,335.609 Z M 384.631,320.607 C 384.051,320.611 383.517,320.808 383.03,321.198 C 382.542,321.588 382.151,322.148 381.854,322.878 C 381.558,323.608 381.405,324.485 381.397,325.508 C 381.399,326.284 381.505,326.956 381.718,327.524 C 381.929,328.092 382.236,328.531 382.635,328.842 C 383.035,329.153 383.518,329.311 384.084,329.315 C 384.634,329.315 385.12,329.172 385.542,328.886 C 385.965,328.6 386.308,328.17 386.572,327.598 C 386.744,327.243 386.872,326.827 386.957,326.351 C 387.042,325.875 387.096,325.378 387.119,324.862 L 387.119,323.369 C 387.069,322.857 386.942,322.394 386.739,321.978 C 386.536,321.563 386.259,321.232 385.906,320.986 C 385.554,320.739 385.129,320.613 384.631,320.607 Z" marker-start="none" marker-end="none"/>
      <path d="M 418.018,336.107 C 417.689,336.112 417.421,336.07 417.216,335.979 C 417.011,335.888 416.905,335.715 416.899,335.46 C 416.908,335.245 416.976,335.079 417.102,334.962 C 417.229,334.845 417.361,334.721 417.499,334.592 C 417.637,334.463 417.727,334.273 417.77,334.022 C 417.813,333.771 417.754,333.405 417.596,332.922 L 414.187,322.697 L 410.953,332.872 C 410.819,333.325 410.778,333.675 410.832,333.924 C 410.886,334.173 410.983,334.369 411.124,334.511 C 411.265,334.654 411.398,334.792 411.523,334.926 C 411.649,335.06 411.716,335.238 411.724,335.46 C 411.72,335.704 411.616,335.874 411.413,335.97 C 411.21,336.065 410.932,336.111 410.58,336.107 L 406.599,336.107 C 406.213,336.113 405.922,336.069 405.725,335.976 C 405.529,335.883 405.43,335.702 405.43,335.435 C 405.434,335.22 405.497,335.051 405.619,334.929 C 405.74,334.807 405.894,334.68 406.08,334.546 C 406.266,334.411 406.459,334.218 406.658,333.965 C 406.857,333.713 407.036,333.349 407.196,332.872 L 407.495,331.902 L 404.261,322.598 L 400.852,332.872 C 400.712,333.325 400.667,333.675 400.717,333.924 C 400.768,334.173 400.862,334.369 401.002,334.511 C 401.141,334.654 401.273,334.792 401.398,334.926 C 401.523,335.06 401.59,335.238 401.599,335.46 C 401.594,335.704 401.491,335.874 401.288,335.97 C 401.084,336.065 400.807,336.111 400.454,336.107 L 396.474,336.107 C 396.088,336.113 395.796,336.069 395.6,335.976 C 395.404,335.883 395.305,335.702 395.304,335.435 C 395.309,335.22 395.372,335.05 395.494,334.926 C 395.616,334.802 395.771,334.672 395.961,334.536 C 396.15,334.4 396.348,334.206 396.553,333.955 C 396.759,333.703 396.948,333.343 397.12,332.872 L 401.972,319.04 C 402.051,318.806 402.21,318.659 402.451,318.598 C 402.691,318.538 403.062,318.553 403.564,318.642 C 403.892,318.692 404.151,318.757 404.339,318.837 C 404.527,318.917 404.666,319.008 404.754,319.11 C 404.843,319.212 404.903,319.321 404.932,319.438 L 408.316,329.464 L 411.873,319.04 C 411.951,318.804 412.113,318.654 412.362,318.589 C 412.61,318.524 413.003,318.542 413.54,318.642 C 413.868,318.693 414.125,318.76 414.31,318.844 C 414.495,318.928 414.632,319.022 414.72,319.128 C 414.808,319.234 414.871,319.346 414.909,319.463 L 419.511,332.922 C 419.678,333.386 419.876,333.741 420.103,333.987 C 420.33,334.233 420.554,334.422 420.774,334.555 C 420.994,334.688 421.177,334.816 421.324,334.941 C 421.47,335.065 421.546,335.238 421.551,335.46 C 421.545,335.715 421.426,335.888 421.194,335.979 C 420.961,336.07 420.649,336.112 420.258,336.107 L 418.018,336.107 Z" marker-start="none" marker-end="none"/>
      <path d="M 422.793,332.251 C 423.233,332.249 423.653,332.355 424.054,332.568 C 424.454,332.782 424.786,333.065 425.049,333.417 C 425.311,333.769 425.455,334.151 425.48,334.564 C 425.477,334.849 425.408,335.108 425.273,335.341 C 425.137,335.574 424.952,335.761 424.717,335.902 C 424.482,336.044 424.214,336.12 423.913,336.132 C 423.481,336.139 423.07,336.027 422.677,335.795 C 422.284,335.563 421.961,335.265 421.707,334.9 C 421.452,334.536 421.317,334.159 421.3,333.768 C 421.293,333.491 421.349,333.24 421.466,333.015 C 421.584,332.79 421.755,332.609 421.98,332.473 C 422.206,332.336 422.477,332.262 422.793,332.251 Z M 421.947,322.15 C 421.944,321.693 421.902,321.334 421.82,321.072 C 421.739,320.809 421.638,320.608 421.518,320.469 C 421.398,320.329 421.278,320.214 421.157,320.124 C 421.037,320.034 420.936,319.933 420.855,319.82 C 420.773,319.707 420.731,319.547 420.728,319.339 C 420.731,319.094 420.832,318.924 421.03,318.829 C 421.229,318.733 421.509,318.688 421.873,318.692 L 425.43,318.692 C 425.77,318.687 426.036,318.728 426.229,318.816 C 426.423,318.904 426.521,319.07 426.525,319.314 C 426.522,319.527 426.48,319.691 426.398,319.807 C 426.317,319.923 426.216,320.026 426.096,320.118 C 425.975,320.21 425.855,320.327 425.735,320.467 C 425.615,320.608 425.514,320.809 425.433,321.071 C 425.351,321.334 425.309,321.693 425.306,322.15 L 425.306,326.703 L 425.331,330.111 C 425.332,330.372 425.286,330.565 425.194,330.689 C 425.102,330.814 424.957,330.87 424.759,330.857 C 424.653,330.856 424.478,330.822 424.232,330.757 C 423.986,330.691 423.704,330.606 423.384,330.5 C 423.064,330.394 422.741,330.279 422.414,330.154 C 422.088,330.03 421.791,329.907 421.524,329.788 C 421.231,329.656 421.028,329.533 420.915,329.417 C 420.802,329.302 420.748,329.16 420.753,328.991 C 420.759,328.812 420.821,328.668 420.94,328.56 C 421.058,328.452 421.195,328.336 421.35,328.211 C 421.506,328.086 421.642,327.909 421.761,327.679 C 421.879,327.45 421.941,327.124 421.947,326.703 L 421.947,322.15 Z" marker-start="none" marker-end="none"/>
      <path d="M 429.005,318.443 C 429.159,318.449 429.285,318.492 429.384,318.572 C 429.482,318.652 429.575,318.732 429.663,318.812 C 429.751,318.891 429.855,318.934 429.975,318.94 C 430.145,318.934 430.367,318.891 430.641,318.812 C 430.916,318.732 431.271,318.652 431.706,318.572 C 432.14,318.492 432.683,318.449 433.334,318.443 C 434.214,318.448 435.005,318.601 435.707,318.904 C 436.41,319.206 436.967,319.629 437.379,320.172 C 437.791,320.714 438.002,321.349 438.011,322.075 C 438.006,322.666 437.828,323.187 437.475,323.637 C 437.122,324.087 436.622,324.503 435.976,324.884 C 435.33,325.264 434.566,325.647 433.682,326.031 C 433.002,326.317 432.433,326.577 431.975,326.811 C 431.518,327.046 431.174,327.28 430.944,327.514 C 430.713,327.749 430.597,328.009 430.597,328.295 C 430.597,328.497 430.653,328.684 430.764,328.857 C 430.875,329.029 431.043,329.169 431.268,329.275 C 431.492,329.382 431.775,329.436 432.115,329.439 C 432.482,329.435 432.861,329.364 433.25,329.226 C 433.639,329.089 434.021,328.913 434.396,328.698 C 434.771,328.483 435.122,328.258 435.448,328.021 C 435.711,327.827 435.94,327.657 436.136,327.511 C 436.331,327.366 436.509,327.266 436.668,327.212 C 436.828,327.158 436.985,327.17 437.14,327.25 C 437.304,327.322 437.405,327.451 437.442,327.639 C 437.478,327.826 437.436,328.086 437.314,328.419 C 437.208,328.671 437.104,328.907 437.003,329.128 C 436.903,329.349 436.774,329.61 436.618,329.912 C 436.428,330.257 436.266,330.506 436.133,330.658 C 435.999,330.811 435.837,330.885 435.647,330.882 C 435.503,330.878 435.386,330.848 435.294,330.792 C 435.202,330.736 435.106,330.68 435.006,330.624 C 434.906,330.568 434.771,330.538 434.603,330.534 C 434.365,330.546 434.105,330.58 433.824,330.635 C 433.543,330.691 433.224,330.745 432.868,330.798 C 432.512,330.85 432.104,330.878 431.642,330.882 C 431.15,330.883 430.661,330.813 430.174,330.674 C 429.687,330.534 429.242,330.322 428.837,330.036 C 428.432,329.751 428.108,329.389 427.864,328.951 C 427.619,328.513 427.494,327.996 427.487,327.399 C 427.492,326.885 427.596,326.433 427.801,326.041 C 428.006,325.649 428.284,325.304 428.635,325.005 C 428.986,324.705 429.384,324.438 429.828,324.202 C 430.272,323.965 430.736,323.746 431.219,323.543 C 432.31,323.092 433.157,322.675 433.76,322.29 C 434.362,321.905 434.668,321.493 434.677,321.055 C 434.67,320.69 434.535,320.401 434.273,320.188 C 434.011,319.975 433.664,319.866 433.234,319.861 C 432.507,319.866 431.779,320.086 431.051,320.52 C 430.323,320.955 429.558,321.572 428.756,322.374 C 428.484,322.627 428.244,322.81 428.035,322.924 C 427.825,323.037 427.634,323.053 427.462,322.971 C 427.311,322.899 427.204,322.787 427.142,322.635 C 427.081,322.483 427.08,322.271 427.139,322.001 C 427.249,321.588 427.377,321.182 427.525,320.785 C 427.672,320.387 427.85,319.938 428.059,319.438 C 428.213,319.048 428.355,318.783 428.486,318.642 C 428.617,318.501 428.79,318.435 429.005,318.443 Z" marker-start="none" marker-end="none"/>
      <path d="M 449.623,322.498 C 449.324,322.204 448.99,321.933 448.62,321.685 C 448.251,321.438 447.846,321.239 447.408,321.088 C 446.969,320.938 446.496,320.86 445.991,320.856 C 445.353,320.863 444.799,320.974 444.327,321.189 C 443.855,321.404 443.46,321.682 443.143,322.024 C 442.826,322.366 442.581,322.732 442.408,323.12 C 443.264,323.432 444.076,323.734 444.845,324.028 C 445.614,324.321 446.381,324.625 447.144,324.941 C 447.908,325.256 448.709,325.603 449.548,325.981 C 449.784,326.094 449.947,326.234 450.04,326.401 C 450.132,326.567 450.159,326.751 450.12,326.951 C 450.004,327.674 449.737,328.33 449.32,328.921 C 448.903,329.512 448.339,329.985 447.629,330.339 C 446.919,330.692 446.066,330.873 445.07,330.882 C 444.193,330.878 443.368,330.714 442.594,330.391 C 441.82,330.068 441.136,329.612 440.542,329.023 C 439.948,328.433 439.482,327.738 439.143,326.936 C 438.805,326.134 438.633,325.252 438.627,324.289 C 438.634,323.144 438.884,322.134 439.377,321.259 C 439.869,320.383 440.557,319.698 441.442,319.201 C 442.327,318.705 443.362,318.452 444.548,318.443 C 445.376,318.45 446.123,318.564 446.791,318.784 C 447.458,319.004 448.041,319.288 448.538,319.637 C 449.034,319.986 449.441,320.358 449.757,320.752 C 450.073,321.146 450.294,321.521 450.419,321.876 C 450.497,322.12 450.502,322.318 450.434,322.469 C 450.366,322.62 450.257,322.703 450.106,322.718 C 449.955,322.734 449.794,322.661 449.623,322.498 Z M 443.975,329.24 C 444.379,329.311 444.769,329.269 445.145,329.112 C 445.521,328.955 445.85,328.707 446.132,328.365 C 446.414,328.023 446.615,327.61 446.737,327.126 C 446.793,326.913 446.8,326.744 446.76,326.618 C 446.72,326.492 446.646,326.391 446.54,326.315 C 446.433,326.239 446.308,326.169 446.165,326.106 C 445.492,325.821 444.804,325.55 444.1,325.294 C 443.396,325.037 442.683,324.785 441.96,324.538 C 441.897,324.754 441.849,325 441.814,325.275 C 441.779,325.55 441.762,325.827 441.761,326.106 C 441.762,326.642 441.846,327.136 442.015,327.587 C 442.183,328.038 442.432,328.411 442.76,328.704 C 443.089,328.998 443.494,329.176 443.975,329.24 Z" marker-start="none" marker-end="none"/>
     </g>
    </g>
   </g>
   <g id="Group_4" stroke-linejoin="miter">
    <path d="M 299.017,335.966 C 298.987,335.952 298.781,335.94 298.56,335.938 C 298.338,335.937 298.026,335.916 297.865,335.894 C 297.706,335.87 297.481,335.841 297.366,335.828 C 297.02,335.789 296.135,335.597 295.965,335.524 C 295.935,335.511 295.841,335.484 295.757,335.465 C 295.673,335.446 295.586,335.421 295.563,335.409 C 295.54,335.397 295.462,335.372 295.389,335.353 C 295.316,335.335 295.25,335.309 295.242,335.296 C 295.234,335.282 295.201,335.272 295.168,335.272 C 295.136,335.272 295.09,335.255 295.066,335.235 C 295.009,335.187 294.523,334.994 294.459,334.994 C 294.431,334.994 294.397,334.983 294.382,334.968 C 294.362,334.949 293.614,334.57 293.232,334.387 C 293.112,334.329 293.038,334.283 292.974,334.223 C 292.94,334.19 292.868,334.146 292.813,334.123 C 292.759,334.101 292.698,334.063 292.679,334.039 C 292.639,333.991 292.279,333.745 292.249,333.745 C 292.221,333.745 291.808,333.428 291.567,333.223 C 291.27,332.967 290.874,332.574 290.874,332.533 C 290.874,332.513 290.858,332.498 290.837,332.498 C 290.753,332.498 290.109,331.693 289.78,331.178 C 289.672,331.009 289.568,330.847 289.549,330.817 C 289.514,330.763 289.408,330.564 289.293,330.333 C 289.26,330.264 289.202,330.153 289.167,330.084 C 288.782,329.331 288.469,328.012 288.459,327.101 C 288.447,325.932 288.503,325.433 288.738,324.618 C 288.785,324.458 288.828,324.307 288.833,324.284 C 288.917,323.982 289.289,323.148 289.424,322.965 C 289.458,322.917 289.487,322.86 289.487,322.838 C 289.487,322.816 289.501,322.783 289.518,322.767 C 289.553,322.731 289.607,322.642 289.663,322.523 C 289.686,322.477 289.749,322.383 289.803,322.315 C 289.858,322.246 289.903,322.177 289.903,322.161 C 289.903,322.144 289.94,322.095 289.986,322.051 C 290.032,322.007 290.07,321.958 290.07,321.942 C 290.07,321.871 290.829,320.983 290.89,320.983 C 290.925,320.983 291.04,320.865 291.04,320.828 C 291.04,320.814 291.068,320.79 291.102,320.775 C 291.134,320.759 291.182,320.714 291.205,320.674 C 291.23,320.634 291.363,320.499 291.503,320.375 C 291.643,320.249 291.765,320.128 291.773,320.105 C 291.782,320.082 291.79,319.275 291.79,318.314 C 291.79,317.034 291.799,316.535 291.822,316.453 C 291.867,316.308 292.087,316.07 292.261,315.978 L 292.399,315.906 L 294.289,315.906 L 296.179,315.906 L 296.335,315.991 C 296.531,316.099 296.608,316.167 296.631,316.262 C 296.641,316.303 296.677,316.365 296.71,316.4 C 296.768,316.463 296.77,316.492 296.778,317.131 C 296.785,317.667 296.794,317.797 296.825,317.811 C 296.847,317.818 297.055,317.794 297.288,317.754 C 297.839,317.663 298.141,317.633 298.684,317.612 C 298.928,317.603 299.168,317.59 299.217,317.582 L 299.306,317.569 L 299.3,324.527 L 299.296,331.484 L 298.992,331.481 C 298.509,331.473 297.856,331.365 297.31,331.204 C 296.942,331.093 296.82,331.047 296.325,330.836 C 295.995,330.695 295.947,330.682 295.757,330.682 C 295.256,330.681 294.926,331.034 294.959,331.537 C 294.987,331.969 295.187,332.15 296,332.481 C 296.945,332.865 298.001,333.084 299.17,333.144 L 299.296,333.15 L 299.298,334.572 L 299.302,335.993 L 299.187,335.992 C 299.124,335.99 299.048,335.979 299.017,335.966 M 302.411,315.914 C 302.431,315.906 302.455,315.908 302.465,315.917 C 302.473,315.926 302.457,315.933 302.428,315.931 C 302.396,315.93 302.389,315.924 302.411,315.914" fill="#59deb0" stroke-width="0.028"/>
    <path d="M 305.261,337.577 C 305.251,337.56 305.174,337.547 305.091,337.547 C 304.941,337.547 304.732,337.51 304.622,337.463 C 304.591,337.451 304.521,337.435 304.466,337.426 C 304.412,337.419 304.282,337.374 304.182,337.327 C 304.08,337.279 303.956,337.233 303.907,337.223 C 303.813,337.205 303.249,336.924 303.1,336.82 C 303.051,336.786 302.958,336.712 302.891,336.654 C 302.824,336.596 302.753,336.548 302.734,336.548 C 302.684,336.548 302.424,336.335 302.069,336 C 301.834,335.779 301.752,335.716 301.709,335.729 C 301.567,335.769 300.828,335.886 300.464,335.923 C 300.242,335.947 299.887,335.966 299.677,335.966 L 299.296,335.966 L 299.296,334.558 L 299.296,333.15 L 299.17,333.144 C 298.001,333.084 296.945,332.865 296,332.481 C 295.187,332.15 294.987,331.969 294.959,331.537 C 294.936,331.176 295.084,330.908 295.39,330.759 C 295.521,330.695 295.586,330.682 295.757,330.682 C 295.947,330.682 295.995,330.695 296.325,330.836 C 296.82,331.047 296.942,331.093 297.31,331.204 C 297.856,331.365 298.509,331.473 298.992,331.481 L 299.296,331.484 L 299.296,324.542 L 299.296,317.598 L 299.67,317.599 C 300.128,317.6 300.546,317.638 300.602,317.684 C 300.632,317.708 300.652,317.71 300.673,317.688 C 300.691,317.67 300.737,317.662 300.776,317.669 C 301.088,317.722 301.72,317.82 301.746,317.82 C 301.769,317.82 301.778,317.667 301.778,317.257 C 301.778,316.567 301.804,316.442 301.994,316.206 C 302.074,316.108 302.174,316.019 302.25,315.982 L 302.374,315.919 L 304.303,315.919 L 306.232,315.919 L 306.378,316.001 C 306.552,316.097 306.674,316.241 306.747,316.434 C 306.797,316.564 306.8,316.674 306.801,318.354 C 306.802,319.997 306.805,320.141 306.849,320.192 C 306.875,320.223 306.925,320.26 306.959,320.276 C 307.062,320.321 307.75,320.991 308.037,321.324 C 308.347,321.685 308.633,322.061 308.826,322.365 L 308.964,322.578 L 310.053,322.592 C 311.128,322.606 311.144,322.607 311.281,322.672 C 311.485,322.769 311.557,322.828 311.652,322.971 C 311.717,323.069 311.738,323.133 311.738,323.229 C 311.738,323.3 311.751,323.371 311.767,323.386 C 311.786,323.406 311.792,324.286 311.788,326.048 L 311.78,328.683 L 311.705,328.825 C 311.665,328.902 311.572,329.019 311.5,329.081 C 311.295,329.26 311.197,329.279 310.418,329.279 L 309.745,329.279 L 309.712,329.383 C 309.693,329.44 309.663,329.505 309.644,329.528 C 309.625,329.552 309.602,329.613 309.592,329.666 C 309.556,329.851 309.056,330.858 308.935,330.986 C 308.905,331.019 308.881,331.057 308.881,331.073 C 308.881,331.116 308.51,331.647 308.275,331.942 C 307.935,332.367 307.54,332.784 307.161,333.115 L 306.808,333.424 L 306.788,335.132 C 306.777,336.072 306.769,336.886 306.769,336.942 C 306.77,336.999 306.759,337.053 306.743,337.062 C 306.729,337.071 306.717,337.101 306.717,337.129 C 306.717,337.202 306.488,337.447 306.349,337.523 C 306.241,337.582 306.191,337.588 305.756,337.597 C 305.435,337.603 305.275,337.597 305.261,337.577 M 299.298,333.067 C 299.283,333.01 299.291,331.525 299.306,331.509 C 299.307,331.508 299.449,331.498 299.621,331.488 C 300.539,331.43 301.298,331.247 302.194,330.866 C 302.702,330.651 302.861,330.625 303.111,330.719 C 303.287,330.785 303.469,330.948 303.56,331.118 C 303.612,331.215 303.623,331.278 303.622,331.484 C 303.621,331.704 303.612,331.749 303.546,331.86 C 303.435,332.048 303.314,332.149 303.04,332.285 C 302.313,332.641 301.537,332.881 300.655,333.025 C 300.212,333.097 300.165,333.102 299.708,333.124 L 299.316,333.144 L 299.298,333.067 M 285.746,329.235 C 285.72,329.218 285.667,329.197 285.628,329.187 C 285.489,329.153 285.312,328.987 285.22,328.803 L 285.131,328.627 L 285.134,328.206 C 285.136,327.903 285.148,327.764 285.176,327.709 C 285.198,327.668 285.207,327.61 285.198,327.581 C 285.19,327.552 285.202,327.497 285.227,327.459 C 285.251,327.421 285.265,327.378 285.254,327.363 C 285.238,327.335 285.322,327.039 285.392,326.879 C 285.524,326.575 285.611,326.422 285.719,326.296 C 285.746,326.264 285.798,326.178 285.835,326.105 C 285.873,326.031 285.948,325.919 286.001,325.856 C 286.054,325.793 286.131,325.701 286.172,325.651 C 286.212,325.602 286.264,325.561 286.285,325.561 C 286.307,325.561 286.336,325.533 286.35,325.499 C 286.382,325.413 286.534,325.273 286.569,325.295 C 286.586,325.305 286.62,325.281 286.645,325.243 C 286.671,325.204 286.705,325.173 286.722,325.173 C 286.74,325.173 286.832,325.105 286.925,325.023 C 287.127,324.847 287.708,324.552 288.071,324.439 C 288.34,324.356 288.797,324.258 288.828,324.276 C 288.84,324.283 288.838,324.309 288.823,324.335 C 288.742,324.488 288.54,325.403 288.489,325.85 C 288.46,326.113 288.451,326.128 288.29,326.172 C 288.236,326.187 288.16,326.221 288.124,326.248 C 288.088,326.275 288.022,326.316 287.977,326.339 C 287.848,326.403 287.206,327.056 287.097,327.232 C 287.085,327.251 287.083,327.274 287.089,327.286 C 287.097,327.297 287.09,327.329 287.075,327.357 C 286.968,327.549 286.842,328.069 286.811,328.439 C 286.803,328.55 286.775,328.69 286.751,328.751 C 286.69,328.906 286.375,329.196 286.271,329.196 C 286.227,329.196 286.177,329.214 286.159,329.236 C 286.118,329.285 285.817,329.284 285.746,329.235 M 305.69,329.25 C 305.69,329.239 305.651,329.215 305.605,329.195 C 305.471,329.139 305.292,328.977 305.25,328.874 C 305.229,328.821 305.202,328.779 305.188,328.779 C 305.174,328.779 305.163,328.745 305.163,328.702 C 305.163,328.659 305.151,328.613 305.136,328.597 C 305.091,328.552 305.156,328.202 305.239,328.049 C 305.281,327.973 305.386,327.849 305.472,327.774 L 305.629,327.639 L 305.878,327.623 C 306.075,327.61 306.154,327.616 306.243,327.651 C 306.304,327.677 306.357,327.688 306.357,327.677 C 306.357,327.636 306.642,327.941 306.709,328.054 C 306.804,328.214 306.826,328.516 306.761,328.718 C 306.695,328.912 306.52,329.102 306.315,329.2 C 306.168,329.27 306.12,329.28 305.919,329.274 C 305.793,329.271 305.69,329.26 305.69,329.25 M 288.433,326.779 C 288.433,326.73 288.441,326.698 288.452,326.709 C 288.479,326.736 288.482,326.838 288.456,326.854 C 288.443,326.862 288.433,326.828 288.433,326.779 M 305.065,325.975 C 305.051,325.953 304.995,325.948 304.895,325.958 C 304.814,325.966 304.741,325.963 304.733,325.95 C 304.725,325.937 304.697,325.933 304.67,325.94 C 304.642,325.947 304.583,325.938 304.538,325.919 C 304.493,325.901 304.419,325.882 304.375,325.877 C 304.265,325.862 304.009,325.731 303.908,325.637 C 303.863,325.596 303.815,325.561 303.803,325.561 C 303.772,325.561 303.594,325.359 303.512,325.23 C 303.474,325.168 303.442,325.087 303.442,325.049 C 303.442,325.01 303.431,324.979 303.416,324.979 C 303.37,324.979 303.392,324.638 303.448,324.486 C 303.49,324.374 303.561,324.281 303.76,324.082 C 303.977,323.864 304.045,323.813 304.189,323.761 C 304.283,323.727 304.418,323.693 304.488,323.687 C 304.559,323.679 304.632,323.661 304.652,323.644 C 304.673,323.627 304.702,323.622 304.718,323.632 C 304.733,323.642 304.762,323.64 304.782,323.628 C 304.801,323.616 304.882,323.61 304.963,323.616 C 305.049,323.62 305.126,323.61 305.15,323.59 C 305.181,323.564 305.2,323.564 305.229,323.589 C 305.251,323.607 305.299,323.614 305.34,323.604 C 305.381,323.594 305.429,323.598 305.451,323.616 C 305.472,323.633 305.509,323.64 305.535,323.63 C 305.56,323.62 305.596,323.627 305.617,323.643 C 305.637,323.66 305.69,323.679 305.735,323.685 C 305.857,323.701 305.967,323.733 305.967,323.754 C 305.967,323.771 306.114,323.842 306.165,323.852 C 306.235,323.864 306.491,324.068 306.584,324.184 C 306.707,324.34 306.812,324.547 306.787,324.589 C 306.778,324.603 306.784,324.622 306.8,324.632 C 306.836,324.653 306.836,324.914 306.8,324.937 C 306.784,324.946 306.773,324.989 306.773,325.032 C 306.773,325.196 306.454,325.578 306.23,325.685 C 306.179,325.709 306.128,325.741 306.12,325.756 C 306.11,325.771 306.072,325.783 306.035,325.783 C 305.998,325.783 305.967,325.794 305.967,325.809 C 305.967,325.847 305.615,325.956 305.554,325.937 C 305.525,325.927 305.493,325.932 305.484,325.946 C 305.475,325.961 305.402,325.966 305.315,325.958 C 305.217,325.947 305.15,325.953 305.124,325.975 C 305.094,326 305.08,326 305.065,325.975 M 290.902,320.965 C 290.902,320.929 291.008,320.83 291.026,320.85 C 291.034,320.857 291.009,320.892 290.971,320.927 C 290.933,320.963 290.902,320.98 290.902,320.965 M 291.096,320.769 C 291.096,320.754 291.121,320.719 291.151,320.692 C 291.182,320.664 291.207,320.654 291.207,320.67 C 291.207,320.685 291.182,320.719 291.151,320.747 C 291.121,320.775 291.096,320.785 291.096,320.769" fill="#26bfa4" stroke-width="0.028"/>
    <path d="M 306.744,336.897 C 306.744,336.875 306.756,336.849 306.773,336.839 C 306.788,336.83 306.8,336.848 306.8,336.879 C 306.8,336.911 306.788,336.936 306.773,336.936 C 306.756,336.936 306.744,336.918 306.744,336.897 M 299.298,333.067 C 299.283,333.01 299.291,331.525 299.306,331.509 C 299.307,331.508 299.449,331.498 299.621,331.488 C 300.539,331.43 301.298,331.247 302.194,330.866 C 302.702,330.651 302.861,330.625 303.111,330.719 C 303.287,330.785 303.469,330.948 303.56,331.118 C 303.612,331.215 303.623,331.278 303.622,331.484 C 303.621,331.704 303.612,331.749 303.546,331.86 C 303.435,332.048 303.314,332.149 303.04,332.285 C 302.313,332.641 301.537,332.881 300.655,333.025 C 300.212,333.097 300.165,333.102 299.708,333.124 L 299.316,333.144 L 299.298,333.067 M 305.69,329.25 C 305.69,329.233 305.702,329.228 305.718,329.237 C 305.733,329.246 305.746,329.26 305.746,329.267 C 305.746,329.273 305.733,329.279 305.718,329.279 C 305.702,329.279 305.69,329.266 305.69,329.25 M 285.686,329.222 C 285.686,329.206 285.698,329.2 285.714,329.209 C 285.729,329.219 285.741,329.232 285.741,329.239 C 285.741,329.246 285.729,329.252 285.714,329.252 C 285.698,329.252 285.686,329.238 285.686,329.222 M 286.185,329.224 C 286.185,329.208 286.198,329.196 286.214,329.196 C 286.231,329.196 286.236,329.208 286.227,329.224 C 286.217,329.239 286.204,329.252 286.197,329.252 C 286.19,329.252 286.185,329.239 286.185,329.224 M 305.292,328.983 C 305.283,328.973 305.274,328.951 305.274,328.936 C 305.274,328.918 305.287,328.92 305.307,328.94 C 305.324,328.958 305.333,328.979 305.325,328.987 C 305.317,328.995 305.303,328.993 305.292,328.983 M 285.192,328.821 C 285.174,328.782 285.17,328.752 285.182,328.752 C 285.194,328.752 285.22,328.782 285.237,328.821 C 285.254,328.86 285.258,328.89 285.246,328.89 C 285.233,328.89 285.208,328.86 285.192,328.821 M 305.163,328.75 C 305.163,328.734 305.175,328.729 305.19,328.738 C 305.206,328.747 305.218,328.76 305.218,328.767 C 305.218,328.773 305.206,328.779 305.19,328.779 C 305.175,328.779 305.163,328.766 305.163,328.75 M 305.128,328.596 C 305.117,328.585 305.108,328.558 305.108,328.534 C 305.108,328.502 305.116,328.499 305.138,328.522 C 305.155,328.538 305.164,328.568 305.158,328.585 C 305.153,328.602 305.139,328.607 305.128,328.596 M 285.103,328.072 C 285.103,328.049 285.116,328.031 285.131,328.031 C 285.146,328.031 285.159,328.049 285.159,328.072 C 285.159,328.095 285.146,328.113 285.131,328.113 C 285.116,328.113 285.103,328.095 285.103,328.072 M 306.357,327.695 C 306.357,327.679 306.368,327.674 306.384,327.683 C 306.399,327.693 306.411,327.706 306.411,327.713 C 306.411,327.719 306.399,327.725 306.384,327.725 C 306.368,327.725 306.357,327.713 306.357,327.695 M 305.593,327.669 C 305.603,327.655 305.623,327.642 305.638,327.642 C 305.653,327.642 305.658,327.655 305.649,327.669 C 305.639,327.685 305.619,327.697 305.603,327.697 C 305.588,327.697 305.584,327.685 305.593,327.669 M 285.172,327.642 C 285.182,327.627 285.195,327.614 285.202,327.614 C 285.208,327.614 285.214,327.627 285.214,327.642 C 285.214,327.657 285.201,327.669 285.184,327.669 C 285.169,327.669 285.163,327.657 285.172,327.642 M 285.228,327.392 C 285.238,327.377 285.251,327.365 285.257,327.365 C 285.264,327.365 285.269,327.377 285.269,327.392 C 285.269,327.408 285.256,327.42 285.241,327.42 C 285.224,327.42 285.219,327.408 285.228,327.392 M 287.119,327.198 C 287.146,327.153 287.178,327.114 287.188,327.114 C 287.2,327.114 287.187,327.152 287.162,327.198 C 287.136,327.243 287.104,327.281 287.091,327.281 C 287.08,327.281 287.091,327.243 287.119,327.198 M 285.748,326.2 C 285.766,326.168 285.792,326.144 285.804,326.144 C 285.815,326.144 285.809,326.168 285.79,326.2 C 285.771,326.23 285.746,326.255 285.734,326.255 C 285.722,326.255 285.729,326.23 285.748,326.2 M 305.065,325.978 C 305.057,325.962 305.069,325.95 305.093,325.95 C 305.119,325.95 305.13,325.962 305.121,325.978 C 305.111,325.993 305.099,326.005 305.093,326.005 C 305.087,326.005 305.075,325.993 305.065,325.978 M 304.733,325.95 C 304.723,325.934 304.735,325.922 304.757,325.922 C 304.78,325.922 304.807,325.934 304.816,325.95 C 304.825,325.964 304.814,325.978 304.791,325.978 C 304.769,325.978 304.742,325.964 304.733,325.95 M 305.399,325.95 C 305.408,325.934 305.435,325.922 305.457,325.922 C 305.481,325.922 305.491,325.934 305.482,325.95 C 305.473,325.964 305.446,325.978 305.423,325.978 C 305.401,325.978 305.389,325.964 305.399,325.95 M 304.531,325.921 C 304.497,325.907 304.469,325.89 304.469,325.881 C 304.469,325.86 304.646,325.898 304.676,325.925 C 304.711,325.957 304.613,325.953 304.531,325.921 M 305.566,325.922 C 305.574,325.906 305.598,325.894 305.618,325.894 C 305.637,325.894 305.724,325.87 305.81,325.842 C 305.897,325.814 305.967,325.8 305.967,325.812 C 305.967,325.835 305.649,325.95 305.586,325.95 C 305.566,325.95 305.556,325.937 305.566,325.922 M 304.31,325.863 C 304.165,325.821 303.791,325.588 303.868,325.588 C 303.874,325.588 303.952,325.633 304.04,325.685 C 304.127,325.738 304.244,325.796 304.3,325.814 C 304.481,325.871 304.49,325.915 304.31,325.863 M 306.065,325.756 C 306.074,325.739 306.094,325.727 306.11,325.727 C 306.125,325.727 306.129,325.739 306.12,325.756 C 306.11,325.771 306.091,325.783 306.076,325.783 C 306.06,325.783 306.055,325.771 306.065,325.756 M 306.245,325.651 C 306.371,325.569 306.628,325.292 306.688,325.173 C 306.721,325.109 306.755,325.063 306.763,325.07 C 306.83,325.139 306.321,325.705 306.199,325.698 C 306.186,325.697 306.207,325.677 306.245,325.651 M 286.296,325.533 C 286.296,325.518 286.31,325.505 286.326,325.505 C 286.342,325.505 286.347,325.518 286.338,325.533 C 286.328,325.549 286.315,325.561 286.308,325.561 C 286.302,325.561 286.296,325.549 286.296,325.533 M 303.683,325.451 C 303.553,325.307 303.437,325.121 303.451,325.08 C 303.456,325.062 303.484,325.096 303.511,325.155 C 303.54,325.213 303.624,325.328 303.7,325.411 C 303.774,325.493 303.825,325.561 303.809,325.561 C 303.794,325.561 303.737,325.512 303.683,325.451 M 286.574,325.29 C 286.574,325.276 286.592,325.247 286.615,325.228 C 286.638,325.209 286.657,325.206 286.657,325.221 C 286.657,325.237 286.638,325.265 286.615,325.283 C 286.592,325.303 286.574,325.306 286.574,325.29 M 286.74,325.149 C 286.74,325.12 286.877,325.024 286.895,325.04 C 286.901,325.047 286.868,325.079 286.823,325.113 C 286.777,325.147 286.74,325.163 286.74,325.149 M 303.387,324.894 C 303.387,324.844 303.399,324.816 303.415,324.826 C 303.429,324.836 303.442,324.874 303.442,324.91 C 303.442,324.948 303.429,324.979 303.415,324.979 C 303.4,324.979 303.387,324.941 303.387,324.894 M 306.776,324.783 C 306.776,324.686 306.786,324.623 306.802,324.633 C 306.836,324.653 306.836,324.915 306.802,324.935 C 306.788,324.944 306.776,324.878 306.776,324.783 M 303.387,324.706 C 303.387,324.631 303.461,324.433 303.53,324.321 C 303.619,324.176 303.616,324.226 303.524,324.408 C 303.48,324.497 303.442,324.605 303.442,324.648 C 303.442,324.69 303.429,324.733 303.415,324.742 C 303.4,324.752 303.387,324.735 303.387,324.706 M 306.706,324.442 C 306.614,324.254 306.447,324.063 306.286,323.961 C 306.137,323.867 306.119,323.818 306.266,323.903 C 306.426,323.997 306.648,324.237 306.731,324.409 C 306.773,324.494 306.801,324.57 306.793,324.578 C 306.786,324.585 306.747,324.524 306.706,324.442 M 303.775,324.051 C 303.775,324.045 303.837,323.988 303.913,323.926 C 304.04,323.819 304.426,323.651 304.462,323.687 C 304.471,323.694 304.46,323.707 304.438,323.715 C 304.167,323.81 304.059,323.862 303.943,323.954 C 303.813,324.057 303.775,324.078 303.775,324.051 M 305.865,323.749 C 305.817,323.731 305.767,323.704 305.755,323.691 C 305.741,323.676 305.752,323.673 305.783,323.683 C 305.811,323.694 305.864,323.71 305.901,323.719 C 305.938,323.728 305.967,323.747 305.967,323.761 C 305.967,323.774 305.964,323.785 305.961,323.784 C 305.957,323.782 305.914,323.766 305.865,323.749 M 304.65,323.647 C 304.659,323.631 304.679,323.619 304.694,323.619 C 304.709,323.619 304.714,323.631 304.705,323.647 C 304.695,323.662 304.676,323.675 304.66,323.675 C 304.645,323.675 304.64,323.662 304.65,323.647 M 305.538,323.647 C 305.528,323.631 305.539,323.619 305.561,323.619 C 305.585,323.619 305.611,323.631 305.621,323.647 C 305.63,323.662 305.619,323.675 305.596,323.675 C 305.573,323.675 305.546,323.662 305.538,323.647 M 304.788,323.619 C 304.798,323.604 304.818,323.591 304.834,323.591 C 304.848,323.591 304.853,323.604 304.844,323.619 C 304.834,323.634 304.814,323.647 304.799,323.647 C 304.783,323.647 304.778,323.634 304.788,323.619 M 305.343,323.619 C 305.333,323.604 305.351,323.591 305.381,323.591 C 305.412,323.591 305.445,323.604 305.454,323.619 C 305.464,323.634 305.447,323.647 305.416,323.647 C 305.385,323.647 305.353,323.634 305.343,323.619 M 305.157,323.586 C 305.183,323.56 305.198,323.56 305.224,323.586 C 305.25,323.612 305.243,323.619 305.19,323.619 C 305.139,323.619 305.132,323.612 305.157,323.586 M 311.738,323.312 C 311.738,323.28 311.751,323.263 311.766,323.272 C 311.782,323.281 311.794,323.307 311.794,323.329 C 311.794,323.351 311.782,323.369 311.766,323.369 C 311.751,323.369 311.738,323.343 311.738,323.312 M 300.613,317.681 C 300.613,317.666 300.625,317.653 300.641,317.653 C 300.656,317.653 300.669,317.666 300.669,317.681 C 300.669,317.697 300.656,317.709 300.641,317.709 C 300.625,317.709 300.613,317.697 300.613,317.681" fill="#0aaca5" stroke-width="0.028"/>
    <path d="M 298.767,344.282 C 298.722,344.267 298.581,344.221 298.455,344.177 C 298.135,344.07 297.845,343.896 297.586,343.655 C 297.32,343.409 297.152,343.18 297.008,342.87 C 296.851,342.531 296.807,342.332 296.791,341.896 C 296.78,341.567 296.785,341.479 296.839,341.257 C 296.905,340.98 297.057,340.626 297.202,340.414 C 297.334,340.221 297.661,339.888 297.838,339.768 C 298.242,339.492 298.745,339.322 299.16,339.322 C 299.296,339.322 299.334,339.331 299.318,339.357 C 299.306,339.376 299.296,340.042 299.294,340.835 C 299.292,341.629 299.289,342.737 299.286,343.298 L 299.281,344.317 L 299.066,344.314 C 298.947,344.312 298.813,344.298 298.767,344.282 M 299.558,344.289 C 299.614,344.254 299.733,344.254 299.711,344.289 C 299.701,344.305 299.654,344.316 299.605,344.316 C 299.538,344.316 299.527,344.309 299.558,344.289 M 301.348,343.206 C 301.358,343.191 301.37,343.179 301.377,343.179 C 301.384,343.179 301.389,343.191 301.389,343.206 C 301.389,343.222 301.377,343.235 301.36,343.235 C 301.344,343.235 301.338,343.222 301.348,343.206 M 301.389,340.487 C 301.389,340.47 301.403,340.465 301.417,340.474 C 301.433,340.484 301.445,340.496 301.445,340.504 C 301.445,340.51 301.433,340.516 301.417,340.516 C 301.403,340.516 301.389,340.503 301.389,340.487 M 301.324,340.414 C 301.315,340.404 301.306,340.383 301.306,340.367 C 301.306,340.35 301.319,340.351 301.34,340.372 C 301.358,340.389 301.366,340.41 301.358,340.418 C 301.35,340.426 301.334,340.424 301.324,340.414 M 301.015,340.044 C 300.94,339.967 300.891,339.905 300.906,339.905 C 300.921,339.905 300.996,339.967 301.071,340.044 C 301.146,340.12 301.194,340.183 301.179,340.183 C 301.165,340.183 301.09,340.12 301.015,340.044 M 300.718,339.799 C 300.57,339.693 300.588,339.664 300.738,339.767 C 300.806,339.815 300.863,339.859 300.863,339.865 C 300.863,339.891 300.817,339.871 300.718,339.799 M 300.002,339.432 C 300.002,339.416 300.015,339.41 300.03,339.419 C 300.045,339.429 300.058,339.443 300.058,339.45 C 300.058,339.456 300.045,339.461 300.03,339.461 C 300.015,339.461 300.002,339.449 300.002,339.432" fill="#ffe040" stroke-width="0.028"/>
    <path d="M 299.293,341.857 C 299.3,340.502 299.307,339.381 299.307,339.368 C 299.309,339.328 299.839,339.364 299.947,339.411 C 300,339.435 300.117,339.476 300.207,339.505 C 300.297,339.533 300.398,339.579 300.433,339.605 C 300.467,339.633 300.505,339.656 300.515,339.656 C 300.596,339.656 301.235,340.227 301.316,340.372 C 301.333,340.403 301.393,340.495 301.448,340.576 C 301.559,340.743 301.666,341 301.734,341.26 C 301.819,341.597 301.78,342.234 301.649,342.638 C 301.589,342.82 301.434,343.132 301.378,343.177 C 301.354,343.198 301.334,343.231 301.334,343.252 C 301.334,343.31 300.96,343.692 300.768,343.828 C 300.675,343.894 300.518,343.99 300.418,344.039 C 300.084,344.209 299.945,344.245 299.413,344.307 L 299.28,344.322 L 299.293,341.857" fill="#ffbc40" stroke-width="0.028"/>
    <path d="M 305.579,329.375 C 305.351,329.282 305.158,329.094 305.046,328.854 C 304.994,328.745 304.975,328.635 304.974,328.433 C 304.972,328.2 304.985,328.135 305.061,327.991 C 305.248,327.639 305.519,327.465 305.916,327.442 C 306.152,327.43 306.209,327.438 306.374,327.513 C 306.571,327.604 306.796,327.819 306.897,328.012 C 306.983,328.178 307,328.567 306.93,328.777 C 306.803,329.158 306.385,329.459 305.983,329.457 C 305.848,329.457 305.713,329.43 305.579,329.375" stroke-width="0.033" fill="#3e434f"/>
    <path d="M 304.524,326.01 C 304.143,325.925 303.843,325.766 303.603,325.524 C 303.332,325.25 303.259,325.099 303.257,324.804 C 303.256,324.603 303.27,324.545 303.355,324.372 C 303.501,324.074 303.864,323.774 304.226,323.649 C 305.312,323.279 306.488,323.614 306.875,324.403 C 306.986,324.63 306.986,324.987 306.875,325.185 C 306.729,325.448 306.433,325.73 306.181,325.849 C 305.73,326.064 305.057,326.129 304.524,326.01" fill="#26bfa4" stroke-width="0.031"/>
   </g>
   <g id="Group_5" stroke-linejoin="miter">
    <path d="M 298.447,335.966 C 298.417,335.952 298.211,335.94 297.99,335.938 C 297.768,335.937 297.456,335.916 297.295,335.894 C 297.136,335.87 296.911,335.841 296.796,335.828 C 296.45,335.789 295.565,335.597 295.395,335.524 C 295.365,335.511 295.271,335.484 295.187,335.465 C 295.103,335.446 295.016,335.421 294.993,335.409 C 294.97,335.397 294.892,335.372 294.819,335.353 C 294.746,335.335 294.68,335.309 294.672,335.296 C 294.664,335.282 294.631,335.272 294.598,335.272 C 294.566,335.272 294.52,335.255 294.496,335.235 C 294.439,335.187 293.953,334.994 293.889,334.994 C 293.861,334.994 293.827,334.983 293.812,334.968 C 293.792,334.949 293.044,334.57 292.662,334.387 C 292.542,334.329 292.468,334.283 292.404,334.223 C 292.37,334.19 292.298,334.146 292.243,334.123 C 292.189,334.101 292.128,334.063 292.109,334.039 C 292.069,333.991 291.709,333.745 291.679,333.745 C 291.651,333.745 291.238,333.428 290.997,333.223 C 290.7,332.967 290.304,332.574 290.304,332.533 C 290.304,332.513 290.288,332.498 290.267,332.498 C 290.183,332.498 289.539,331.693 289.21,331.178 C 289.102,331.009 288.998,330.847 288.979,330.817 C 288.944,330.763 288.838,330.564 288.723,330.333 C 288.69,330.264 288.632,330.153 288.597,330.084 C 288.212,329.331 287.899,328.012 287.889,327.101 C 287.877,325.932 287.933,325.433 288.168,324.618 C 288.215,324.458 288.258,324.307 288.263,324.284 C 288.347,323.982 288.719,323.148 288.854,322.965 C 288.888,322.917 288.917,322.86 288.917,322.838 C 288.917,322.816 288.931,322.783 288.948,322.767 C 288.983,322.731 289.037,322.642 289.093,322.523 C 289.116,322.477 289.179,322.383 289.233,322.315 C 289.288,322.246 289.333,322.177 289.333,322.161 C 289.333,322.144 289.37,322.095 289.416,322.051 C 289.462,322.007 289.5,321.958 289.5,321.942 C 289.5,321.871 290.259,320.983 290.32,320.983 C 290.355,320.983 290.47,320.865 290.47,320.828 C 290.47,320.814 290.498,320.79 290.532,320.775 C 290.564,320.759 290.612,320.714 290.635,320.674 C 290.66,320.634 290.793,320.499 290.933,320.375 C 291.073,320.249 291.195,320.128 291.203,320.105 C 291.212,320.082 291.22,319.275 291.22,318.314 C 291.22,317.034 291.229,316.535 291.252,316.453 C 291.297,316.308 291.517,316.07 291.691,315.978 L 291.829,315.906 L 293.719,315.906 L 295.609,315.906 L 295.765,315.991 C 295.961,316.099 296.038,316.167 296.061,316.262 C 296.071,316.303 296.107,316.365 296.14,316.4 C 296.198,316.463 296.2,316.492 296.208,317.131 C 296.215,317.667 296.224,317.797 296.255,317.811 C 296.277,317.818 296.485,317.794 296.718,317.754 C 297.269,317.663 297.571,317.633 298.114,317.612 C 298.358,317.603 298.598,317.59 298.647,317.582 L 298.736,317.569 L 298.73,324.527 L 298.726,331.484 L 298.422,331.481 C 297.939,331.473 297.286,331.365 296.74,331.204 C 296.372,331.093 296.25,331.047 295.755,330.836 C 295.425,330.695 295.377,330.682 295.187,330.682 C 294.686,330.681 294.356,331.034 294.389,331.537 C 294.417,331.969 294.617,332.15 295.43,332.481 C 296.375,332.865 297.431,333.084 298.6,333.144 L 298.726,333.15 L 298.728,334.572 L 298.732,335.993 L 298.617,335.992 C 298.554,335.99 298.478,335.979 298.447,335.966 M 301.841,315.914 C 301.861,315.906 301.885,315.908 301.895,315.917 C 301.903,315.926 301.887,315.933 301.858,315.931 C 301.826,315.93 301.819,315.924 301.841,315.914" fill="#59deb0" stroke-width="0.028"/>
    <path d="M 304.691,337.577 C 304.681,337.56 304.604,337.547 304.521,337.547 C 304.371,337.547 304.162,337.51 304.052,337.463 C 304.021,337.451 303.951,337.435 303.896,337.426 C 303.842,337.419 303.712,337.374 303.612,337.327 C 303.51,337.279 303.386,337.233 303.337,337.223 C 303.243,337.205 302.679,336.924 302.53,336.82 C 302.481,336.786 302.388,336.712 302.321,336.654 C 302.254,336.596 302.183,336.548 302.164,336.548 C 302.114,336.548 301.854,336.335 301.499,336 C 301.264,335.779 301.182,335.716 301.139,335.729 C 300.997,335.769 300.258,335.886 299.894,335.923 C 299.672,335.947 299.317,335.966 299.107,335.966 L 298.726,335.966 L 298.726,334.558 L 298.726,333.15 L 298.6,333.144 C 297.431,333.084 296.375,332.865 295.43,332.481 C 294.617,332.15 294.417,331.969 294.389,331.537 C 294.366,331.176 294.514,330.908 294.82,330.759 C 294.951,330.695 295.016,330.682 295.187,330.682 C 295.377,330.682 295.425,330.695 295.755,330.836 C 296.25,331.047 296.372,331.093 296.74,331.204 C 297.286,331.365 297.939,331.473 298.422,331.481 L 298.726,331.484 L 298.726,324.542 L 298.726,317.598 L 299.1,317.599 C 299.558,317.6 299.976,317.638 300.032,317.684 C 300.062,317.708 300.082,317.71 300.103,317.688 C 300.121,317.67 300.167,317.662 300.206,317.669 C 300.518,317.722 301.15,317.82 301.176,317.82 C 301.199,317.82 301.208,317.667 301.208,317.257 C 301.208,316.567 301.234,316.442 301.424,316.206 C 301.504,316.108 301.604,316.019 301.68,315.982 L 301.804,315.919 L 303.733,315.919 L 305.662,315.919 L 305.808,316.001 C 305.982,316.097 306.104,316.241 306.177,316.434 C 306.227,316.564 306.23,316.674 306.231,318.354 C 306.232,319.997 306.235,320.141 306.279,320.192 C 306.305,320.223 306.355,320.26 306.389,320.276 C 306.492,320.321 307.18,320.991 307.467,321.324 C 307.777,321.685 308.063,322.061 308.256,322.365 L 308.394,322.578 L 309.483,322.592 C 310.558,322.606 310.574,322.607 310.711,322.672 C 310.915,322.769 310.987,322.828 311.082,322.971 C 311.147,323.069 311.168,323.133 311.168,323.229 C 311.168,323.3 311.181,323.371 311.197,323.386 C 311.216,323.406 311.222,324.286 311.218,326.048 L 311.21,328.683 L 311.135,328.825 C 311.095,328.902 311.002,329.019 310.93,329.081 C 310.725,329.26 310.627,329.279 309.848,329.279 L 309.175,329.279 L 309.142,329.383 C 309.123,329.44 309.093,329.505 309.074,329.528 C 309.055,329.552 309.032,329.613 309.022,329.666 C 308.986,329.851 308.486,330.858 308.365,330.986 C 308.335,331.019 308.311,331.057 308.311,331.073 C 308.311,331.116 307.94,331.647 307.705,331.942 C 307.365,332.367 306.97,332.784 306.591,333.115 L 306.238,333.424 L 306.218,335.132 C 306.207,336.072 306.199,336.886 306.199,336.942 C 306.2,336.999 306.189,337.053 306.173,337.062 C 306.159,337.071 306.147,337.101 306.147,337.129 C 306.147,337.202 305.918,337.447 305.779,337.523 C 305.671,337.582 305.621,337.588 305.186,337.597 C 304.865,337.603 304.705,337.597 304.691,337.577 M 298.728,333.067 C 298.713,333.01 298.721,331.525 298.736,331.509 C 298.737,331.508 298.879,331.498 299.051,331.488 C 299.969,331.43 300.728,331.247 301.624,330.866 C 302.132,330.651 302.291,330.625 302.541,330.719 C 302.717,330.785 302.899,330.948 302.99,331.118 C 303.042,331.215 303.053,331.278 303.052,331.484 C 303.051,331.704 303.042,331.749 302.976,331.86 C 302.865,332.048 302.744,332.149 302.47,332.285 C 301.743,332.641 300.967,332.881 300.085,333.025 C 299.642,333.097 299.595,333.102 299.138,333.124 L 298.746,333.144 L 298.728,333.067 M 285.176,329.235 C 285.15,329.218 285.097,329.197 285.058,329.187 C 284.919,329.153 284.742,328.987 284.65,328.803 L 284.561,328.627 L 284.564,328.206 C 284.566,327.903 284.578,327.764 284.606,327.709 C 284.628,327.668 284.637,327.61 284.628,327.581 C 284.62,327.552 284.632,327.497 284.657,327.459 C 284.681,327.421 284.695,327.378 284.684,327.363 C 284.668,327.335 284.752,327.039 284.822,326.879 C 284.954,326.575 285.041,326.422 285.149,326.296 C 285.176,326.264 285.228,326.178 285.265,326.105 C 285.303,326.031 285.378,325.919 285.431,325.856 C 285.484,325.793 285.561,325.701 285.602,325.651 C 285.642,325.602 285.694,325.561 285.715,325.561 C 285.737,325.561 285.766,325.533 285.78,325.499 C 285.812,325.413 285.964,325.273 285.999,325.295 C 286.016,325.305 286.05,325.281 286.075,325.243 C 286.101,325.204 286.135,325.173 286.152,325.173 C 286.17,325.173 286.262,325.105 286.355,325.023 C 286.557,324.847 287.138,324.552 287.501,324.439 C 287.77,324.356 288.227,324.258 288.258,324.276 C 288.27,324.283 288.268,324.309 288.253,324.335 C 288.172,324.488 287.97,325.403 287.919,325.85 C 287.89,326.113 287.881,326.128 287.72,326.172 C 287.666,326.187 287.59,326.221 287.554,326.248 C 287.518,326.275 287.452,326.316 287.407,326.339 C 287.278,326.403 286.636,327.056 286.527,327.232 C 286.515,327.251 286.513,327.274 286.519,327.286 C 286.527,327.297 286.52,327.329 286.505,327.357 C 286.398,327.549 286.272,328.069 286.241,328.439 C 286.233,328.55 286.205,328.69 286.181,328.751 C 286.12,328.906 285.805,329.196 285.701,329.196 C 285.657,329.196 285.607,329.214 285.589,329.236 C 285.548,329.285 285.247,329.284 285.176,329.235 M 305.12,329.25 C 305.12,329.239 305.081,329.215 305.035,329.195 C 304.901,329.139 304.722,328.977 304.68,328.874 C 304.659,328.821 304.632,328.779 304.618,328.779 C 304.604,328.779 304.593,328.745 304.593,328.702 C 304.593,328.659 304.581,328.613 304.566,328.597 C 304.521,328.552 304.586,328.202 304.669,328.049 C 304.711,327.973 304.816,327.849 304.902,327.774 L 305.059,327.639 L 305.308,327.623 C 305.505,327.61 305.584,327.616 305.673,327.651 C 305.734,327.677 305.787,327.688 305.787,327.677 C 305.787,327.636 306.072,327.941 306.139,328.054 C 306.234,328.214 306.256,328.516 306.191,328.718 C 306.125,328.912 305.95,329.102 305.745,329.2 C 305.598,329.27 305.55,329.28 305.349,329.274 C 305.223,329.271 305.12,329.26 305.12,329.25 M 287.863,326.779 C 287.863,326.73 287.871,326.698 287.882,326.709 C 287.909,326.736 287.912,326.838 287.886,326.854 C 287.873,326.862 287.863,326.828 287.863,326.779 M 304.495,325.975 C 304.481,325.953 304.425,325.948 304.325,325.958 C 304.244,325.966 304.171,325.963 304.163,325.95 C 304.155,325.937 304.127,325.933 304.1,325.94 C 304.072,325.947 304.013,325.938 303.968,325.919 C 303.923,325.901 303.849,325.882 303.805,325.877 C 303.695,325.862 303.439,325.731 303.338,325.637 C 303.293,325.596 303.245,325.561 303.233,325.561 C 303.202,325.561 303.024,325.359 302.942,325.23 C 302.904,325.168 302.872,325.087 302.872,325.049 C 302.872,325.01 302.861,324.979 302.846,324.979 C 302.8,324.979 302.822,324.638 302.878,324.486 C 302.92,324.374 302.991,324.281 303.19,324.082 C 303.407,323.864 303.475,323.813 303.619,323.761 C 303.713,323.727 303.848,323.693 303.918,323.687 C 303.989,323.679 304.062,323.661 304.082,323.644 C 304.103,323.627 304.132,323.622 304.148,323.632 C 304.163,323.642 304.192,323.64 304.212,323.628 C 304.231,323.616 304.312,323.61 304.393,323.616 C 304.479,323.62 304.556,323.61 304.58,323.59 C 304.611,323.564 304.63,323.564 304.659,323.589 C 304.681,323.607 304.729,323.614 304.77,323.604 C 304.811,323.594 304.859,323.598 304.881,323.616 C 304.902,323.633 304.939,323.64 304.965,323.63 C 304.99,323.62 305.026,323.627 305.047,323.643 C 305.067,323.66 305.12,323.679 305.165,323.685 C 305.287,323.701 305.397,323.733 305.397,323.754 C 305.397,323.771 305.544,323.842 305.595,323.852 C 305.665,323.864 305.921,324.068 306.014,324.184 C 306.137,324.34 306.242,324.547 306.217,324.589 C 306.208,324.603 306.214,324.622 306.23,324.632 C 306.266,324.653 306.266,324.914 306.23,324.937 C 306.214,324.946 306.203,324.989 306.203,325.032 C 306.203,325.196 305.884,325.578 305.66,325.685 C 305.609,325.709 305.558,325.741 305.55,325.756 C 305.54,325.771 305.502,325.783 305.465,325.783 C 305.428,325.783 305.397,325.794 305.397,325.809 C 305.397,325.847 305.045,325.956 304.984,325.937 C 304.955,325.927 304.923,325.932 304.914,325.946 C 304.905,325.961 304.832,325.966 304.745,325.958 C 304.647,325.947 304.58,325.953 304.554,325.975 C 304.524,326 304.51,326 304.495,325.975 M 290.332,320.965 C 290.332,320.929 290.438,320.83 290.456,320.85 C 290.464,320.857 290.439,320.892 290.401,320.927 C 290.363,320.963 290.332,320.98 290.332,320.965 M 290.526,320.769 C 290.526,320.754 290.551,320.719 290.581,320.692 C 290.612,320.664 290.637,320.654 290.637,320.67 C 290.637,320.685 290.612,320.719 290.581,320.747 C 290.551,320.775 290.526,320.785 290.526,320.769" fill="#26bfa4" stroke-width="0.028"/>
    <path d="M 306.174,336.897 C 306.174,336.875 306.186,336.849 306.203,336.839 C 306.218,336.83 306.23,336.848 306.23,336.879 C 306.23,336.911 306.218,336.936 306.203,336.936 C 306.186,336.936 306.174,336.918 306.174,336.897 M 298.728,333.067 C 298.713,333.01 298.721,331.525 298.736,331.509 C 298.737,331.508 298.879,331.498 299.051,331.488 C 299.969,331.43 300.728,331.247 301.624,330.866 C 302.132,330.651 302.291,330.625 302.541,330.719 C 302.717,330.785 302.899,330.948 302.99,331.118 C 303.042,331.215 303.053,331.278 303.052,331.484 C 303.051,331.704 303.042,331.749 302.976,331.86 C 302.865,332.048 302.744,332.149 302.47,332.285 C 301.743,332.641 300.967,332.881 300.085,333.025 C 299.642,333.097 299.595,333.102 299.138,333.124 L 298.746,333.144 L 298.728,333.067 M 305.12,329.25 C 305.12,329.233 305.132,329.228 305.148,329.237 C 305.163,329.246 305.176,329.26 305.176,329.267 C 305.176,329.273 305.163,329.279 305.148,329.279 C 305.132,329.279 305.12,329.266 305.12,329.25 M 285.116,329.222 C 285.116,329.206 285.128,329.2 285.144,329.209 C 285.159,329.219 285.171,329.232 285.171,329.239 C 285.171,329.246 285.159,329.252 285.144,329.252 C 285.128,329.252 285.116,329.238 285.116,329.222 M 285.615,329.224 C 285.615,329.208 285.628,329.196 285.644,329.196 C 285.661,329.196 285.666,329.208 285.657,329.224 C 285.647,329.239 285.634,329.252 285.627,329.252 C 285.62,329.252 285.615,329.239 285.615,329.224 M 304.722,328.983 C 304.713,328.973 304.704,328.951 304.704,328.936 C 304.704,328.918 304.717,328.92 304.737,328.94 C 304.754,328.958 304.763,328.979 304.755,328.987 C 304.747,328.995 304.733,328.993 304.722,328.983 M 284.622,328.821 C 284.604,328.782 284.6,328.752 284.612,328.752 C 284.624,328.752 284.65,328.782 284.667,328.821 C 284.684,328.86 284.688,328.89 284.676,328.89 C 284.663,328.89 284.638,328.86 284.622,328.821 M 304.593,328.75 C 304.593,328.734 304.605,328.729 304.62,328.738 C 304.636,328.747 304.648,328.76 304.648,328.767 C 304.648,328.773 304.636,328.779 304.62,328.779 C 304.605,328.779 304.593,328.766 304.593,328.75 M 304.558,328.596 C 304.547,328.585 304.538,328.558 304.538,328.534 C 304.538,328.502 304.546,328.499 304.568,328.522 C 304.585,328.538 304.594,328.568 304.588,328.585 C 304.583,328.602 304.569,328.607 304.558,328.596 M 284.533,328.072 C 284.533,328.049 284.546,328.031 284.561,328.031 C 284.576,328.031 284.589,328.049 284.589,328.072 C 284.589,328.095 284.576,328.113 284.561,328.113 C 284.546,328.113 284.533,328.095 284.533,328.072 M 305.787,327.695 C 305.787,327.679 305.798,327.674 305.814,327.683 C 305.829,327.693 305.841,327.706 305.841,327.713 C 305.841,327.719 305.829,327.725 305.814,327.725 C 305.798,327.725 305.787,327.713 305.787,327.695 M 305.023,327.669 C 305.033,327.655 305.053,327.642 305.068,327.642 C 305.083,327.642 305.088,327.655 305.079,327.669 C 305.069,327.685 305.049,327.697 305.033,327.697 C 305.018,327.697 305.014,327.685 305.023,327.669 M 284.602,327.642 C 284.612,327.627 284.625,327.614 284.632,327.614 C 284.638,327.614 284.644,327.627 284.644,327.642 C 284.644,327.657 284.631,327.669 284.614,327.669 C 284.599,327.669 284.593,327.657 284.602,327.642 M 284.658,327.392 C 284.668,327.377 284.681,327.365 284.687,327.365 C 284.694,327.365 284.699,327.377 284.699,327.392 C 284.699,327.408 284.686,327.42 284.671,327.42 C 284.654,327.42 284.649,327.408 284.658,327.392 M 286.549,327.198 C 286.576,327.153 286.608,327.114 286.618,327.114 C 286.63,327.114 286.617,327.152 286.592,327.198 C 286.566,327.243 286.534,327.281 286.521,327.281 C 286.51,327.281 286.521,327.243 286.549,327.198 M 285.178,326.2 C 285.196,326.168 285.222,326.144 285.234,326.144 C 285.245,326.144 285.239,326.168 285.22,326.2 C 285.201,326.23 285.176,326.255 285.164,326.255 C 285.152,326.255 285.159,326.23 285.178,326.2 M 304.495,325.978 C 304.487,325.962 304.499,325.95 304.523,325.95 C 304.549,325.95 304.56,325.962 304.551,325.978 C 304.541,325.993 304.529,326.005 304.523,326.005 C 304.517,326.005 304.505,325.993 304.495,325.978 M 304.163,325.95 C 304.153,325.934 304.165,325.922 304.187,325.922 C 304.21,325.922 304.237,325.934 304.246,325.95 C 304.255,325.964 304.244,325.978 304.221,325.978 C 304.199,325.978 304.172,325.964 304.163,325.95 M 304.829,325.95 C 304.838,325.934 304.865,325.922 304.887,325.922 C 304.911,325.922 304.921,325.934 304.912,325.95 C 304.903,325.964 304.876,325.978 304.853,325.978 C 304.831,325.978 304.819,325.964 304.829,325.95 M 303.961,325.921 C 303.927,325.907 303.899,325.89 303.899,325.881 C 303.899,325.86 304.076,325.898 304.106,325.925 C 304.141,325.957 304.043,325.953 303.961,325.921 M 304.996,325.922 C 305.004,325.906 305.028,325.894 305.048,325.894 C 305.067,325.894 305.154,325.87 305.24,325.842 C 305.327,325.814 305.397,325.8 305.397,325.812 C 305.397,325.835 305.079,325.95 305.016,325.95 C 304.996,325.95 304.986,325.937 304.996,325.922 M 303.74,325.863 C 303.595,325.821 303.221,325.588 303.298,325.588 C 303.304,325.588 303.382,325.633 303.47,325.685 C 303.557,325.738 303.674,325.796 303.73,325.814 C 303.911,325.871 303.92,325.915 303.74,325.863 M 305.495,325.756 C 305.504,325.739 305.524,325.727 305.54,325.727 C 305.555,325.727 305.559,325.739 305.55,325.756 C 305.54,325.771 305.521,325.783 305.506,325.783 C 305.49,325.783 305.485,325.771 305.495,325.756 M 305.675,325.651 C 305.801,325.569 306.058,325.292 306.118,325.173 C 306.151,325.109 306.185,325.063 306.193,325.07 C 306.26,325.139 305.751,325.705 305.629,325.698 C 305.616,325.697 305.637,325.677 305.675,325.651 M 285.726,325.533 C 285.726,325.518 285.74,325.505 285.756,325.505 C 285.772,325.505 285.777,325.518 285.768,325.533 C 285.758,325.549 285.745,325.561 285.738,325.561 C 285.732,325.561 285.726,325.549 285.726,325.533 M 303.113,325.451 C 302.983,325.307 302.867,325.121 302.881,325.08 C 302.886,325.062 302.914,325.096 302.941,325.155 C 302.97,325.213 303.054,325.328 303.13,325.411 C 303.204,325.493 303.255,325.561 303.239,325.561 C 303.224,325.561 303.167,325.512 303.113,325.451 M 286.004,325.29 C 286.004,325.276 286.022,325.247 286.045,325.228 C 286.068,325.209 286.087,325.206 286.087,325.221 C 286.087,325.237 286.068,325.265 286.045,325.283 C 286.022,325.303 286.004,325.306 286.004,325.29 M 286.17,325.149 C 286.17,325.12 286.307,325.024 286.325,325.04 C 286.331,325.047 286.298,325.079 286.253,325.113 C 286.207,325.147 286.17,325.163 286.17,325.149 M 302.817,324.894 C 302.817,324.844 302.829,324.816 302.845,324.826 C 302.859,324.836 302.872,324.874 302.872,324.91 C 302.872,324.948 302.859,324.979 302.845,324.979 C 302.83,324.979 302.817,324.941 302.817,324.894 M 306.206,324.783 C 306.206,324.686 306.216,324.623 306.232,324.633 C 306.266,324.653 306.266,324.915 306.232,324.935 C 306.218,324.944 306.206,324.878 306.206,324.783 M 302.817,324.706 C 302.817,324.631 302.891,324.433 302.96,324.321 C 303.049,324.176 303.046,324.226 302.954,324.408 C 302.91,324.497 302.872,324.605 302.872,324.648 C 302.872,324.69 302.859,324.733 302.845,324.742 C 302.83,324.752 302.817,324.735 302.817,324.706 M 306.136,324.442 C 306.044,324.254 305.877,324.063 305.716,323.961 C 305.567,323.867 305.549,323.818 305.696,323.903 C 305.856,323.997 306.078,324.237 306.161,324.409 C 306.203,324.494 306.231,324.57 306.223,324.578 C 306.216,324.585 306.177,324.524 306.136,324.442 M 303.205,324.051 C 303.205,324.045 303.267,323.988 303.343,323.926 C 303.47,323.819 303.856,323.651 303.892,323.687 C 303.901,323.694 303.89,323.707 303.868,323.715 C 303.597,323.81 303.489,323.862 303.373,323.954 C 303.243,324.057 303.205,324.078 303.205,324.051 M 305.295,323.749 C 305.247,323.731 305.197,323.704 305.185,323.691 C 305.171,323.676 305.182,323.673 305.213,323.683 C 305.241,323.694 305.294,323.71 305.331,323.719 C 305.368,323.728 305.397,323.747 305.397,323.761 C 305.397,323.774 305.394,323.785 305.391,323.784 C 305.387,323.782 305.344,323.766 305.295,323.749 M 304.08,323.647 C 304.089,323.631 304.109,323.619 304.124,323.619 C 304.139,323.619 304.144,323.631 304.135,323.647 C 304.125,323.662 304.106,323.675 304.09,323.675 C 304.075,323.675 304.07,323.662 304.08,323.647 M 304.968,323.647 C 304.958,323.631 304.969,323.619 304.991,323.619 C 305.015,323.619 305.041,323.631 305.051,323.647 C 305.06,323.662 305.049,323.675 305.026,323.675 C 305.003,323.675 304.976,323.662 304.968,323.647 M 304.218,323.619 C 304.228,323.604 304.248,323.591 304.264,323.591 C 304.278,323.591 304.283,323.604 304.274,323.619 C 304.264,323.634 304.244,323.647 304.229,323.647 C 304.213,323.647 304.208,323.634 304.218,323.619 M 304.773,323.619 C 304.763,323.604 304.781,323.591 304.811,323.591 C 304.842,323.591 304.875,323.604 304.884,323.619 C 304.894,323.634 304.877,323.647 304.846,323.647 C 304.815,323.647 304.783,323.634 304.773,323.619 M 304.587,323.586 C 304.613,323.56 304.628,323.56 304.654,323.586 C 304.68,323.612 304.673,323.619 304.62,323.619 C 304.569,323.619 304.562,323.612 304.587,323.586 M 311.168,323.312 C 311.168,323.28 311.181,323.263 311.196,323.272 C 311.212,323.281 311.224,323.307 311.224,323.329 C 311.224,323.351 311.212,323.369 311.196,323.369 C 311.181,323.369 311.168,323.343 311.168,323.312 M 300.043,317.681 C 300.043,317.666 300.055,317.653 300.071,317.653 C 300.086,317.653 300.099,317.666 300.099,317.681 C 300.099,317.697 300.086,317.709 300.071,317.709 C 300.055,317.709 300.043,317.697 300.043,317.681" fill="#0aaca5" stroke-width="0.028"/>
    <path d="M 298.197,344.282 C 298.152,344.267 298.011,344.221 297.885,344.177 C 297.565,344.07 297.275,343.896 297.016,343.655 C 296.75,343.409 296.582,343.18 296.438,342.87 C 296.281,342.531 296.237,342.332 296.221,341.896 C 296.21,341.567 296.215,341.479 296.269,341.257 C 296.335,340.98 296.487,340.626 296.632,340.414 C 296.764,340.221 297.091,339.888 297.268,339.768 C 297.672,339.492 298.175,339.322 298.59,339.322 C 298.726,339.322 298.764,339.331 298.748,339.357 C 298.736,339.376 298.726,340.042 298.724,340.835 C 298.722,341.629 298.719,342.737 298.716,343.298 L 298.711,344.317 L 298.496,344.314 C 298.377,344.312 298.243,344.298 298.197,344.282 M 298.988,344.289 C 299.044,344.254 299.163,344.254 299.141,344.289 C 299.131,344.305 299.084,344.316 299.035,344.316 C 298.968,344.316 298.957,344.309 298.988,344.289 M 300.778,343.206 C 300.788,343.191 300.8,343.179 300.807,343.179 C 300.814,343.179 300.819,343.191 300.819,343.206 C 300.819,343.222 300.807,343.235 300.79,343.235 C 300.774,343.235 300.768,343.222 300.778,343.206 M 300.819,340.487 C 300.819,340.47 300.833,340.465 300.847,340.474 C 300.863,340.484 300.875,340.496 300.875,340.504 C 300.875,340.51 300.863,340.516 300.847,340.516 C 300.833,340.516 300.819,340.503 300.819,340.487 M 300.754,340.414 C 300.745,340.404 300.736,340.383 300.736,340.367 C 300.736,340.35 300.749,340.351 300.77,340.372 C 300.788,340.389 300.796,340.41 300.788,340.418 C 300.78,340.426 300.764,340.424 300.754,340.414 M 300.445,340.044 C 300.37,339.967 300.321,339.905 300.336,339.905 C 300.351,339.905 300.426,339.967 300.501,340.044 C 300.576,340.12 300.624,340.183 300.609,340.183 C 300.595,340.183 300.52,340.12 300.445,340.044 M 300.148,339.799 C 300,339.693 300.018,339.664 300.168,339.767 C 300.236,339.815 300.293,339.859 300.293,339.865 C 300.293,339.891 300.247,339.871 300.148,339.799 M 299.432,339.432 C 299.432,339.416 299.445,339.41 299.46,339.419 C 299.475,339.429 299.488,339.443 299.488,339.45 C 299.488,339.456 299.475,339.461 299.46,339.461 C 299.445,339.461 299.432,339.449 299.432,339.432" fill="#ffe040" stroke-width="0.028"/>
    <path d="M 298.723,341.857 C 298.73,340.502 298.737,339.381 298.737,339.368 C 298.739,339.328 299.269,339.364 299.377,339.411 C 299.43,339.435 299.547,339.476 299.637,339.505 C 299.727,339.533 299.828,339.579 299.863,339.605 C 299.897,339.633 299.935,339.656 299.945,339.656 C 300.026,339.656 300.665,340.227 300.746,340.372 C 300.763,340.403 300.823,340.495 300.878,340.576 C 300.989,340.743 301.096,341 301.164,341.26 C 301.249,341.597 301.21,342.234 301.079,342.638 C 301.019,342.82 300.864,343.132 300.808,343.177 C 300.784,343.198 300.764,343.231 300.764,343.252 C 300.764,343.31 300.39,343.692 300.198,343.828 C 300.105,343.894 299.948,343.99 299.848,344.039 C 299.514,344.209 299.375,344.245 298.843,344.307 L 298.71,344.322 L 298.723,341.857" fill="#ffbc40" stroke-width="0.028"/>
    <path d="M 305.009,329.375 C 304.781,329.282 304.588,329.094 304.476,328.854 C 304.424,328.745 304.405,328.635 304.404,328.433 C 304.402,328.2 304.415,328.135 304.491,327.991 C 304.678,327.639 304.949,327.465 305.346,327.442 C 305.582,327.43 305.639,327.438 305.804,327.513 C 306.001,327.604 306.226,327.819 306.327,328.012 C 306.413,328.178 306.43,328.567 306.36,328.777 C 306.233,329.158 305.815,329.459 305.413,329.457 C 305.278,329.457 305.143,329.43 305.009,329.375" stroke-width="0.033" fill="#3e434f"/>
    <path d="M 303.954,326.01 C 303.573,325.925 303.273,325.766 303.033,325.524 C 302.762,325.25 302.689,325.099 302.687,324.804 C 302.686,324.603 302.7,324.545 302.785,324.372 C 302.931,324.074 303.294,323.774 303.656,323.649 C 304.742,323.279 305.918,323.614 306.305,324.403 C 306.416,324.63 306.416,324.987 306.305,325.185 C 306.159,325.448 305.863,325.73 305.611,325.849 C 305.16,326.064 304.487,326.129 303.954,326.01" fill="#26bfa4" stroke-width="0.031"/>
   </g>
  </g>
 </g>
</svg>
